spectral-italic.ufo
<glyph name="exclam" format="1">
  <advance width="241"/>
  <unicode hex="0021"/>
  <outline>
    <contour>
      <point x="89" y="200" type="line"/>
      <point x="107" y="200" type="line"/>
      <point x="226" y="660" type="line"/>
      <point x="132" y="660" type="line"/>
    </contour>
    <contour>
      <point x="63" y="-5" type="curve" smooth="yes"/>
      <point x="100" y="-5"/>
      <point x="124" y="26"/>
      <point x="124" y="60" type="curve" smooth="yes"/>
      <point x="124" y="89"/>
      <point x="109" y="110"/>
      <point x="76" y="110" type="curve" smooth="yes"/>
      <point x="40" y="110"/>
      <point x="15" y="79"/>
      <point x="15" y="45" type="curve" smooth="yes"/>
      <point x="15" y="16"/>
      <point x="30" y="-5"/>
    </contour>
  </outline>
</glyph>
<glyph name="numbersign" format="1">
  <advance width="500"/>
  <unicode hex="0023"/>
  <outline>
    <contour>
      <point x="11" y="0" type="line"/>
      <point x="58" y="0" type="line"/>
      <point x="327" y="660" type="line"/>
      <point x="280" y="660" type="line"/>
    </contour>
    <contour>
      <point x="220" y="0" type="line"/>
      <point x="489" y="660" type="line"/>
      <point x="442" y="660" type="line"/>
      <point x="173" y="0" type="line"/>
    </contour>
    <contour>
      <point x="83" y="408" type="line"/>
      <point x="476" y="408" type="line"/>
      <point x="483" y="450" type="line"/>
      <point x="90" y="450" type="line"/>
    </contour>
    <contour>
      <point x="409" y="208" type="line"/>
      <point x="416" y="250" type="line"/>
      <point x="23" y="250" type="line"/>
      <point x="16" y="208" type="line"/>
    </contour>
  </outline>
</glyph>
<glyph name="dollar" format="2">
  <advance width="500"/>
  <unicode hex="0024"/>
  <outline>
    <contour>
      <point x="144" y="-80" type="line"/>
      <point x="181" y="-80" type="line"/>
      <point x="317" y="740" type="line"/>
      <point x="280" y="740" type="line"/>
    </contour>
    <contour>
      <point x="236" y="-80" type="line"/>
      <point x="273" y="-80" type="line"/>
      <point x="409" y="740" type="line"/>
      <point x="373" y="740" type="line"/>
    </contour>
    <contour>
      <point x="447" y="577" type="curve"/>
      <point x="434" y="619" type="line"/>
      <point x="417" y="510" type="line"/>
      <point x="449" y="510" type="line" smooth="yes"/>
      <point x="478" y="510"/>
      <point x="493" y="524"/>
      <point x="493" y="556" type="curve" smooth="yes"/>
      <point x="493" y="616"/>
      <point x="435" y="670"/>
      <point x="339" y="670" type="curve" smooth="yes"/>
      <point x="229" y="670"/>
      <point x="122" y="587"/>
      <point x="122" y="479" type="curve" smooth="yes"/>
      <point x="122" y="405"/>
      <point x="157" y="359"/>
      <point x="230" y="319" type="curve" smooth="yes"/>
      <point x="329" y="264"/>
      <point x="361" y="227"/>
      <point x="361" y="169" type="curve" smooth="yes"/>
      <point x="361" y="88"/>
      <point x="304" y="31"/>
      <point x="225" y="31" type="curve" smooth="yes"/>
      <point x="161" y="31"/>
      <point x="125" y="59"/>
      <point x="111" y="96" type="curve"/>
      <point x="115" y="60" type="line"/>
      <point x="135" y="172" type="line"/>
      <point x="102" y="172" type="line" smooth="yes"/>
      <point x="73" y="172"/>
      <point x="59" y="155"/>
      <point x="59" y="122" type="curve" smooth="yes"/>
      <point x="59" y="63"/>
      <point x="113" y="-10"/>
      <point x="220" y="-10" type="curve" smooth="yes"/>
      <point x="330" y="-10"/>
      <point x="435" y="67"/>
      <point x="435" y="193" type="curve" smooth="yes"/>
      <point x="435" y="269"/>
      <point x="395" y="316"/>
      <point x="296" y="374" type="curve" smooth="yes"/>
      <point x="214" y="422"/>
      <point x="194" y="452"/>
      <point x="194" y="505" type="curve" smooth="yes"/>
      <point x="194" y="578"/>
      <point x="250" y="627"/>
      <point x="330" y="627" type="curve" smooth="yes"/>
      <point x="391" y="627"/>
      <point x="425" y="610"/>
    </contour>
  </outline>
</glyph>
<glyph name="ampersand" format="1">
  <advance width="727.0"/>
  <unicode hex="0026"/>
  <outline>
    <contour>
      <point x="567" y="-10" type="curve" smooth="yes"/>
      <point x="613" y="-10"/>
      <point x="656" y="11"/>
      <point x="687" y="53" type="curve"/>
      <point x="678" y="64" type="line"/>
      <point x="676" y="64" type="line"/>
      <point x="658" y="48"/>
      <point x="640" y="41"/>
      <point x="617" y="41" type="curve" smooth="yes"/>
      <point x="565" y="41"/>
      <point x="518" y="81"/>
      <point x="472" y="141" type="curve" smooth="yes"/>
      <point x="310" y="350" type="line" smooth="yes"/>
      <point x="251" y="426"/>
      <point x="221" y="473"/>
      <point x="221" y="528" type="curve" smooth="yes"/>
      <point x="221" y="597"/>
      <point x="269" y="629"/>
      <point x="320" y="629" type="curve" smooth="yes"/>
      <point x="371" y="629"/>
      <point x="403" y="599"/>
      <point x="403" y="551" type="curve" smooth="yes"/>
      <point x="403" y="502"/>
      <point x="376" y="446"/>
      <point x="265" y="389" type="curve"/>
      <point x="280" y="370" type="line"/>
      <point x="422" y="439"/>
      <point x="478" y="477"/>
      <point x="478" y="550" type="curve" smooth="yes"/>
      <point x="478" y="618"/>
      <point x="412" y="670"/>
      <point x="329" y="670" type="curve" smooth="yes"/>
      <point x="228" y="670"/>
      <point x="148" y="607"/>
      <point x="148" y="500" type="curve" smooth="yes"/>
      <point x="148" y="428"/>
      <point x="183" y="381"/>
      <point x="230" y="319" type="curve" smooth="yes"/>
      <point x="394" y="102" type="line" smooth="yes"/>
      <point x="441" y="40"/>
      <point x="488" y="-10"/>
    </contour>
    <contour>
      <point x="187" y="-10" type="curve" smooth="yes"/>
      <point x="351" y="-10"/>
      <point x="471" y="130"/>
      <point x="601" y="350" type="curve"/>
      <point x="567" y="325" type="line"/>
      <point x="679" y="372" type="line"/>
      <point x="682" y="388" type="line"/>
      <point x="456" y="388" type="line"/>
      <point x="453" y="372" type="line"/>
      <point x="540" y="333" type="line"/>
      <point x="451" y="148"/>
      <point x="348" y="49"/>
      <point x="232" y="49" type="curve" smooth="yes"/>
      <point x="163" y="49"/>
      <point x="115" y="99"/>
      <point x="115" y="168" type="curve" smooth="yes"/>
      <point x="115" y="238"/>
      <point x="147" y="291"/>
      <point x="234" y="345" type="curve"/>
      <point x="215" y="364" type="line"/>
      <point x="87" y="293"/>
      <point x="30" y="239"/>
      <point x="30" y="136" type="curve" smooth="yes"/>
      <point x="30" y="53"/>
      <point x="90" y="-10"/>
    </contour>
  </outline>
</glyph>
<glyph name="quotesingle" format="1">
  <advance width="250.0"/>
  <unicode hex="0027"/>
  <outline>
    <contour>
      <point x="150" y="490" type="line"/>
      <point x="170" y="490" type="line"/>
      <point x="249" y="740" type="line"/>
      <point x="159" y="740" type="line"/>
    </contour>
  </outline>
</glyph>
<glyph name="parenleft" format="1">
  <advance width="250"/>
  <unicode hex="0028"/>
  <outline>
    <contour>
      <point x="150" y="-150" type="curve"/>
      <point x="170" y="-150" type="line"/>
      <point x="170" y="-147" type="line"/>
      <point x="129" y="-49"/>
      <point x="113" y="50"/>
      <point x="113" y="170" type="curve" smooth="yes"/>
      <point x="113" y="381"/>
      <point x="193" y="574"/>
      <point x="318" y="737" type="curve"/>
      <point x="318" y="740" type="line"/>
      <point x="298" y="740" type="line"/>
      <point x="156" y="599"/>
      <point x="55" y="406"/>
      <point x="55" y="195" type="curve" smooth="yes"/>
      <point x="55" y="69"/>
      <point x="89" y="-47"/>
    </contour>
  </outline>
</glyph>
<glyph name="parenright" format="1">
  <advance width="250"/>
  <unicode hex="0029"/>
  <outline>
    <contour>
      <point x="-65" y="-149" type="line"/>
      <point x="-45" y="-149" type="line"/>
      <point x="97" y="-8"/>
      <point x="198" y="185"/>
      <point x="198" y="396" type="curve" smooth="yes"/>
      <point x="198" y="522"/>
      <point x="164" y="638"/>
      <point x="103" y="741" type="curve"/>
      <point x="83" y="741" type="line"/>
      <point x="83" y="738" type="line"/>
      <point x="124" y="640"/>
      <point x="140" y="541"/>
      <point x="140" y="421" type="curve" smooth="yes"/>
      <point x="140" y="210"/>
      <point x="60" y="17"/>
      <point x="-65" y="-146" type="curve"/>
    </contour>
  </outline>
</glyph>
<glyph name="asterisk" format="2">
  <advance width="376"/>
  <unicode hex="002A"/>
  <outline>
    <contour>
      <point x="98" y="465" type="line"/>
      <point x="100" y="445"/>
      <point x="115" y="432"/>
      <point x="140" y="430" type="curve"/>
      <point x="233" y="556" type="line"/>
      <point x="286" y="431" type="line"/>
      <point x="308" y="432"/>
      <point x="325" y="444"/>
      <point x="334" y="463" type="curve"/>
      <point x="255" y="574" type="line"/>
      <point x="407" y="600" type="line"/>
      <point x="414" y="624"/>
      <point x="412" y="645"/>
      <point x="396" y="661" type="curve"/>
      <point x="251" y="598" type="line"/>
      <point x="297" y="741" type="line"/>
      <point x="279" y="753"/>
      <point x="256" y="753"/>
      <point x="235" y="741" type="curve"/>
      <point x="229" y="598" type="line"/>
      <point x="106" y="659" type="line"/>
      <point x="86" y="644"/>
      <point x="77" y="625"/>
      <point x="76" y="603" type="curve"/>
      <point x="217" y="574" type="line"/>
    </contour>
  </outline>
</glyph>
<glyph name="plus" format="2">
  <advance width="500"/>
  <unicode hex="002B"/>
  <outline>
    <contour>
      <point x="445" y="249" type="line"/>
      <point x="453" y="295" type="line"/>
      <point x="35" y="295" type="line"/>
      <point x="27" y="249" type="line"/>
    </contour>
    <contour>
      <point x="253" y="482" type="line"/>
      <point x="179" y="62" type="line"/>
      <point x="228" y="62" type="line"/>
      <point x="302" y="482" type="line"/>
    </contour>
  </outline>
</glyph>
<glyph name="comma" format="2">
  <advance width="239"/>
  <unicode hex="002C"/>
  <outline>
    <contour>
      <point x="-43" y="-189" type="line"/>
      <point x="-27" y="-189" type="line"/>
      <point x="162" y="70" type="line"/>
      <point x="164" y="80" type="line"/>
      <point x="64" y="80" type="line"/>
    </contour>
  </outline>
</glyph>
<glyph name="hyphen" format="1">
  <advance width="350"/>
  <unicode hex="002D"/>
  <outline>
    <contour>
      <point x="40" y="229" type="line"/>
      <point x="300" y="229" type="line"/>
      <point x="310" y="285" type="line"/>
      <point x="50" y="285" type="line"/>
    </contour>
  </outline>
</glyph>
<glyph name="period" format="1">
  <advance width="239"/>
  <unicode hex="002E"/>
  <outline>
    <contour>
      <point x="83" y="-5" type="curve" smooth="yes"/>
      <point x="120" y="-5"/>
      <point x="144" y="26"/>
      <point x="144" y="60" type="curve" smooth="yes"/>
      <point x="144" y="89"/>
      <point x="129" y="110"/>
      <point x="96" y="110" type="curve" smooth="yes"/>
      <point x="60" y="110"/>
      <point x="35" y="79"/>
      <point x="35" y="45" type="curve" smooth="yes"/>
      <point x="35" y="16"/>
      <point x="50" y="-5"/>
    </contour>
  </outline>
</glyph>
<glyph name="slash" format="2">
  <advance width="284"/>
  <unicode hex="002F"/>
  <outline>
    <contour>
      <point x="-60" y="-120" type="line"/>
      <point x="-9" y="-120" type="line"/>
      <point x="344" y="750" type="line"/>
      <point x="293" y="750" type="line"/>
    </contour>
  </outline>
</glyph>
<glyph name="zero" format="2">
  <advance width="500"/>
  <unicode hex="0030"/>
  <outline>
    <contour>
      <point x="190" y="-10" type="curve" smooth="yes"/>
      <point x="338" y="-10"/>
      <point x="467" y="207"/>
      <point x="467" y="451" type="curve" smooth="yes"/>
      <point x="467" y="589"/>
      <point x="412" y="670"/>
      <point x="309" y="670" type="curve" smooth="yes"/>
      <point x="161" y="670"/>
      <point x="32" y="453"/>
      <point x="32" y="208" type="curve" smooth="yes"/>
      <point x="32" y="71"/>
      <point x="87" y="-10"/>
    </contour>
    <contour>
      <point x="204" y="34" type="curve" smooth="yes"/>
      <point x="146" y="34"/>
      <point x="118" y="92"/>
      <point x="118" y="204" type="curve" smooth="yes"/>
      <point x="118" y="433"/>
      <point x="202" y="626"/>
      <point x="295" y="626" type="curve" smooth="yes"/>
      <point x="353" y="626"/>
      <point x="381" y="568"/>
      <point x="381" y="455" type="curve" smooth="yes"/>
      <point x="381" y="227"/>
      <point x="297" y="34"/>
    </contour>
  </outline>
</glyph>
<glyph name="one" format="1">
  <advance width="500"/>
  <unicode hex="0031"/>
  <outline>
    <contour>
      <point x="82" y="0" type="line"/>
      <point x="325" y="0" type="line"/>
      <point x="328" y="16" type="line"/>
      <point x="258" y="56" type="line"/>
      <point x="365" y="660" type="line"/>
      <point x="345" y="660" type="line"/>
      <point x="106" y="510" type="line"/>
      <point x="99" y="475" type="line"/>
      <point x="267" y="560" type="line"/>
      <point x="178" y="56" type="line"/>
      <point x="86" y="16" type="line"/>
    </contour>
  </outline>
</glyph>
<glyph name="two" format="2">
  <advance width="500"/>
  <unicode hex="0032"/>
  <outline>
    <contour>
      <point x="-1" y="0" type="line"/>
      <point x="379" y="0" type="line"/>
      <point x="420" y="179" type="line"/>
      <point x="404" y="179" type="line"/>
      <point x="341" y="73" type="line"/>
      <point x="86" y="73" type="line"/>
      <point x="92" y="55" type="line"/>
      <point x="406" y="348"/>
      <point x="465" y="417"/>
      <point x="465" y="523" type="curve" smooth="yes"/>
      <point x="465" y="606"/>
      <point x="395" y="670"/>
      <point x="312" y="670" type="curve" smooth="yes"/>
      <point x="188" y="670"/>
      <point x="84" y="573"/>
      <point x="84" y="501" type="curve" smooth="yes"/>
      <point x="84" y="486"/>
      <point x="92" y="481"/>
      <point x="109" y="481" type="curve" smooth="yes"/>
      <point x="160" y="481" type="line"/>
      <point x="187" y="614" type="line"/>
      <point x="171" y="596" type="line"/>
      <point x="200" y="613"/>
      <point x="233" y="621"/>
      <point x="273" y="621" type="curve" smooth="yes"/>
      <point x="335" y="621"/>
      <point x="381" y="577"/>
      <point x="381" y="516" type="curve" smooth="yes"/>
      <point x="381" y="416"/>
      <point x="350" y="363"/>
      <point x="4" y="25" type="curve"/>
    </contour>
  </outline>
</glyph>
<glyph name="three" format="2">
  <advance width="500"/>
  <unicode hex="0033"/>
  <outline>
    <contour>
      <point x="143" y="566" type="line"/>
      <point x="176" y="605"/>
      <point x="220" y="627"/>
      <point x="275" y="627" type="curve" smooth="yes"/>
      <point x="342" y="627"/>
      <point x="370" y="585"/>
      <point x="370" y="528" type="curve" smooth="yes"/>
      <point x="370" y="443"/>
      <point x="298" y="364"/>
      <point x="183" y="364" type="curve" smooth="yes"/>
      <point x="153" y="364" type="line"/>
      <point x="144" y="320" type="line"/>
      <point x="205" y="320" type="line" smooth="yes"/>
      <point x="288" y="320"/>
      <point x="344" y="268"/>
      <point x="344" y="189" type="curve" smooth="yes"/>
      <point x="344" y="102"/>
      <point x="278" y="30"/>
      <point x="187" y="30" type="curve" smooth="yes"/>
      <point x="129" y="30"/>
      <point x="90" y="42"/>
      <point x="56" y="74" type="curve"/>
      <point x="76" y="37" type="line"/>
      <point x="94" y="142" type="line"/>
      <point x="36" y="142" type="line"/>
      <point x="17" y="142"/>
      <point x="4" y="130"/>
      <point x="4" y="100" type="curve" smooth="yes"/>
      <point x="4" y="48"/>
      <point x="57" y="-10"/>
      <point x="184" y="-10" type="curve" smooth="yes"/>
      <point x="320" y="-10"/>
      <point x="428" y="97"/>
      <point x="428" y="197" type="curve" smooth="yes"/>
      <point x="428" y="297"/>
      <point x="347" y="363"/>
      <point x="226" y="363" type="curve"/>
      <point x="215" y="348" type="line"/>
      <point x="217" y="348"/>
      <point x="219" y="348"/>
      <point x="221" y="348" type="curve" smooth="yes"/>
      <point x="352" y="348"/>
      <point x="453" y="444"/>
      <point x="453" y="526" type="curve" smooth="yes"/>
      <point x="453" y="600"/>
      <point x="392" y="670"/>
      <point x="296" y="670" type="curve" smooth="yes"/>
      <point x="169" y="670"/>
      <point x="82" y="582"/>
      <point x="82" y="524" type="curve" smooth="yes"/>
      <point x="82" y="505"/>
      <point x="93" y="502"/>
      <point x="114" y="502" type="curve" smooth="yes"/>
      <point x="161" y="502" type="line"/>
      <point x="174" y="615" type="line"/>
    </contour>
  </outline>
</glyph>
<glyph name="four" format="1">
  <advance width="500"/>
  <unicode hex="0034"/>
  <outline>
    <contour>
      <point x="219" y="0" type="line"/>
      <point x="299" y="0" type="line"/>
      <point x="416" y="660" type="line"/>
      <point x="396" y="660" type="line"/>
      <point x="-5" y="213" type="line"/>
      <point x="-8" y="193" type="line"/>
      <point x="447" y="193" type="line"/>
      <point x="457" y="253" type="line"/>
      <point x="39" y="253" type="line"/>
      <point x="57" y="217" type="line"/>
      <point x="367" y="571" type="line"/>
      <point x="320" y="571" type="line"/>
    </contour>
  </outline>
</glyph>
<glyph name="five" format="2">
  <advance width="500"/>
  <unicode hex="0035"/>
  <outline>
    <contour>
      <point x="152" y="-10" type="curve" smooth="yes"/>
      <point x="316" y="-10"/>
      <point x="425" y="111"/>
      <point x="425" y="246" type="curve" smooth="yes"/>
      <point x="425" y="348"/>
      <point x="355" y="407"/>
      <point x="262" y="407" type="curve" smooth="yes"/>
      <point x="220" y="407"/>
      <point x="174" y="395"/>
      <point x="127" y="369" type="curve"/>
      <point x="135" y="350" type="line"/>
      <point x="183" y="626" type="line"/>
      <point x="163" y="583" type="line"/>
      <point x="437" y="583" type="line"/>
      <point x="451" y="660" type="line"/>
      <point x="148" y="660" type="line"/>
      <point x="89" y="326" type="line"/>
      <point x="131" y="337"/>
      <point x="167" y="343"/>
      <point x="199" y="343" type="curve" smooth="yes"/>
      <point x="307" y="343"/>
      <point x="356" y="282"/>
      <point x="356" y="214" type="curve" smooth="yes"/>
      <point x="356" y="115"/>
      <point x="284" y="31"/>
      <point x="148" y="31" type="curve" smooth="yes"/>
      <point x="138" y="31"/>
      <point x="128" y="31"/>
      <point x="117" y="32" type="curve"/>
      <point x="149" y="11" type="line"/>
      <point x="85" y="112" type="line"/>
      <point x="36" y="79" type="line" smooth="yes"/>
      <point x="27" y="73"/>
      <point x="22" y="64"/>
      <point x="22" y="55" type="curve" smooth="yes"/>
      <point x="22" y="26"/>
      <point x="66" y="-10"/>
    </contour>
  </outline>
</glyph>
<glyph name="six" format="1">
  <advance width="500"/>
  <unicode hex="0036"/>
  <outline>
    <contour>
      <point x="208" y="-10" type="curve" smooth="yes"/>
      <point x="319" y="-10"/>
      <point x="442" y="85"/>
      <point x="442" y="231" type="curve" smooth="yes"/>
      <point x="442" y="323"/>
      <point x="394" y="388"/>
      <point x="298" y="388" type="curve" smooth="yes"/>
      <point x="207" y="388"/>
      <point x="132" y="321"/>
      <point x="93" y="231" type="curve"/>
      <point x="97" y="197" type="line"/>
      <point x="122" y="273"/>
      <point x="199" y="326"/>
      <point x="271" y="326" type="curve" smooth="yes"/>
      <point x="333" y="326"/>
      <point x="364" y="287"/>
      <point x="364" y="207" type="curve" smooth="yes"/>
      <point x="364" y="101"/>
      <point x="297" y="31"/>
      <point x="218" y="31" type="curve" smooth="yes"/>
      <point x="157" y="31"/>
      <point x="115" y="76"/>
      <point x="115" y="181" type="curve" smooth="yes"/>
      <point x="115" y="371"/>
      <point x="218" y="562"/>
      <point x="469" y="644" type="curve"/>
      <point x="475" y="670" type="line"/>
      <point x="179" y="587"/>
      <point x="31" y="382"/>
      <point x="31" y="187" type="curve" smooth="yes"/>
      <point x="31" y="74"/>
      <point x="87" y="-10"/>
    </contour>
  </outline>
</glyph>
<glyph name="seven" format="1">
  <advance width="500"/>
  <unicode hex="0037"/>
  <outline>
    <contour>
      <point x="55" y="0" type="curve"/>
      <point x="156" y="0" type="line"/>
      <point x="268" y="319"/>
      <point x="383" y="464"/>
      <point x="505" y="640" type="curve"/>
      <point x="508" y="660" type="line"/>
      <point x="99" y="660" type="line"/>
      <point x="85" y="590" type="line"/>
      <point x="453" y="590" type="line"/>
      <point x="452" y="626" type="line"/>
      <point x="176" y="241"/>
      <point x="154" y="170"/>
    </contour>
  </outline>
</glyph>
<glyph name="eight" format="1">
  <advance width="500"/>
  <unicode hex="0038"/>
  <outline>
    <contour>
      <point x="202" y="-10" type="curve" smooth="yes"/>
      <point x="327" y="-10"/>
      <point x="424" y="78"/>
      <point x="424" y="171" type="curve" smooth="yes"/>
      <point x="424" y="240"/>
      <point x="398" y="294"/>
      <point x="280" y="370" type="curve" smooth="yes"/>
      <point x="196" y="425"/>
      <point x="178" y="468"/>
      <point x="178" y="518" type="curve" smooth="yes"/>
      <point x="178" y="580"/>
      <point x="214" y="628"/>
      <point x="287" y="628" type="curve" smooth="yes"/>
      <point x="352" y="628"/>
      <point x="388" y="590"/>
      <point x="388" y="518" type="curve" smooth="yes"/>
      <point x="388" y="448"/>
      <point x="355" y="414"/>
      <point x="258" y="363" type="curve"/>
      <point x="273" y="333" type="line"/>
      <point x="416" y="402"/>
      <point x="467" y="459"/>
      <point x="467" y="525" type="curve" smooth="yes"/>
      <point x="467" y="605"/>
      <point x="400" y="670"/>
      <point x="306" y="670" type="curve" smooth="yes"/>
      <point x="194" y="670"/>
      <point x="97" y="586"/>
      <point x="97" y="487" type="curve" smooth="yes"/>
      <point x="97" y="422"/>
      <point x="128" y="381"/>
      <point x="220" y="319" type="curve" smooth="yes"/>
      <point x="303" y="264"/>
      <point x="348" y="228"/>
      <point x="348" y="157" type="curve" smooth="yes"/>
      <point x="348" y="83"/>
      <point x="300" y="31"/>
      <point x="217" y="31" type="curve" smooth="yes"/>
      <point x="141" y="31"/>
      <point x="98" y="73"/>
      <point x="98" y="149" type="curve" smooth="yes"/>
      <point x="98" y="217"/>
      <point x="120" y="250"/>
      <point x="226" y="319" type="curve"/>
      <point x="206" y="342" type="line"/>
      <point x="83" y="279"/>
      <point x="17" y="216"/>
      <point x="17" y="133" type="curve" smooth="yes"/>
      <point x="17" y="46"/>
      <point x="101" y="-10"/>
    </contour>
  </outline>
</glyph>
<glyph name="nine" format="2">
  <advance width="500"/>
  <unicode hex="0039"/>
  <outline>
    <contour>
      <point x="31" y="-10" type="line"/>
      <point x="327" y="73"/>
      <point x="475" y="278"/>
      <point x="475" y="473" type="curve" smooth="yes"/>
      <point x="475" y="586"/>
      <point x="419" y="670"/>
      <point x="298" y="670" type="curve" smooth="yes"/>
      <point x="187" y="670"/>
      <point x="64" y="575"/>
      <point x="64" y="429" type="curve" smooth="yes"/>
      <point x="64" y="337"/>
      <point x="112" y="272"/>
      <point x="208" y="272" type="curve" smooth="yes"/>
      <point x="299" y="272"/>
      <point x="374" y="339"/>
      <point x="413" y="429" type="curve"/>
      <point x="409" y="463" type="line"/>
      <point x="384" y="387"/>
      <point x="307" y="334"/>
      <point x="235" y="334" type="curve" smooth="yes"/>
      <point x="173" y="334"/>
      <point x="142" y="373"/>
      <point x="142" y="453" type="curve" smooth="yes"/>
      <point x="142" y="559"/>
      <point x="209" y="629"/>
      <point x="288" y="629" type="curve" smooth="yes"/>
      <point x="349" y="629"/>
      <point x="391" y="584"/>
      <point x="391" y="479" type="curve" smooth="yes"/>
      <point x="391" y="289"/>
      <point x="288" y="98"/>
      <point x="37" y="16" type="curve"/>
    </contour>
  </outline>
</glyph>
<glyph name="less" format="2">
  <advance width="500"/>
  <unicode hex="003C"/>
  <outline>
    <contour>
      <point x="417" y="62" type="line"/>
      <point x="425" y="109" type="line"/>
      <point x="65" y="281" type="line"/>
      <point x="61" y="258" type="line"/>
      <point x="481" y="430" type="line"/>
      <point x="490" y="482" type="line"/>
      <point x="38" y="297" type="line"/>
      <point x="30" y="247" type="line"/>
    </contour>
  </outline>
</glyph>
<glyph name="equal" format="1">
  <advance width="500"/>
  <unicode hex="003D"/>
  <outline>
    <contour>
      <point x="432" y="147" type="line"/>
      <point x="440" y="193" type="line"/>
      <point x="22" y="193" type="line"/>
      <point x="14" y="147" type="line"/>
    </contour>
    <contour>
      <point x="468" y="351" type="line"/>
      <point x="476" y="397" type="line"/>
      <point x="58" y="397" type="line"/>
      <point x="50" y="351" type="line"/>
    </contour>
  </outline>
</glyph>
<glyph name="greater" format="1">
  <advance width="500"/>
  <unicode hex="003E"/>
  <outline>
    <contour>
      <point x="63" y="482" type="line"/>
      <point x="55" y="435" type="line"/>
      <point x="415" y="263" type="line"/>
      <point x="419" y="286" type="line"/>
      <point x="-1" y="114" type="line"/>
      <point x="-10" y="62" type="line"/>
      <point x="442" y="247" type="line"/>
      <point x="450" y="297" type="line"/>
    </contour>
  </outline>
</glyph>
<glyph name="question" format="2">
  <advance width="404"/>
  <unicode hex="003F"/>
  <outline>
    <contour>
      <point x="175" y="191" type="curve"/>
      <point x="188" y="203" type="line"/>
      <point x="170" y="223"/>
      <point x="160" y="243"/>
      <point x="160" y="270" type="curve" smooth="yes"/>
      <point x="160" y="311"/>
      <point x="180" y="339"/>
      <point x="260" y="366" type="curve" smooth="yes"/>
      <point x="340" y="393"/>
      <point x="374" y="426"/>
      <point x="374" y="490" type="curve" smooth="yes"/>
      <point x="374" y="582"/>
      <point x="254" y="669"/>
      <point x="171" y="669" type="curve" smooth="yes"/>
      <point x="125" y="669"/>
      <point x="99" y="651"/>
      <point x="99" y="628" type="curve" smooth="yes"/>
      <point x="99" y="622"/>
      <point x="100" y="618"/>
      <point x="103" y="610" type="curve" smooth="yes"/>
      <point x="118" y="571" type="line"/>
      <point x="256" y="611" type="line"/>
      <point x="215" y="621" type="line"/>
      <point x="288" y="597"/>
      <point x="324" y="555"/>
      <point x="324" y="516" type="curve" smooth="yes"/>
      <point x="324" y="480"/>
      <point x="305" y="458"/>
      <point x="222" y="432" type="curve" smooth="yes"/>
      <point x="139" y="406"/>
      <point x="110" y="370"/>
      <point x="110" y="314" type="curve" smooth="yes"/>
      <point x="110" y="273"/>
      <point x="129" y="233"/>
    </contour>
    <contour>
      <point x="128" y="-5" type="curve" smooth="yes"/>
      <point x="165" y="-5"/>
      <point x="189" y="26"/>
      <point x="189" y="60" type="curve" smooth="yes"/>
      <point x="189" y="89"/>
      <point x="174" y="110"/>
      <point x="141" y="110" type="curve" smooth="yes"/>
      <point x="105" y="110"/>
      <point x="80" y="79"/>
      <point x="80" y="45" type="curve" smooth="yes"/>
      <point x="80" y="16"/>
      <point x="95" y="-5"/>
    </contour>
  </outline>
</glyph>
<glyph name="at" format="1">
  <advance width="793"/>
  <unicode hex="0040"/>
  <outline>
    <contour>
      <point x="365" y="-118" type="curve" smooth="yes"/>
      <point x="464" y="-118"/>
      <point x="539" y="-92"/>
      <point x="609" y="-48" type="curve"/>
      <point x="600" y="-27" type="line"/>
      <point x="541" y="-69"/>
      <point x="479" y="-91"/>
      <point x="392" y="-91" type="curve" smooth="yes"/>
      <point x="231" y="-91"/>
      <point x="119" y="11"/>
      <point x="119" y="186" type="curve" smooth="yes"/>
      <point x="119" y="380"/>
      <point x="242" y="536"/>
      <point x="431" y="536" type="curve" smooth="yes"/>
      <point x="589" y="536"/>
      <point x="692" y="424"/>
      <point x="692" y="281" type="curve" smooth="yes"/>
      <point x="692" y="163"/>
      <point x="621" y="59"/>
      <point x="549" y="59" type="curve" smooth="yes"/>
      <point x="516" y="59"/>
      <point x="514" y="77"/>
      <point x="524" y="133" type="curve" smooth="yes"/>
      <point x="577" y="429" type="line"/>
      <point x="552" y="429" type="line"/>
      <point x="507" y="400" type="line"/>
      <point x="545" y="391" type="line"/>
      <point x="527" y="412"/>
      <point x="487" y="429"/>
      <point x="444" y="429" type="curve" smooth="yes"/>
      <point x="327" y="429"/>
      <point x="224" y="284"/>
      <point x="224" y="141" type="curve" smooth="yes"/>
      <point x="224" y="61"/>
      <point x="259" y="21"/>
      <point x="305" y="21" type="curve" smooth="yes"/>
      <point x="365" y="21"/>
      <point x="420" y="74"/>
      <point x="467" y="157" type="curve"/>
      <point x="480" y="203" type="line"/>
      <point x="451" y="151"/>
      <point x="397" y="79"/>
      <point x="346" y="79" type="curve" smooth="yes"/>
      <point x="305" y="79"/>
      <point x="294" y="110"/>
      <point x="294" y="175" type="curve" smooth="yes"/>
      <point x="294" y="286"/>
      <point x="344" y="395"/>
      <point x="419" y="395" type="curve" smooth="yes"/>
      <point x="454" y="395"/>
      <point x="474" y="376"/>
      <point x="498" y="343" type="curve"/>
      <point x="496" y="367" type="line"/>
      <point x="450" y="107" type="line" smooth="yes"/>
      <point x="441" y="54"/>
      <point x="457" y="21"/>
      <point x="516" y="21" type="curve" smooth="yes"/>
      <point x="651" y="21"/>
      <point x="733" y="156"/>
      <point x="733" y="284" type="curve" smooth="yes"/>
      <point x="733" y="445"/>
      <point x="625" y="562"/>
      <point x="453" y="562" type="curve" smooth="yes"/>
      <point x="235" y="562"/>
      <point x="60" y="381"/>
      <point x="60" y="167" type="curve" smooth="yes"/>
      <point x="60" y="-5"/>
      <point x="184" y="-118"/>
    </contour>
  </outline>
</glyph>
<glyph name="A" format="2">
  <advance width="715"/>
  <unicode hex="0041"/>
  <anchor x="430" y="710" name="top"/>
  <anchor x="536" y="0" name="right"/>
  <anchor x="284" y="0" name="bottom"/>
  <outline>
    <contour>
      <point x="-15" y="0" type="line"/>
      <point x="185" y="0" type="line"/>
      <point x="188" y="16" type="line"/>
      <point x="102" y="50" type="line"/>
      <point x="96" y="28" type="line"/>
      <point x="416" y="599" type="line"/>
      <point x="379" y="599" type="line"/>
      <point x="493" y="28" type="line"/>
      <point x="508" y="58" type="line"/>
      <point x="397" y="16" type="line"/>
      <point x="394" y="0" type="line"/>
      <point x="631" y="0" type="line"/>
      <point x="635" y="16" type="line"/>
      <point x="539" y="74" type="line"/>
      <point x="580" y="28" type="line"/>
      <point x="444" y="665" type="line"/>
      <point x="401" y="665" type="line"/>
      <point x="37" y="28" type="line"/>
      <point x="85" y="67" type="line"/>
      <point x="-11" y="16" type="line"/>
    </contour>
    <contour>
      <point x="183" y="238" type="line"/>
      <point x="487" y="238" type="line"/>
      <point x="497" y="288" type="line"/>
      <point x="193" y="288" type="line"/>
    </contour>
  </outline>
</glyph>
<glyph name="B" format="1">
  <advance width="626"/>
  <unicode hex="0042"/>
  <outline>
    <contour>
      <point x="10" y="0" type="line"/>
      <point x="171" y="0" type="line"/>
      <point x="287" y="660" type="line"/>
      <point x="126" y="660" type="line"/>
      <point x="123" y="644" type="line"/>
      <point x="192" y="604" type="line"/>
      <point x="96" y="56" type="line"/>
      <point x="13" y="16" type="line"/>
    </contour>
    <contour>
      <point x="279" y="0" type="line" smooth="yes"/>
      <point x="469" y="0"/>
      <point x="566" y="103"/>
      <point x="566" y="200" type="curve" smooth="yes"/>
      <point x="566" y="298"/>
      <point x="489" y="358"/>
      <point x="334" y="358" type="curve"/>
      <point x="330" y="343" type="line"/>
      <point x="476" y="343"/>
      <point x="561" y="432"/>
      <point x="561" y="520" type="curve" smooth="yes"/>
      <point x="561" y="614"/>
      <point x="476" y="660"/>
      <point x="342" y="660" type="curve" smooth="yes"/>
      <point x="237" y="660" type="line"/>
      <point x="228" y="610" type="line"/>
      <point x="339" y="610" type="line" smooth="yes"/>
      <point x="431" y="610"/>
      <point x="468" y="573"/>
      <point x="468" y="503" type="curve" smooth="yes"/>
      <point x="468" y="424"/>
      <point x="413" y="365"/>
      <point x="299" y="365" type="curve" smooth="yes"/>
      <point x="193" y="365" type="line"/>
      <point x="184" y="315" type="line"/>
      <point x="314" y="315" type="line" smooth="yes"/>
      <point x="424" y="315"/>
      <point x="472" y="280"/>
      <point x="472" y="200" type="curve" smooth="yes"/>
      <point x="472" y="109"/>
      <point x="412" y="50"/>
      <point x="288" y="50" type="curve" smooth="yes"/>
      <point x="157" y="50" type="line"/>
      <point x="148" y="0" type="line"/>
    </contour>
  </outline>
</glyph>
<glyph name="C" format="2">
  <advance width="669"/>
  <unicode hex="0043"/>
  <anchor x="456" y="710" name="top"/>
  <anchor x="326" y="0" name="bottom"/>
  <outline>
    <contour>
      <point x="320" y="-10" type="curve" smooth="yes"/>
      <point x="430" y="-10"/>
      <point x="488" y="9"/>
      <point x="551" y="39" type="curve"/>
      <point x="589" y="198" type="line"/>
      <point x="573" y="198" type="line"/>
      <point x="493" y="89" type="line"/>
      <point x="454" y="64"/>
      <point x="405" y="36"/>
      <point x="347" y="36" type="curve" smooth="yes"/>
      <point x="233" y="36"/>
      <point x="153" y="128"/>
      <point x="153" y="286" type="curve" smooth="yes"/>
      <point x="153" y="466"/>
      <point x="252" y="624"/>
      <point x="433" y="624" type="curve" smooth="yes"/>
      <point x="484" y="624"/>
      <point x="514" y="606"/>
      <point x="547" y="571" type="curve"/>
      <point x="587" y="447" type="line"/>
      <point x="603" y="447" type="line"/>
      <point x="629" y="622" type="line"/>
      <point x="565" y="657"/>
      <point x="521" y="670"/>
      <point x="445" y="670" type="curve" smooth="yes"/>
      <point x="240" y="670"/>
      <point x="60" y="487"/>
      <point x="60" y="259" type="curve" smooth="yes"/>
      <point x="60" y="101"/>
      <point x="154" y="-10"/>
    </contour>
  </outline>
</glyph>
<glyph name="D" format="1">
  <advance width="732"/>
  <unicode hex="0044"/>
  <outline>
    <contour>
      <point x="10" y="0" type="line"/>
      <point x="171" y="0" type="line"/>
      <point x="288" y="660" type="line"/>
      <point x="126" y="660" type="line"/>
      <point x="123" y="644" type="line"/>
      <point x="192" y="604" type="line"/>
      <point x="96" y="56" type="line"/>
      <point x="13" y="16" type="line"/>
    </contour>
    <contour>
      <point x="282" y="0" type="line" smooth="yes"/>
      <point x="564" y="0"/>
      <point x="682" y="230"/>
      <point x="682" y="392" type="curve" smooth="yes"/>
      <point x="682" y="548"/>
      <point x="585" y="660"/>
      <point x="347" y="660" type="curve" smooth="yes"/>
      <point x="237" y="660" type="line"/>
      <point x="228" y="610" type="line"/>
      <point x="333" y="610" type="line" smooth="yes"/>
      <point x="511" y="610"/>
      <point x="589" y="521"/>
      <point x="589" y="380" type="curve" smooth="yes"/>
      <point x="589" y="180"/>
      <point x="488" y="50"/>
      <point x="290" y="50" type="curve" smooth="yes"/>
      <point x="157" y="50" type="line"/>
      <point x="148" y="0" type="line"/>
    </contour>
    <contour>
      <point x="402" y="710" type="move" name="top"/>
    </contour>
    <contour>
      <point x="313" y="0" type="move" name="bottom"/>
    </contour>
  </outline>
</glyph>
<glyph name="E" format="1">
  <advance width="621"/>
  <unicode hex="0045"/>
  <outline>
    <contour>
      <point x="10" y="0" type="line"/>
      <point x="171" y="0" type="line"/>
      <point x="288" y="660" type="line"/>
      <point x="126" y="660" type="line"/>
      <point x="123" y="644" type="line"/>
      <point x="192" y="604" type="line"/>
      <point x="96" y="56" type="line"/>
      <point x="13" y="16" type="line"/>
    </contour>
    <contour>
      <point x="539" y="488" type="line"/>
      <point x="555" y="488" type="line"/>
      <point x="586" y="660" type="line"/>
      <point x="237" y="660" type="line"/>
      <point x="228" y="610" type="line"/>
      <point x="502" y="610" type="line"/>
    </contour>
    <contour>
      <point x="420" y="232" type="line"/>
      <point x="436" y="232" type="line"/>
      <point x="475" y="451" type="line"/>
      <point x="459" y="451" type="line"/>
      <point x="397" y="366" type="line"/>
      <point x="193" y="366" type="line"/>
      <point x="184" y="316" type="line"/>
      <point x="389" y="316" type="line"/>
    </contour>
    <contour>
      <point x="511" y="0" type="line"/>
      <point x="543" y="182" type="line"/>
      <point x="527" y="182" type="line"/>
      <point x="447" y="50" type="line"/>
      <point x="157" y="50" type="line"/>
      <point x="148" y="0" type="line"/>
    </contour>
    <contour>
      <point x="399" y="710" type="move" name="top"/>
    </contour>
    <contour>
      <point x="444" y="0" type="move" name="right"/>
    </contour>
    <contour>
      <point x="289" y="0" type="move" name="bottom"/>
    </contour>
  </outline>
</glyph>
<glyph name="F" format="2">
  <advance width="603"/>
  <unicode hex="0046"/>
  <outline>
    <contour>
      <point x="10" y="0" type="line"/>
      <point x="267" y="0" type="line"/>
      <point x="270" y="16" type="line"/>
      <point x="181" y="56" type="line"/>
      <point x="288" y="660" type="line"/>
      <point x="126" y="660" type="line"/>
      <point x="123" y="644" type="line"/>
      <point x="192" y="604" type="line"/>
      <point x="96" y="56" type="line"/>
      <point x="13" y="16" type="line"/>
    </contour>
    <contour>
      <point x="535" y="488" type="line"/>
      <point x="551" y="488" type="line"/>
      <point x="581" y="660" type="line"/>
      <point x="228" y="660" type="line"/>
      <point x="218" y="610" type="line"/>
      <point x="497" y="610" type="line"/>
    </contour>
    <contour>
      <point x="410" y="232" type="line"/>
      <point x="426" y="232" type="line"/>
      <point x="465" y="451" type="line"/>
      <point x="449" y="451" type="line"/>
      <point x="387" y="366" type="line"/>
      <point x="183" y="366" type="line"/>
      <point x="174" y="316" type="line"/>
      <point x="379" y="316" type="line"/>
    </contour>
  </outline>
</glyph>
<glyph name="G" format="1">
  <advance width="739"/>
  <unicode hex="0047"/>
  <outline>
    <contour>
      <point x="320" y="-10" type="curve"/>
      <point x="402" y="-10"/>
      <point x="502" y="23"/>
      <point x="569" y="74" type="curve"/>
      <point x="596" y="231" type="line"/>
      <point x="669" y="274" type="line"/>
      <point x="672" y="290" type="line"/>
      <point x="437" y="290" type="line"/>
      <point x="433" y="274" type="line"/>
      <point x="511" y="234" type="line"/>
      <point x="481" y="61" type="line"/>
      <point x="512" y="82" type="line"/>
      <point x="454" y="53"/>
      <point x="407" y="45"/>
      <point x="357" y="45" type="curve" smooth="yes"/>
      <point x="237" y="45"/>
      <point x="152" y="132"/>
      <point x="152" y="285" type="curve" smooth="yes"/>
      <point x="152" y="466"/>
      <point x="255" y="624"/>
      <point x="443" y="624" type="curve" smooth="yes"/>
      <point x="502" y="624"/>
      <point x="539" y="609"/>
      <point x="575" y="571" type="curve"/>
      <point x="615" y="457" type="line"/>
      <point x="631" y="457" type="line"/>
      <point x="657" y="622" type="line"/>
      <point x="588" y="660"/>
      <point x="538" y="671"/>
      <point x="455" y="671" type="curve" smooth="yes"/>
      <point x="245" y="671"/>
      <point x="60" y="487"/>
      <point x="60" y="259" type="curve" smooth="yes"/>
      <point x="60" y="101"/>
      <point x="154" y="-10"/>
    </contour>
    <contour>
      <point x="463" y="710" type="move" name="top"/>
    </contour>
    <contour>
      <point x="332" y="0" type="move" name="bottom"/>
    </contour>
  </outline>
</glyph>
<glyph name="H" format="1">
  <advance width="774"/>
  <unicode hex="0048"/>
  <outline>
    <contour>
      <point x="10" y="0" type="line"/>
      <point x="248" y="0" type="line"/>
      <point x="251" y="16" type="line"/>
      <point x="174" y="56" type="line"/>
      <point x="271" y="604" type="line"/>
      <point x="352" y="644" type="line"/>
      <point x="355" y="660" type="line"/>
      <point x="117" y="660" type="line"/>
      <point x="114" y="644" type="line"/>
      <point x="186" y="604" type="line"/>
      <point x="89" y="56" type="line"/>
      <point x="13" y="16" type="line"/>
    </contour>
    <contour>
      <point x="185" y="315" type="line"/>
      <point x="615" y="315" type="line"/>
      <point x="615" y="365" type="line"/>
      <point x="185" y="365" type="line"/>
    </contour>
    <contour>
      <point x="419" y="0" type="line"/>
      <point x="657" y="0" type="line"/>
      <point x="660" y="16" type="line"/>
      <point x="583" y="56" type="line"/>
      <point x="680" y="604" type="line"/>
      <point x="761" y="644" type="line"/>
      <point x="764" y="660" type="line"/>
      <point x="526" y="660" type="line"/>
      <point x="523" y="644" type="line"/>
      <point x="595" y="604" type="line"/>
      <point x="498" y="56" type="line"/>
      <point x="422" y="16" type="line"/>
    </contour>
    <contour>
      <point x="456" y="710" type="move" name="top"/>
    </contour>
    <contour>
      <point x="332" y="0" type="move" name="bottom"/>
    </contour>
  </outline>
</glyph>
<glyph name="I" format="2">
  <advance width="365"/>
  <unicode hex="0049"/>
  <anchor x="246" y="710" name="top"/>
  <anchor x="145" y="0" name="right"/>
  <anchor x="121" y="0" name="bottom"/>
  <outline>
    <contour>
      <point x="10" y="0" type="line"/>
      <point x="248" y="0" type="line"/>
      <point x="251" y="16" type="line"/>
      <point x="174" y="56" type="line"/>
      <point x="271" y="604" type="line"/>
      <point x="352" y="644" type="line"/>
      <point x="355" y="660" type="line"/>
      <point x="117" y="660" type="line"/>
      <point x="114" y="644" type="line"/>
      <point x="186" y="604" type="line"/>
      <point x="89" y="56" type="line"/>
      <point x="13" y="16" type="line"/>
    </contour>
  </outline>
</glyph>
<glyph name="J" format="2">
  <advance width="375"/>
  <unicode hex="004A"/>
  <anchor x="261" y="710" name="top"/>
  <outline>
    <contour>
      <point x="-24" y="-174" type="curve" smooth="yes"/>
      <point x="-1" y="-174"/>
      <point x="23" y="-164"/>
      <point x="86" y="-101" type="curve" smooth="yes"/>
      <point x="151" y="-36"/>
      <point x="194" y="90"/>
      <point x="220" y="240" type="curve" smooth="yes"/>
      <point x="285" y="604" type="line"/>
      <point x="367" y="644" type="line"/>
      <point x="370" y="660" type="line"/>
      <point x="133" y="660" type="line"/>
      <point x="130" y="644" type="line"/>
      <point x="199" y="604" type="line"/>
      <point x="101" y="51" type="line" smooth="yes"/>
      <point x="82" y="-54"/>
      <point x="65" y="-90"/>
      <point x="17" y="-119" type="curve"/>
      <point x="46" y="-117" type="line"/>
      <point x="-44" y="-96" type="line"/>
      <point x="-58" y="-137" type="line" smooth="yes"/>
      <point x="-59" y="-140"/>
      <point x="-60" y="-144"/>
      <point x="-60" y="-147" type="curve" smooth="yes"/>
      <point x="-60" y="-162"/>
      <point x="-46" y="-174"/>
    </contour>
  </outline>
</glyph>
<glyph name="K" format="1">
  <advance width="700"/>
  <unicode hex="004B"/>
  <outline>
    <contour>
      <point x="10" y="0" type="line"/>
      <point x="247" y="0" type="line"/>
      <point x="251" y="16" type="line"/>
      <point x="181" y="56" type="line"/>
      <point x="278" y="604" type="line"/>
      <point x="360" y="644" type="line"/>
      <point x="364" y="660" type="line"/>
      <point x="126" y="660" type="line"/>
      <point x="123" y="644" type="line"/>
      <point x="192" y="604" type="line"/>
      <point x="96" y="56" type="line"/>
      <point x="13" y="16" type="line"/>
    </contour>
    <contour>
      <point x="480" y="0" type="line"/>
      <point x="610" y="0" type="line"/>
      <point x="613" y="16" type="line"/>
      <point x="552" y="52" type="line"/>
      <point x="301" y="381" type="line"/>
      <point x="295" y="338" type="line"/>
      <point x="632" y="632" type="line"/>
      <point x="592" y="610" type="line"/>
      <point x="680" y="644" type="line"/>
      <point x="684" y="660" type="line"/>
      <point x="484" y="660" type="line"/>
      <point x="481" y="644" type="line"/>
      <point x="567" y="597" type="line"/>
      <point x="568" y="632" type="line"/>
      <point x="232" y="338" type="line"/>
    </contour>
    <contour>
      <point x="430" y="710" type="move" name="top"/>
    </contour>
    <contour>
      <point x="320" y="0" type="move" name="bottom"/>
    </contour>
  </outline>
</glyph>
<glyph name="L" format="2">
  <advance width="598"/>
  <unicode hex="004C"/>
  <anchor x="254" y="710" name="top"/>
  <anchor x="499" y="660" name="right"/>
  <anchor x="263" y="0" name="bottom"/>
  <anchor x="490" y="347" name="mid"/>
  <outline>
    <contour>
      <point x="10" y="0" type="line"/>
      <point x="482" y="0" type="line"/>
      <point x="521" y="222" type="line"/>
      <point x="505" y="222" type="line"/>
      <point x="412" y="50" type="line"/>
      <point x="181" y="50" type="line"/>
      <point x="278" y="604" type="line"/>
      <point x="370" y="644" type="line"/>
      <point x="373" y="660" type="line"/>
      <point x="126" y="660" type="line"/>
      <point x="123" y="644" type="line"/>
      <point x="192" y="604" type="line"/>
      <point x="96" y="56" type="line"/>
      <point x="13" y="16" type="line"/>
    </contour>
  </outline>
</glyph>
<glyph name="M" format="1">
  <advance width="922"/>
  <unicode hex="004D"/>
  <outline>
    <contour>
      <point x="10" y="0" type="line"/>
      <point x="221" y="0" type="line"/>
      <point x="224" y="16" type="line"/>
      <point x="154" y="55" type="line"/>
      <point x="273" y="630" type="line"/>
      <point x="219" y="630" type="line"/>
      <point x="95" y="56" type="line"/>
      <point x="13" y="16" type="line"/>
    </contour>
    <contour>
      <point x="387" y="-5" type="line"/>
      <point x="429" y="-5" type="line"/>
      <point x="764" y="595" type="line"/>
      <point x="802" y="595" type="line"/>
      <point x="908" y="644" type="line"/>
      <point x="912" y="660" type="line"/>
      <point x="744" y="660" type="line"/>
      <point x="416" y="71" type="line"/>
      <point x="456" y="71" type="line"/>
      <point x="312" y="660" type="line"/>
      <point x="134" y="660" type="line"/>
      <point x="130" y="644" type="line"/>
      <point x="230" y="595" type="line"/>
      <point x="243" y="595" type="line"/>
    </contour>
    <contour>
      <point x="596" y="0" type="line"/>
      <point x="817" y="0" type="line"/>
      <point x="820" y="16" type="line"/>
      <point x="760" y="56" type="line"/>
      <point x="827" y="630" type="line"/>
      <point x="746" y="630" type="line"/>
      <point x="676" y="55" type="line"/>
      <point x="599" y="16" type="line"/>
    </contour>
    <contour>
      <point x="409" y="0" type="move" name="bottom"/>
    </contour>
  </outline>
</glyph>
<glyph name="N" format="1">
  <advance width="776"/>
  <unicode hex="004E"/>
  <outline>
    <contour>
      <point x="10" y="0" type="line"/>
      <point x="247" y="0" type="line"/>
      <point x="251" y="16" type="line"/>
      <point x="159" y="55" type="line"/>
      <point x="248" y="561" type="line"/>
      <point x="221" y="561" type="line"/>
      <point x="540" y="-5" type="line"/>
      <point x="577" y="-5" type="line"/>
      <point x="684" y="605" type="line"/>
      <point x="768" y="644" type="line"/>
      <point x="771" y="660" type="line"/>
      <point x="535" y="660" type="line"/>
      <point x="531" y="644" type="line"/>
      <point x="623" y="606" type="line"/>
      <point x="533" y="95" type="line"/>
      <point x="582" y="95" type="line"/>
      <point x="267" y="660" type="line"/>
      <point x="127" y="660" type="line"/>
      <point x="124" y="644" type="line"/>
      <point x="194" y="602" type="line"/>
      <point x="98" y="56" type="line"/>
      <point x="13" y="16" type="line"/>
    </contour>
    <contour>
      <point x="475" y="710" type="move" name="top"/>
    </contour>
    <contour>
      <point x="353" y="0" type="move" name="bottom"/>
    </contour>
  </outline>
</glyph>
<glyph name="O" format="2">
  <advance width="766"/>
  <unicode hex="004F"/>
  <anchor x="450" y="710" name="top"/>
  <anchor x="360" y="0" name="right"/>
  <anchor x="326" y="0" name="bottom"/>
  <outline>
    <contour>
      <point x="332" y="-10" type="curve" smooth="yes"/>
      <point x="551" y="-10"/>
      <point x="706" y="182"/>
      <point x="706" y="378" type="curve" smooth="yes"/>
      <point x="706" y="551"/>
      <point x="598" y="671"/>
      <point x="433" y="671" type="curve" smooth="yes"/>
      <point x="219" y="671"/>
      <point x="60" y="483"/>
      <point x="60" y="282" type="curve" smooth="yes"/>
      <point x="60" y="109"/>
      <point x="168" y="-10"/>
    </contour>
    <contour>
      <point x="364" y="38" type="curve" smooth="yes"/>
      <point x="237" y="38"/>
      <point x="151" y="142"/>
      <point x="151" y="292" type="curve" smooth="yes"/>
      <point x="151" y="478"/>
      <point x="257" y="625"/>
      <point x="406" y="625" type="curve" smooth="yes"/>
      <point x="531" y="625"/>
      <point x="616" y="521"/>
      <point x="616" y="370" type="curve" smooth="yes"/>
      <point x="616" y="190"/>
      <point x="512" y="38"/>
    </contour>
  </outline>
</glyph>
<glyph name="P" format="1">
  <advance width="621"/>
  <unicode hex="0050"/>
  <outline>
    <contour>
      <point x="10" y="0" type="line"/>
      <point x="257" y="0" type="line"/>
      <point x="260" y="16" type="line"/>
      <point x="181" y="56" type="line"/>
      <point x="279" y="610" type="line"/>
      <point x="340" y="610" type="line" smooth="yes"/>
      <point x="440" y="610"/>
      <point x="497" y="574"/>
      <point x="497" y="490" type="curve" smooth="yes"/>
      <point x="497" y="404"/>
      <point x="442" y="343"/>
      <point x="326" y="343" type="curve" smooth="yes"/>
      <point x="209" y="343" type="line"/>
      <point x="199" y="293" type="line"/>
      <point x="303" y="293" type="line" smooth="yes"/>
      <point x="482" y="293"/>
      <point x="591" y="392"/>
      <point x="591" y="497" type="curve" smooth="yes"/>
      <point x="591" y="610"/>
      <point x="493" y="660"/>
      <point x="345" y="660" type="curve" smooth="yes"/>
      <point x="126" y="660" type="line"/>
      <point x="123" y="644" type="line"/>
      <point x="192" y="604" type="line"/>
      <point x="96" y="56" type="line"/>
      <point x="13" y="16" type="line"/>
    </contour>
  </outline>
</glyph>
<glyph name="R" format="2">
  <advance width="624"/>
  <unicode hex="0052"/>
  <anchor x="346" y="710" name="top"/>
  <anchor x="296" y="0" name="bottom"/>
  <outline>
    <contour>
      <point x="10" y="0" type="line"/>
      <point x="243" y="0" type="line"/>
      <point x="246" y="16" type="line"/>
      <point x="181" y="57" type="line"/>
      <point x="288" y="660" type="line"/>
      <point x="126" y="660" type="line"/>
      <point x="123" y="644" type="line"/>
      <point x="192" y="604" type="line"/>
      <point x="96" y="56" type="line"/>
      <point x="13" y="16" type="line"/>
    </contour>
    <contour>
      <point x="556.0" y="508.0" type="curve" smooth="yes"/>
      <point x="556.0" y="602.0"/>
      <point x="470.0" y="660.0"/>
      <point x="330.0" y="660.0" type="curve" smooth="yes"/>
      <point x="237.0" y="660.0" type="line"/>
      <point x="228.0" y="610.0" type="line"/>
      <point x="325.0" y="610.0" type="line" smooth="yes"/>
      <point x="410.0" y="610.0"/>
      <point x="463.0" y="566.0"/>
      <point x="463.0" y="494.0" type="curve" smooth="yes"/>
      <point x="463.0" y="421.0"/>
      <point x="409.0" y="356.0"/>
      <point x="318.0" y="356.0" type="curve" smooth="yes"/>
      <point x="192.0" y="356.0" type="line"/>
      <point x="182.0" y="306.0" type="line"/>
      <point x="395" y="306" type="line"/>
      <point x="395.0" y="323.0" type="line"/>
      <point x="487.0" y="350.0"/>
      <point x="556.0" y="418.0"/>
    </contour>
    <contour>
      <point x="451" y="0" type="line"/>
      <point x="581" y="0" type="line"/>
      <point x="584" y="16" type="line"/>
      <point x="527" y="52" type="line"/>
      <point x="390" y="341" type="line"/>
      <point x="304" y="341" type="line"/>
    </contour>
  </outline>
</glyph>
<glyph name="S" format="1">
  <advance width="489"/>
  <unicode hex="0053"/>
  <outline>
    <contour>
      <point x="177" y="-10" type="curve" smooth="yes"/>
      <point x="299" y="-10"/>
      <point x="411" y="75"/>
      <point x="411" y="199" type="curve" smooth="yes"/>
      <point x="411" y="273"/>
      <point x="375" y="315"/>
      <point x="272" y="373" type="curve" smooth="yes"/>
      <point x="201" y="413"/>
      <point x="174" y="444"/>
      <point x="174" y="492" type="curve" smooth="yes"/>
      <point x="174" y="573"/>
      <point x="229" y="626"/>
      <point x="291" y="626" type="curve" smooth="yes"/>
      <point x="337" y="626"/>
      <point x="365" y="606"/>
      <point x="388" y="584" type="curve"/>
      <point x="425" y="468" type="line"/>
      <point x="441" y="468" type="line"/>
      <point x="459" y="628" type="line"/>
      <point x="413" y="655"/>
      <point x="369" y="670"/>
      <point x="310" y="670" type="curve" smooth="yes"/>
      <point x="204" y="670"/>
      <point x="98" y="584"/>
      <point x="98" y="471" type="curve" smooth="yes"/>
      <point x="98" y="405"/>
      <point x="131" y="360"/>
      <point x="206" y="318" type="curve" smooth="yes"/>
      <point x="298" y="267"/>
      <point x="328" y="235"/>
      <point x="328" y="181" type="curve" smooth="yes"/>
      <point x="328" y="93"/>
      <point x="279" y="32"/>
      <point x="185" y="32" type="curve" smooth="yes"/>
      <point x="146" y="32"/>
      <point x="110" y="47"/>
      <point x="74" y="83" type="curve"/>
      <point x="35" y="200" type="line"/>
      <point x="19" y="200" type="line"/>
      <point x="0" y="36" type="line"/>
      <point x="54" y="5"/>
      <point x="99" y="-10"/>
    </contour>
    <contour>
      <point x="318" y="710" type="move" name="top"/>
    </contour>
    <contour>
      <point x="181" y="0" type="move" name="bottom"/>
    </contour>
  </outline>
</glyph>
<glyph name="T" format="2">
  <advance width="645"/>
  <unicode hex="0054"/>
  <anchor x="396" y="710" name="top"/>
  <anchor x="270" y="0" name="bottom"/>
  <outline>
    <contour>
      <point x="133" y="0" type="line"/>
      <point x="409" y="0" type="line"/>
      <point x="412" y="16" type="line"/>
      <point x="324" y="56" type="line"/>
      <point x="423" y="610" type="line"/>
      <point x="575" y="610" type="line"/>
      <point x="613" y="458" type="line"/>
      <point x="629" y="458" type="line"/>
      <point x="665" y="660" type="line"/>
      <point x="110" y="660" type="line"/>
      <point x="75" y="458" type="line"/>
      <point x="91" y="458" type="line"/>
      <point x="182" y="610" type="line"/>
      <point x="337" y="610" type="line"/>
      <point x="238" y="56" type="line"/>
      <point x="137" y="16" type="line"/>
    </contour>
  </outline>
</glyph>
<glyph name="U" format="1">
  <advance width="783"/>
  <unicode hex="0055"/>
  <outline>
    <contour>
      <point x="342" y="-10" type="curve" smooth="yes"/>
      <point x="486" y="-10"/>
      <point x="594" y="65"/>
      <point x="627" y="256" type="curve" smooth="yes"/>
      <point x="688" y="605" type="line"/>
      <point x="770" y="644" type="line"/>
      <point x="773" y="660" type="line"/>
      <point x="537" y="660" type="line"/>
      <point x="533" y="644" type="line"/>
      <point x="622" y="606" type="line"/>
      <point x="557" y="236" type="line" smooth="yes"/>
      <point x="534" y="106"/>
      <point x="452" y="43"/>
      <point x="368" y="43" type="curve" smooth="yes"/>
      <point x="269" y="43"/>
      <point x="212" y="88"/>
      <point x="212" y="196" type="curve" smooth="yes"/>
      <point x="212" y="217"/>
      <point x="216" y="245"/>
      <point x="221" y="271" type="curve" smooth="yes"/>
      <point x="280" y="604" type="line"/>
      <point x="362" y="644" type="line"/>
      <point x="366" y="660" type="line"/>
      <point x="128" y="660" type="line"/>
      <point x="125" y="644" type="line"/>
      <point x="194" y="604" type="line"/>
      <point x="133" y="256" type="line" smooth="yes"/>
      <point x="129" y="231"/>
      <point x="126" y="208"/>
      <point x="126" y="186" type="curve" smooth="yes"/>
      <point x="126" y="50"/>
      <point x="214" y="-10"/>
    </contour>
    <contour>
      <point x="464" y="710" type="move" name="top"/>
    </contour>
    <contour>
      <point x="368" y="0" type="move" name="right"/>
    </contour>
    <contour>
      <point x="346" y="0" type="move" name="bottom"/>
    </contour>
  </outline>
</glyph>
<glyph name="V" format="1">
  <advance width="700"/>
  <unicode hex="0056"/>
  <outline>
    <contour>
      <point x="281" y="-5" type="line"/>
      <point x="324" y="-5" type="line"/>
      <point x="678" y="632" type="line"/>
      <point x="644" y="600" type="line"/>
      <point x="726" y="644" type="line"/>
      <point x="730" y="660" type="line"/>
      <point x="530" y="660" type="line"/>
      <point x="527" y="644" type="line"/>
      <point x="617" y="606" type="line"/>
      <point x="619" y="632" type="line"/>
      <point x="309" y="61" type="line"/>
      <point x="368" y="128" type="line"/>
      <point x="317" y="128" type="line"/>
      <point x="353" y="61" type="line"/>
      <point x="234" y="632" type="line"/>
      <point x="217" y="602" type="line"/>
      <point x="328" y="644" type="line"/>
      <point x="331" y="660" type="line"/>
      <point x="94" y="660" type="line"/>
      <point x="90" y="644" type="line"/>
      <point x="186" y="588" type="line"/>
      <point x="145" y="632" type="line"/>
    </contour>
  </outline>
</glyph>
<glyph name="W" format="1">
  <advance width="947"/>
  <unicode hex="0057"/>
  <outline>
    <contour>
      <point x="226" y="-5" type="line"/>
      <point x="262" y="-5" type="line"/>
      <point x="541" y="543" type="line"/>
      <point x="494" y="494" type="line"/>
      <point x="545" y="494" type="line"/>
      <point x="514" y="543" type="line"/>
      <point x="610" y="-5" type="line"/>
      <point x="645" y="-5" type="line"/>
      <point x="935" y="632" type="line"/>
      <point x="908" y="603" type="line"/>
      <point x="994" y="644" type="line"/>
      <point x="997" y="660" type="line"/>
      <point x="787" y="660" type="line"/>
      <point x="784" y="644" type="line"/>
      <point x="882" y="603" type="line"/>
      <point x="875" y="632" type="line"/>
      <point x="655" y="129" type="line"/>
      <point x="692" y="159" type="line"/>
      <point x="641" y="159" type="line"/>
      <point x="668" y="129" type="line"/>
      <point x="578" y="665" type="line"/>
      <point x="543" y="665" type="line"/>
      <point x="276" y="122" type="line"/>
      <point x="315" y="158" type="line"/>
      <point x="264" y="158" type="line"/>
      <point x="291" y="122" type="line"/>
      <point x="238" y="632" type="line"/>
      <point x="211" y="596" type="line"/>
      <point x="332" y="644" type="line"/>
      <point x="335" y="660" type="line"/>
      <point x="94" y="660" type="line"/>
      <point x="90" y="644" type="line"/>
      <point x="174" y="596" type="line"/>
      <point x="153" y="632" type="line"/>
    </contour>
    <contour>
      <point x="568" y="710" type="move" name="top"/>
    </contour>
  </outline>
</glyph>
<glyph name="X" format="1">
  <advance width="702.0"/>
  <unicode hex="0058"/>
  <outline>
    <contour>
      <point x="377" y="0" type="line"/>
      <point x="619" y="0" type="line"/>
      <point x="622" y="16" type="line"/>
      <point x="526" y="75" type="line"/>
      <point x="579" y="23" type="line"/>
      <point x="253" y="606" type="line"/>
      <point x="254" y="611" type="line"/>
      <point x="347" y="644" type="line"/>
      <point x="350" y="660" type="line"/>
      <point x="113" y="660" type="line"/>
      <point x="110" y="644" type="line"/>
      <point x="205" y="585" type="line"/>
      <point x="152" y="632" type="line"/>
      <point x="468" y="54" type="line"/>
      <point x="467" y="50" type="line"/>
      <point x="380" y="16" type="line"/>
    </contour>
    <contour>
      <point x="-25" y="0" type="line"/>
      <point x="196" y="0" type="line"/>
      <point x="199" y="16" type="line"/>
      <point x="124" y="50" type="line"/>
      <point x="124" y="54" type="line"/>
      <point x="350" y="305" type="line"/>
      <point x="326" y="349" type="line"/>
      <point x="38" y="36" type="line"/>
      <point x="87" y="68" type="line"/>
      <point x="-21" y="16" type="line"/>
    </contour>
    <contour>
      <point x="714" y="644" type="line"/>
      <point x="717" y="660" type="line"/>
      <point x="512" y="660" type="line"/>
      <point x="509" y="644" type="line"/>
      <point x="578" y="610" type="line"/>
      <point x="578" y="606" type="line"/>
      <point x="366" y="369" type="line"/>
      <point x="388" y="323" type="line"/>
      <point x="671" y="632" type="line"/>
      <point x="593" y="581" type="line"/>
    </contour>
  </outline>
</glyph>
<glyph name="Y" format="1">
  <advance width="679"/>
  <unicode hex="0059"/>
  <outline>
    <contour>
      <point x="166" y="0" type="line"/>
      <point x="422" y="0" type="line"/>
      <point x="425" y="16" type="line"/>
      <point x="346" y="56" type="line"/>
      <point x="395" y="332" type="line"/>
      <point x="354" y="264" type="line"/>
      <point x="663" y="632" type="line"/>
      <point x="590" y="585" type="line"/>
      <point x="711" y="644" type="line"/>
      <point x="714" y="660" type="line"/>
      <point x="508" y="660" type="line"/>
      <point x="504" y="644" type="line"/>
      <point x="574" y="610" type="line"/>
      <point x="573" y="606" type="line"/>
      <point x="351" y="332" type="line"/>
      <point x="384" y="332" type="line"/>
      <point x="239" y="608" type="line"/>
      <point x="240" y="612" type="line"/>
      <point x="321" y="644" type="line"/>
      <point x="325" y="660" type="line"/>
      <point x="99" y="660" type="line"/>
      <point x="95" y="644" type="line"/>
      <point x="178" y="590" type="line"/>
      <point x="136" y="632" type="line"/>
      <point x="327" y="266" type="line"/>
      <point x="310" y="332" type="line"/>
      <point x="261" y="56" type="line"/>
      <point x="169" y="16" type="line"/>
    </contour>
    <contour>
      <point x="421.0" y="710.0" type="move" name="top"/>
    </contour>
    <contour>
      <point x="295.0" y="0.0" type="move" name="bottom"/>
    </contour>
  </outline>
</glyph>
<glyph name="Z" format="1">
  <advance width="618"/>
  <unicode hex="005A"/>
  <outline>
    <contour>
      <point x="35" y="0" type="line"/>
      <point x="477" y="0" type="line"/>
      <point x="511" y="192" type="line"/>
      <point x="495" y="192" type="line"/>
      <point x="410" y="50" type="line"/>
      <point x="118" y="50" type="line"/>
      <point x="122" y="16" type="line"/>
      <point x="577" y="625" type="line"/>
      <point x="583" y="660" type="line"/>
      <point x="162" y="660" type="line"/>
      <point x="130" y="478" type="line"/>
      <point x="146" y="478" type="line"/>
      <point x="230" y="610" type="line"/>
      <point x="494" y="610" type="line"/>
      <point x="491" y="639" type="line"/>
      <point x="41" y="35" type="line"/>
    </contour>
    <contour>
      <point x="382" y="710" type="move" name="top"/>
    </contour>
    <contour>
      <point x="269" y="0" type="move" name="bottom"/>
    </contour>
  </outline>
</glyph>
<glyph name="bracketleft" format="1">
  <advance width="250"/>
  <unicode hex="005B"/>
  <outline>
    <contour>
      <point x="5" y="-150" type="line"/>
      <point x="66" y="-150" type="line"/>
      <point x="214" y="740" type="line"/>
      <point x="154" y="740" type="line"/>
    </contour>
    <contour>
      <point x="156" y="740" type="line"/>
      <point x="152" y="717" type="line"/>
      <point x="321" y="717" type="line"/>
      <point x="325" y="740" type="line"/>
    </contour>
    <contour>
      <point x="7" y="-150" type="line"/>
      <point x="176" y="-150" type="line"/>
      <point x="180" y="-127" type="line"/>
      <point x="11" y="-127" type="line"/>
    </contour>
  </outline>
</glyph>
<glyph name="backslash" format="2">
  <advance width="328"/>
  <unicode hex="005C"/>
  <outline>
    <contour>
      <point x="220" y="-120" type="line"/>
      <point x="268" y="-120" type="line"/>
      <point x="108" y="750" type="line"/>
      <point x="60" y="750" type="line"/>
    </contour>
  </outline>
</glyph>
<glyph name="bracketright" format="1">
  <advance width="250"/>
  <unicode hex="005D"/>
  <outline>
    <contour>
      <point x="46" y="-150" type="line"/>
      <point x="106" y="-150" type="line"/>
      <point x="255" y="740" type="line"/>
      <point x="194" y="740" type="line"/>
    </contour>
    <contour>
      <point x="-65" y="-150" type="line"/>
      <point x="104" y="-150" type="line"/>
      <point x="108" y="-127" type="line"/>
      <point x="-61" y="-127" type="line"/>
    </contour>
    <contour>
      <point x="80" y="717" type="line"/>
      <point x="249" y="717" type="line"/>
      <point x="253" y="740" type="line"/>
      <point x="84" y="740" type="line"/>
    </contour>
  </outline>
</glyph>
<glyph name="asciicircum" format="1">
  <advance width="500"/>
  <unicode hex="005E"/>
  <outline>
    <contour>
      <point x="26" y="250" type="line"/>
      <point x="81" y="250" type="line"/>
      <point x="327" y="640" type="line"/>
      <point x="294" y="640" type="line"/>
      <point x="403" y="250" type="line"/>
      <point x="454" y="250" type="line"/>
      <point x="337" y="670" type="line"/>
      <point x="290" y="670" type="line"/>
    </contour>
  </outline>
</glyph>
<glyph name="a" format="1">
  <advance width="507.0"/>
  <unicode hex="0061"/>
  <outline>
    <contour>
      <point x="136" y="-10" type="curve" smooth="yes"/>
      <point x="197" y="-10"/>
      <point x="254" y="38"/>
      <point x="304" y="115" type="curve"/>
      <point x="338" y="115" type="line"/>
      <point x="338" y="200" type="line"/>
      <point x="304" y="139"/>
      <point x="242" y="56"/>
      <point x="183" y="56" type="curve" smooth="yes"/>
      <point x="136" y="56"/>
      <point x="123" y="92"/>
      <point x="123" y="167" type="curve" smooth="yes"/>
      <point x="123" y="295"/>
      <point x="181" y="421"/>
      <point x="267" y="421" type="curve" smooth="yes"/>
      <point x="308" y="421"/>
      <point x="332" y="400"/>
      <point x="359" y="361" type="curve"/>
      <point x="356" y="389" type="line"/>
      <point x="303" y="89" type="line"/>
      <point x="292" y="29"/>
      <point x="309" y="-10"/>
      <point x="356" y="-10" type="curve" smooth="yes"/>
      <point x="403" y="-10"/>
      <point x="448" y="32"/>
      <point x="487" y="132" type="curve"/>
      <point x="474" y="138" type="line"/>
      <point x="450" y="87"/>
      <point x="422" y="63"/>
      <point x="399" y="63" type="curve" smooth="yes"/>
      <point x="381" y="63"/>
      <point x="377" y="79"/>
      <point x="384" y="119" type="curve"/>
      <point x="445" y="460" type="line"/>
      <point x="420" y="460" type="line"/>
      <point x="369" y="427" type="line"/>
      <point x="413" y="416" type="line"/>
      <point x="392" y="440"/>
      <point x="345" y="460"/>
      <point x="296" y="460" type="curve" smooth="yes"/>
      <point x="161" y="460"/>
      <point x="47" y="293"/>
      <point x="47" y="128" type="curve" smooth="yes"/>
      <point x="47" y="36"/>
      <point x="83" y="-10"/>
    </contour>
    <contour>
      <point x="306.0" y="510.0" type="move" name="top"/>
    </contour>
    <contour>
      <point x="407.0" y="0.0" type="move" name="right"/>
    </contour>
    <contour>
      <point x="238.0" y="0.0" type="move" name="bottom"/>
    </contour>
  </outline>
</glyph>
<glyph name="b" format="1">
  <advance width="493"/>
  <unicode hex="0062"/>
  <outline>
    <contour>
      <point x="194" y="-10" type="curve" smooth="yes"/>
      <point x="329" y="-10"/>
      <point x="443" y="157"/>
      <point x="443" y="322" type="curve" smooth="yes"/>
      <point x="443" y="414"/>
      <point x="407" y="460"/>
      <point x="354" y="460" type="curve" smooth="yes"/>
      <point x="281" y="460"/>
      <point x="229" y="397"/>
      <point x="187" y="335" type="curve"/>
      <point x="152" y="335" type="line"/>
      <point x="152" y="250" type="line"/>
      <point x="201" y="338"/>
      <point x="263" y="394"/>
      <point x="307" y="394" type="curve" smooth="yes"/>
      <point x="351" y="394"/>
      <point x="367" y="364"/>
      <point x="367" y="283" type="curve" smooth="yes"/>
      <point x="367" y="139"/>
      <point x="301" y="29"/>
      <point x="223" y="29" type="curve" smooth="yes"/>
      <point x="188" y="29"/>
      <point x="164" y="45"/>
      <point x="132" y="89" type="curve"/>
      <point x="134" y="61" type="line"/>
      <point x="254" y="750" type="line"/>
      <point x="251" y="750" type="line"/>
      <point x="88" y="720" type="line"/>
      <point x="88" y="714" type="line"/>
      <point x="165" y="680" type="line"/>
      <point x="45" y="-10" type="line"/>
      <point x="51" y="-10" type="line"/>
      <point x="121" y="23" type="line"/>
      <point x="77" y="34" type="line"/>
      <point x="98" y="10"/>
      <point x="145" y="-10"/>
    </contour>
  </outline>
</glyph>
<glyph name="c" format="2">
  <advance width="427"/>
  <unicode hex="0063"/>
  <anchor x="306" y="510" name="top"/>
  <anchor x="195" y="0" name="bottom"/>
  <outline>
    <contour>
      <point x="313" y="420" type="curve"/>
      <point x="296" y="427" type="line"/>
      <point x="355" y="336" type="line"/>
      <point x="391" y="359" type="line" smooth="yes"/>
      <point x="401" y="365"/>
      <point x="405" y="374"/>
      <point x="405" y="384" type="curve" smooth="yes"/>
      <point x="405" y="410"/>
      <point x="370" y="460"/>
      <point x="307" y="460" type="curve" smooth="yes"/>
      <point x="172" y="460"/>
      <point x="50" y="300"/>
      <point x="50" y="160" type="curve" smooth="yes"/>
      <point x="50" y="49"/>
      <point x="102" y="-10"/>
      <point x="198" y="-10" type="curve" smooth="yes"/>
      <point x="266" y="-10"/>
      <point x="323" y="39"/>
      <point x="380" y="140" type="curve"/>
      <point x="370" y="148" type="line"/>
      <point x="368" y="148" type="line"/>
      <point x="308" y="64"/>
      <point x="263" y="52"/>
      <point x="229" y="52" type="curve" smooth="yes"/>
      <point x="156" y="52"/>
      <point x="125" y="105"/>
      <point x="125" y="199" type="curve" smooth="yes"/>
      <point x="125" y="314"/>
      <point x="215" y="422"/>
      <point x="299" y="422" type="curve" smooth="yes"/>
      <point x="304" y="422"/>
      <point x="310" y="421"/>
    </contour>
  </outline>
</glyph>
<glyph name="e" format="1">
  <advance width="443.0"/>
  <unicode hex="0065"/>
  <outline>
    <contour>
      <point x="199" y="-10" type="curve" smooth="yes"/>
      <point x="264" y="-10"/>
      <point x="332" y="42"/>
      <point x="377" y="121" type="curve"/>
      <point x="367" y="129" type="line"/>
      <point x="365" y="129" type="line"/>
      <point x="320" y="75"/>
      <point x="278" y="52"/>
      <point x="234" y="52" type="curve" smooth="yes"/>
      <point x="159" y="52"/>
      <point x="126" y="103"/>
      <point x="126" y="185" type="curve" smooth="yes"/>
      <point x="126" y="323"/>
      <point x="185" y="425"/>
      <point x="275" y="425" type="curve" smooth="yes"/>
      <point x="308" y="425"/>
      <point x="326" y="405"/>
      <point x="326" y="378" type="curve" smooth="yes"/>
      <point x="326" y="315"/>
      <point x="280" y="288"/>
      <point x="120" y="261" type="curve"/>
      <point x="114" y="225" type="line"/>
      <point x="341" y="260"/>
      <point x="403" y="314"/>
      <point x="403" y="383" type="curve" smooth="yes"/>
      <point x="403" y="424"/>
      <point x="369" y="460"/>
      <point x="302" y="460" type="curve" smooth="yes"/>
      <point x="161" y="460"/>
      <point x="50" y="305"/>
      <point x="50" y="148" type="curve" smooth="yes"/>
      <point x="50" y="51"/>
      <point x="97" y="-10"/>
    </contour>
    <contour>
      <point x="280" y="0" type="move" name="right"/>
    </contour>
    <contour>
      <point x="208" y="0" type="move" name="bottom"/>
    </contour>
    <contour>
      <point x="309" y="510" type="move" name="top"/>
    </contour>
  </outline>
</glyph>
<glyph name="f" format="2">
  <advance width="319"/>
  <unicode hex="0066"/>
  <outline>
    <contour>
      <point x="50" y="406" type="line"/>
      <point x="325" y="406" type="line"/>
      <point x="325" y="450" type="line"/>
      <point x="50" y="450" type="line"/>
    </contour>
    <contour>
      <point x="367" y="722" type="curve"/>
      <point x="319" y="713" type="line"/>
      <point x="437" y="662" type="line"/>
      <point x="454" y="701" type="line" smooth="yes"/>
      <point x="457" y="708"/>
      <point x="459" y="714"/>
      <point x="459" y="719" type="curve" smooth="yes"/>
      <point x="459" y="734"/>
      <point x="437" y="750"/>
      <point x="401" y="750" type="curve" smooth="yes"/>
      <point x="262" y="750"/>
      <point x="151" y="567"/>
      <point x="138" y="473" type="curve" smooth="yes"/>
      <point x="74" y="24" type="line" smooth="yes"/>
      <point x="57" y="-98"/>
      <point x="21" y="-166"/>
      <point x="-36" y="-197" type="curve"/>
      <point x="-8" y="-197" type="line"/>
      <point x="-105" y="-154" type="line"/>
      <point x="-121" y="-188" type="line" smooth="yes"/>
      <point x="-126" y="-198"/>
      <point x="-127" y="-201"/>
      <point x="-127" y="-205" type="curve" smooth="yes"/>
      <point x="-127" y="-224"/>
      <point x="-102" y="-240"/>
      <point x="-72" y="-240" type="curve" smooth="yes"/>
      <point x="9" y="-240"/>
      <point x="132" y="-95"/>
      <point x="151" y="34" type="curve" smooth="yes"/>
      <point x="215" y="472" type="line" smooth="yes"/>
      <point x="236" y="615"/>
      <point x="283" y="690"/>
    </contour>
  </outline>
</glyph>
<glyph name="g" format="1">
  <advance width="442.0"/>
  <unicode hex="0067"/>
  <outline>
    <contour>
      <point x="208" y="153" type="curve" smooth="yes"/>
      <point x="323" y="153"/>
      <point x="396" y="254"/>
      <point x="396" y="329" type="curve" smooth="yes"/>
      <point x="396" y="365"/>
      <point x="384" y="400"/>
      <point x="363" y="415" type="curve"/>
      <point x="341" y="439" type="line"/>
      <point x="322" y="451"/>
      <point x="287" y="460"/>
      <point x="261" y="460" type="curve" smooth="yes"/>
      <point x="152" y="460"/>
      <point x="72" y="363"/>
      <point x="72" y="279" type="curve" smooth="yes"/>
      <point x="72" y="205"/>
      <point x="126" y="153"/>
    </contour>
    <contour>
      <point x="226" y="192" type="curve" smooth="yes"/>
      <point x="178" y="192"/>
      <point x="147" y="232"/>
      <point x="147" y="290" type="curve" smooth="yes"/>
      <point x="147" y="353"/>
      <point x="185" y="421"/>
      <point x="246" y="421" type="curve" smooth="yes"/>
      <point x="292" y="421"/>
      <point x="322" y="383"/>
      <point x="322" y="325" type="curve" smooth="yes"/>
      <point x="322" y="265"/>
      <point x="282" y="192"/>
    </contour>
    <contour>
      <point x="468" y="406" type="line"/>
      <point x="468" y="450" type="line"/>
      <point x="310" y="450" type="line"/>
      <point x="310" y="390" type="line"/>
      <point x="360" y="390" type="line"/>
      <point x="379" y="406" type="line"/>
    </contour>
    <contour>
      <point x="164" y="-240" type="curve" smooth="yes"/>
      <point x="315" y="-240"/>
      <point x="389" y="-155"/>
      <point x="389" y="-75" type="curve" smooth="yes"/>
      <point x="389" y="68"/>
      <point x="111" y="21"/>
      <point x="111" y="100" type="curve" smooth="yes"/>
      <point x="111" y="126"/>
      <point x="125" y="153"/>
      <point x="164" y="166" type="curve"/>
      <point x="164" y="181" type="line"/>
      <point x="130" y="181" type="line"/>
      <point x="130" y="170" type="line"/>
      <point x="63" y="136" type="line"/>
      <point x="44" y="114"/>
      <point x="39" y="99"/>
      <point x="39" y="71" type="curve" smooth="yes"/>
      <point x="39" y="-51"/>
      <point x="316" y="21"/>
      <point x="316" y="-104" type="curve" smooth="yes"/>
      <point x="316" y="-161"/>
      <point x="273" y="-209"/>
      <point x="181" y="-209" type="curve" smooth="yes"/>
      <point x="111" y="-209"/>
      <point x="65" y="-176"/>
      <point x="65" y="-127" type="curve" smooth="yes"/>
      <point x="65" y="-87"/>
      <point x="75" y="-46"/>
      <point x="144" y="-2" type="curve"/>
      <point x="144" y="8" type="line"/>
      <point x="111" y="8" type="line"/>
      <point x="111" y="-3" type="line"/>
      <point x="31" y="-48" type="line"/>
      <point x="2.15890049513" y="-76.8410995049"/>
      <point x="-10.0" y="-96.4615384615"/>
      <point x="-10" y="-138" type="curve" smooth="yes"/>
      <point x="-10.0" y="-195.564356436"/>
      <point x="45.0" y="-240.0"/>
    </contour>
    <contour>
      <point x="271.0" y="510.0" type="move" name="top"/>
    </contour>
  </outline>
</glyph>
<glyph name="h" format="2">
  <advance width="517"/>
  <unicode hex="0068"/>
  <anchor x="340.0" y="765.0" name="top"/>
  <anchor x="239.0" y="0.0" name="bottom"/>
  <outline>
    <contour>
      <point x="106" y="0" type="line"/>
      <point x="238" y="749" type="line"/>
      <point x="235" y="749" type="line"/>
      <point x="71" y="719" type="line"/>
      <point x="71" y="713" type="line"/>
      <point x="149" y="678" type="line"/>
      <point x="30" y="0" type="line"/>
    </contour>
    <contour>
      <point x="369" y="-10" type="curve" smooth="yes"/>
      <point x="416" y="-10"/>
      <point x="461" y="32"/>
      <point x="500" y="132" type="curve"/>
      <point x="487" y="138" type="line"/>
      <point x="463" y="87"/>
      <point x="435" y="63"/>
      <point x="412" y="63" type="curve" smooth="yes"/>
      <point x="394" y="63"/>
      <point x="390" y="79"/>
      <point x="397" y="119" type="curve" smooth="yes"/>
      <point x="432" y="312" type="line" smooth="yes"/>
      <point x="448" y="402"/>
      <point x="407" y="460"/>
      <point x="342" y="460" type="curve" smooth="yes"/>
      <point x="277.377906977" y="460.0"/>
      <point x="241.813252936" y="432.794841254"/>
      <point x="171" y="355" type="curve"/>
      <point x="151" y="355" type="line"/>
      <point x="151" y="300" type="line"/>
      <point x="183" y="336"/>
      <point x="241" y="399"/>
      <point x="289" y="399" type="curve" smooth="yes"/>
      <point x="348" y="399"/>
      <point x="362" y="356"/>
      <point x="355" y="309" type="curve" smooth="yes"/>
      <point x="316" y="89" type="line" smooth="yes"/>
      <point x="305" y="29"/>
      <point x="322" y="-10"/>
    </contour>
  </outline>
</glyph>
<glyph name="i" format="1">
  <advance width="288.0"/>
  <unicode hex="0069"/>
  <outline>
    <contour>
      <point x="125" y="-10" type="curve" smooth="yes"/>
      <point x="172" y="-10"/>
      <point x="217" y="32"/>
      <point x="256" y="132" type="curve"/>
      <point x="243" y="138" type="line"/>
      <point x="219" y="87"/>
      <point x="191" y="63"/>
      <point x="168" y="63" type="curve" smooth="yes"/>
      <point x="150" y="63"/>
      <point x="146" y="79"/>
      <point x="153" y="119" type="curve" smooth="yes"/>
      <point x="214" y="460" type="line"/>
      <point x="211" y="460" type="line"/>
      <point x="38" y="430" type="line"/>
      <point x="38" y="424" type="line"/>
      <point x="125" y="390" type="line"/>
      <point x="72" y="89" type="line" smooth="yes"/>
      <point x="61" y="29"/>
      <point x="78" y="-10"/>
    </contour>
    <contour>
      <point x="196" y="587" type="curve" smooth="yes"/>
      <point x="227" y="587"/>
      <point x="253" y="613"/>
      <point x="253" y="644" type="curve" smooth="yes"/>
      <point x="253" y="675"/>
      <point x="227" y="701"/>
      <point x="196" y="701" type="curve" smooth="yes"/>
      <point x="165" y="701"/>
      <point x="139" y="675"/>
      <point x="139" y="644" type="curve" smooth="yes"/>
      <point x="139" y="613"/>
      <point x="165" y="587"/>
    </contour>
    <contour>
      <point x="182" y="510" type="move" name="top"/>
    </contour>
    <contour>
      <point x="117" y="0" type="move" name="bottom"/>
    </contour>
    <contour>
      <point x="132" y="0" type="move" name="right"/>
    </contour>
  </outline>
</glyph>
<glyph name="j" format="1">
  <advance width="288.0"/>
  <unicode hex="006A"/>
  <outline>
    <contour>
      <point x="-76" y="-230" type="line"/>
      <point x="37" y="-175"/>
      <point x="114" y="-99"/>
      <point x="132" y="0" type="curve" smooth="yes"/>
      <point x="214" y="460" type="line"/>
      <point x="211" y="460" type="line"/>
      <point x="38" y="430" type="line"/>
      <point x="38" y="424" type="line"/>
      <point x="125" y="390" type="line"/>
      <point x="54" y="-10" type="line" smooth="yes"/>
      <point x="34" y="-120"/>
      <point x="-8" y="-169"/>
      <point x="-76" y="-214" type="curve"/>
    </contour>
    <contour>
      <point x="196" y="587" type="curve" smooth="yes"/>
      <point x="227" y="587"/>
      <point x="253" y="613"/>
      <point x="253" y="644" type="curve" smooth="yes"/>
      <point x="253" y="675"/>
      <point x="227" y="701"/>
      <point x="196" y="701" type="curve" smooth="yes"/>
      <point x="165" y="701"/>
      <point x="139" y="675"/>
      <point x="139" y="644" type="curve" smooth="yes"/>
      <point x="139" y="613"/>
      <point x="165" y="587"/>
    </contour>
    <contour>
      <point x="186" y="510" type="move" name="top"/>
    </contour>
  </outline>
</glyph>
<glyph name="k" format="2">
  <advance width="467"/>
  <unicode hex="006B"/>
  <anchor x="186" y="0" name="bottom"/>
  <outline>
    <contour>
      <point x="30" y="0" type="line"/>
      <point x="106" y="0" type="line"/>
      <point x="238" y="749" type="line"/>
      <point x="235" y="749" type="line"/>
      <point x="71" y="719" type="line"/>
      <point x="71" y="713" type="line"/>
      <point x="149" y="678" type="line"/>
    </contour>
    <contour>
      <point x="338" y="-10" type="curve" smooth="yes"/>
      <point x="384" y="-10"/>
      <point x="410" y="30"/>
      <point x="452" y="132" type="curve"/>
      <point x="439" y="138" type="line"/>
      <point x="415" y="87"/>
      <point x="398" y="63"/>
      <point x="374" y="63" type="curve" smooth="yes"/>
      <point x="356" y="63"/>
      <point x="344" y="75"/>
      <point x="324" y="109" type="curve" smooth="yes"/>
      <point x="218" y="294" type="line"/>
      <point x="205" y="269" type="line"/>
      <point x="333" y="381" type="line" smooth="yes"/>
      <point x="345" y="391"/>
      <point x="357" y="397"/>
      <point x="367" y="400" type="curve"/>
      <point x="349" y="400" type="line"/>
      <point x="423" y="373" type="line"/>
      <point x="438" y="411" type="line" smooth="yes"/>
      <point x="442" y="420"/>
      <point x="443" y="426"/>
      <point x="443" y="429" type="curve" smooth="yes"/>
      <point x="443" y="442"/>
      <point x="426" y="460"/>
      <point x="394" y="460" type="curve" smooth="yes"/>
      <point x="355" y="460"/>
      <point x="330" y="439"/>
      <point x="156" y="257" type="curve"/>
      <point x="156" y="252" type="line"/>
      <point x="251" y="79" type="line" smooth="yes"/>
      <point x="279" y="29"/>
      <point x="291" y="-10"/>
    </contour>
  </outline>
</glyph>
<glyph name="l" format="1">
  <advance width="258"/>
  <unicode hex="006C"/>
  <outline>
    <contour>
      <point x="101" y="-10" type="curve" smooth="yes"/>
      <point x="148" y="-10"/>
      <point x="193" y="32"/>
      <point x="232" y="132" type="curve"/>
      <point x="219" y="138" type="line"/>
      <point x="195" y="87"/>
      <point x="167" y="63"/>
      <point x="144" y="63" type="curve" smooth="yes"/>
      <point x="126" y="63"/>
      <point x="122" y="79"/>
      <point x="129" y="119" type="curve" smooth="yes"/>
      <point x="240" y="750" type="line"/>
      <point x="237" y="750" type="line"/>
      <point x="64" y="720" type="line"/>
      <point x="64" y="714" type="line"/>
      <point x="151" y="680" type="line"/>
      <point x="48" y="89" type="line" smooth="yes"/>
      <point x="38" y="29"/>
      <point x="54" y="-10"/>
    </contour>
    <contour>
      <point x="206" y="765" type="move" name="top"/>
    </contour>
    <contour>
      <point x="360" y="740" type="move" name="right"/>
    </contour>
    <contour>
      <point x="260" y="300" type="move" name="mid"/>
    </contour>
    <contour>
      <point x="93" y="0" type="move" name="bottom"/>
    </contour>
  </outline>
</glyph>
<glyph name="m" format="1">
  <advance width="773"/>
  <unicode hex="006D"/>
  <outline>
    <contour>
      <point x="43" y="0" type="line"/>
      <point x="119" y="0" type="line"/>
      <point x="179" y="348" type="line"/>
      <point x="179" y="460" type="line"/>
      <point x="176" y="460" type="line"/>
      <point x="34" y="430" type="line"/>
      <point x="34" y="424" type="line"/>
      <point x="112" y="389" type="line"/>
    </contour>
    <contour>
      <point x="299" y="0" type="line"/>
      <point x="375" y="0" type="line"/>
      <point x="431" y="312" type="line" smooth="yes"/>
      <point x="447" y="402"/>
      <point x="408" y="460"/>
      <point x="348" y="460" type="curve" smooth="yes"/>
      <point x="283" y="460"/>
      <point x="253" y="433"/>
      <point x="183" y="355" type="curve"/>
      <point x="164" y="355" type="line"/>
      <point x="164" y="300" type="line"/>
      <point x="196" y="336"/>
      <point x="247" y="399"/>
      <point x="295" y="399" type="curve" smooth="yes"/>
      <point x="348" y="399"/>
      <point x="362" y="356"/>
      <point x="354" y="309" type="curve" smooth="yes"/>
    </contour>
    <contour>
      <point x="625" y="-10" type="curve" smooth="yes"/>
      <point x="672" y="-10"/>
      <point x="717" y="32"/>
      <point x="756" y="132" type="curve"/>
      <point x="743" y="138" type="line"/>
      <point x="719" y="87"/>
      <point x="691" y="63"/>
      <point x="668" y="63" type="curve" smooth="yes"/>
      <point x="650" y="63"/>
      <point x="646" y="79"/>
      <point x="653" y="119" type="curve" smooth="yes"/>
      <point x="688" y="312" type="line" smooth="yes"/>
      <point x="704" y="402"/>
      <point x="665" y="460"/>
      <point x="605" y="460" type="curve" smooth="yes"/>
      <point x="540" y="460"/>
      <point x="510" y="433"/>
      <point x="440" y="355" type="curve"/>
      <point x="421" y="355" type="line"/>
      <point x="421" y="300" type="line"/>
      <point x="453" y="336"/>
      <point x="504" y="399"/>
      <point x="552" y="399" type="curve" smooth="yes"/>
      <point x="605" y="399"/>
      <point x="619" y="356"/>
      <point x="611" y="309" type="curve" smooth="yes"/>
      <point x="572" y="89" type="line" smooth="yes"/>
      <point x="561" y="29"/>
      <point x="578" y="-10"/>
    </contour>
    <contour>
      <point x="337" y="0" type="move" name="bottom"/>
    </contour>
  </outline>
</glyph>
<glyph name="n" format="1">
  <advance width="530.0"/>
  <unicode hex="006E"/>
  <outline>
    <contour>
      <point x="43" y="0" type="line"/>
      <point x="119" y="0" type="line"/>
      <point x="179" y="348" type="line"/>
      <point x="179" y="460" type="line"/>
      <point x="176" y="460" type="line"/>
      <point x="34" y="430" type="line"/>
      <point x="34" y="424" type="line"/>
      <point x="112" y="389" type="line"/>
    </contour>
    <contour>
      <point x="382" y="-10" type="curve" smooth="yes"/>
      <point x="429" y="-10"/>
      <point x="474" y="32"/>
      <point x="513" y="132" type="curve"/>
      <point x="500" y="138" type="line"/>
      <point x="476" y="87"/>
      <point x="448" y="63"/>
      <point x="425" y="63" type="curve" smooth="yes"/>
      <point x="407" y="63"/>
      <point x="403" y="79"/>
      <point x="410" y="119" type="curve" smooth="yes"/>
      <point x="445" y="312" type="line" smooth="yes"/>
      <point x="461" y="402"/>
      <point x="420" y="460"/>
      <point x="355" y="460" type="curve" smooth="yes"/>
      <point x="290" y="460"/>
      <point x="254" y="433"/>
      <point x="183" y="355" type="curve"/>
      <point x="164" y="355" type="line"/>
      <point x="164" y="300" type="line"/>
      <point x="196" y="336"/>
      <point x="254" y="399"/>
      <point x="302" y="399" type="curve" smooth="yes"/>
      <point x="361" y="399"/>
      <point x="375" y="356"/>
      <point x="368" y="309" type="curve" smooth="yes"/>
      <point x="329" y="89" type="line" smooth="yes"/>
      <point x="318" y="29"/>
      <point x="335" y="-10"/>
    </contour>
    <contour>
      <point x="296" y="510" type="move" name="top"/>
    </contour>
    <contour>
      <point x="232" y="0" type="move" name="bottom"/>
    </contour>
  </outline>
</glyph>
<glyph name="o" format="1">
  <advance width="509"/>
  <unicode hex="006F"/>
  <outline>
    <contour>
      <point x="220" y="-10" type="curve" smooth="yes"/>
      <point x="366" y="-10"/>
      <point x="459" y="145"/>
      <point x="459" y="266" type="curve" smooth="yes"/>
      <point x="459" y="380"/>
      <point x="405" y="460"/>
      <point x="289" y="460" type="curve" smooth="yes"/>
      <point x="147" y="460"/>
      <point x="50" y="309"/>
      <point x="50" y="184" type="curve" smooth="yes"/>
      <point x="50" y="70"/>
      <point x="104" y="-10"/>
    </contour>
    <contour>
      <point x="231" y="28" type="curve" smooth="yes"/>
      <point x="159" y="28"/>
      <point x="137" y="82"/>
      <point x="137" y="181" type="curve" smooth="yes"/>
      <point x="137" y="326"/>
      <point x="195" y="423"/>
      <point x="280" y="423" type="curve" smooth="yes"/>
      <point x="351" y="423"/>
      <point x="372" y="370"/>
      <point x="372" y="272" type="curve" smooth="yes"/>
      <point x="372" y="140"/>
      <point x="318" y="28"/>
    </contour>
    <contour>
      <point x="298" y="510" type="move" name="top"/>
    </contour>
    <contour>
      <point x="249.0" y="0.0" type="move" name="right"/>
    </contour>
    <contour>
      <point x="221.0" y="0.0" type="move" name="bottom"/>
    </contour>
  </outline>
</glyph>
<glyph name="p" format="1">
  <advance width="508.0"/>
  <unicode hex="0070"/>
  <outline>
    <contour>
      <point x="-27" y="-230" type="line"/>
      <point x="188" y="-230" type="line"/>
      <point x="188" y="-214" type="line"/>
      <point x="108" y="-185" type="line"/>
      <point x="142" y="23" type="line"/>
      <point x="92" y="34" type="line"/>
      <point x="113" y="10"/>
      <point x="160" y="-10"/>
      <point x="209" y="-10" type="curve" smooth="yes"/>
      <point x="344" y="-10"/>
      <point x="458" y="157"/>
      <point x="458" y="322" type="curve" smooth="yes"/>
      <point x="458.0" y="413.333333333"/>
      <point x="422" y="460"/>
      <point x="369" y="460" type="curve" smooth="yes"/>
      <point x="308" y="460"/>
      <point x="251" y="412"/>
      <point x="201" y="335" type="curve"/>
      <point x="167" y="335" type="line"/>
      <point x="167" y="250" type="line"/>
      <point x="201" y="311"/>
      <point x="263" y="394"/>
      <point x="322" y="394" type="curve" smooth="yes"/>
      <point x="369" y="394"/>
      <point x="382.0" y="358.0"/>
      <point x="382" y="283" type="curve" smooth="yes"/>
      <point x="382" y="155"/>
      <point x="324" y="29"/>
      <point x="238" y="29" type="curve" smooth="yes"/>
      <point x="197" y="29"/>
      <point x="175" y="51"/>
      <point x="147" y="89" type="curve"/>
      <point x="149" y="61" type="line"/>
      <point x="197" y="335" type="line"/>
      <point x="197" y="460" type="line"/>
      <point x="194" y="460" type="line"/>
      <point x="52" y="430" type="line"/>
      <point x="52" y="424" type="line"/>
      <point x="130" y="389" type="line"/>
      <point x="28" y="-186" type="line"/>
      <point x="-27" y="-214" type="line"/>
    </contour>
  </outline>
</glyph>
<glyph name="q" format="1">
  <advance width="473.0"/>
  <unicode hex="0071"/>
  <outline>
    <contour>
      <point x="183" y="-230" type="line"/>
      <point x="398" y="-230" type="line"/>
      <point x="398" y="-214" type="line"/>
      <point x="328" y="-184" type="line"/>
      <point x="445" y="460" type="line"/>
      <point x="439" y="460" type="line"/>
      <point x="369" y="427" type="line"/>
      <point x="413" y="416" type="line"/>
      <point x="392" y="440"/>
      <point x="345" y="460"/>
      <point x="296" y="460" type="curve" smooth="yes"/>
      <point x="161" y="460"/>
      <point x="47" y="293"/>
      <point x="47" y="128" type="curve" smooth="yes"/>
      <point x="47" y="36"/>
      <point x="83" y="-10"/>
      <point x="136" y="-10" type="curve" smooth="yes"/>
      <point x="197" y="-10"/>
      <point x="254.0" y="38.0"/>
      <point x="304" y="115" type="curve"/>
      <point x="338" y="115" type="line"/>
      <point x="338" y="200" type="line"/>
      <point x="304" y="139"/>
      <point x="242" y="56"/>
      <point x="183" y="56" type="curve" smooth="yes"/>
      <point x="136" y="56"/>
      <point x="123.0" y="91.3243243243"/>
      <point x="123" y="167" type="curve" smooth="yes"/>
      <point x="123" y="295"/>
      <point x="181" y="421"/>
      <point x="267" y="421" type="curve" smooth="yes"/>
      <point x="308" y="421"/>
      <point x="330" y="399"/>
      <point x="358" y="361" type="curve"/>
      <point x="356" y="389" type="line"/>
      <point x="252" y="-187" type="line"/>
      <point x="183" y="-214" type="line"/>
    </contour>
  </outline>
</glyph>
<glyph name="r" format="2">
  <advance width="345"/>
  <unicode hex="0072"/>
  <anchor x="227" y="510" name="top"/>
  <anchor x="82" y="0" name="bottom"/>
  <outline>
    <contour>
      <point x="43" y="0" type="line"/>
      <point x="119" y="0" type="line"/>
      <point x="178" y="337" type="line"/>
      <point x="178" y="460" type="line"/>
      <point x="175" y="460" type="line"/>
      <point x="34" y="430" type="line"/>
      <point x="34" y="424" type="line"/>
      <point x="112" y="389" type="line"/>
    </contour>
    <contour>
      <point x="269" y="390" type="curve"/>
      <point x="248" y="393" type="line"/>
      <point x="330" y="363" type="line"/>
      <point x="348" y="409" type="line" smooth="yes"/>
      <point x="351" y="416"/>
      <point x="352" y="423"/>
      <point x="352" y="427" type="curve" smooth="yes"/>
      <point x="352" y="443"/>
      <point x="330" y="460"/>
      <point x="304" y="460" type="curve" smooth="yes"/>
      <point x="268" y="460"/>
      <point x="242" y="439"/>
      <point x="182" y="337" type="curve"/>
      <point x="158" y="337" type="line"/>
      <point x="158" y="255" type="line"/>
      <point x="213" y="347"/>
      <point x="240" y="379"/>
    </contour>
  </outline>
</glyph>
<glyph name="s" format="1">
  <advance width="353.0"/>
  <unicode hex="0073"/>
  <outline>
    <contour>
      <point x="141" y="-10" type="curve" smooth="yes"/>
      <point x="233" y="-10"/>
      <point x="302" y="56"/>
      <point x="302" y="127" type="curve" smooth="yes"/>
      <point x="302" y="200"/>
      <point x="267" y="229"/>
      <point x="195" y="271" type="curve" smooth="yes"/>
      <point x="160" y="291"/>
      <point x="130.0" y="317.94505494505495"/>
      <point x="130" y="360" type="curve" smooth="yes"/>
      <point x="130" y="398"/>
      <point x="161" y="423"/>
      <point x="200" y="423" type="curve" smooth="yes"/>
      <point x="235" y="423"/>
      <point x="256" y="408"/>
      <point x="275" y="382" type="curve" smooth="yes"/>
      <point x="297" y="351" type="line"/>
      <point x="304" y="351" type="line"/>
      <point x="323" y="361" type="line" smooth="yes"/>
      <point x="333" y="366"/>
      <point x="337" y="377"/>
      <point x="337" y="386" type="curve"/>
      <point x="337" y="394"/>
      <point x="335" y="401"/>
      <point x="328" y="412" type="curve" smooth="yes"/>
      <point x="309" y="440"/>
      <point x="278" y="460"/>
      <point x="220" y="460" type="curve" smooth="yes"/>
      <point x="139" y="460"/>
      <point x="64" y="390"/>
      <point x="64" y="332" type="curve" smooth="yes"/>
      <point x="64.0" y="277.14960629921256"/>
      <point x="78.62539290766723" y="249.6132438597321"/>
      <point x="154" y="203" type="curve" smooth="yes"/>
      <point x="197.48690637252304" y="176.70559149568373"/>
      <point x="237.0" y="154.96078431372547"/>
      <point x="237" y="103" type="curve" smooth="yes"/>
      <point x="237" y="52"/>
      <point x="200" y="25"/>
      <point x="150" y="25" type="curve" smooth="yes"/>
      <point x="117" y="25"/>
      <point x="80" y="41"/>
      <point x="60" y="75" type="curve" smooth="yes"/>
      <point x="43" y="104" type="line"/>
      <point x="36" y="104" type="line"/>
      <point x="14" y="92" type="line" smooth="yes"/>
      <point x="3" y="86"/>
      <point x="2" y="77"/>
      <point x="2" y="69" type="curve" smooth="yes"/>
      <point x="2" y="60"/>
      <point x="4" y="53"/>
      <point x="12" y="41" type="curve" smooth="yes"/>
      <point x="31" y="12"/>
      <point x="73" y="-10"/>
    </contour>
    <contour>
      <point x="230" y="510" type="move" name="top"/>
    </contour>
    <contour>
      <point x="142" y="0" type="move" name="bottom"/>
    </contour>
  </outline>
</glyph>
<glyph name="t" format="1">
  <advance width="314.0"/>
  <unicode hex="0074"/>
  <outline>
    <contour>
      <point x="131" y="-10" type="curve" smooth="yes"/>
      <point x="188" y="-10"/>
      <point x="244" y="35"/>
      <point x="288" y="161" type="curve"/>
      <point x="275" y="167" type="line"/>
      <point x="246" y="101"/>
      <point x="207" y="66"/>
      <point x="177" y="66" type="curve" smooth="yes"/>
      <point x="159" y="66"/>
      <point x="148" y="78"/>
      <point x="148" y="110" type="curve" smooth="yes"/>
      <point x="148" y="121"/>
      <point x="149" y="135"/>
      <point x="152" y="152" type="curve" smooth="yes"/>
      <point x="197" y="406" type="line"/>
      <point x="330" y="406" type="line"/>
      <point x="330" y="450" type="line"/>
      <point x="205" y="450" type="line"/>
      <point x="224" y="560" type="line"/>
      <point x="218" y="560" type="line"/>
      <point x="132" y="450" type="line"/>
      <point x="47" y="412" type="line"/>
      <point x="47" y="406" type="line"/>
      <point x="121" y="406" type="line"/>
      <point x="68" y="108" type="line" smooth="yes"/>
      <point x="66" y="94"/>
      <point x="64" y="81"/>
      <point x="64" y="70" type="curve" smooth="yes"/>
      <point x="64" y="20"/>
      <point x="87" y="-10"/>
    </contour>
    <contour>
      <point x="204.0" y="610.0" type="move" name="top"/>
    </contour>
    <contour>
      <point x="381.0" y="740.0" type="move" name="right"/>
    </contour>
    <contour>
      <point x="138.0" y="0.0" type="move" name="bottom"/>
    </contour>
  </outline>
</glyph>
<glyph name="u" format="1">
  <advance width="522.0"/>
  <unicode hex="0075"/>
  <outline>
    <contour>
      <point x="159" y="-10" type="curve" smooth="yes"/>
      <point x="220" y="-10"/>
      <point x="253" y="19"/>
      <point x="321" y="95" type="curve"/>
      <point x="340" y="95" type="line"/>
      <point x="340" y="150" type="line"/>
      <point x="309" y="115"/>
      <point x="257" y="51"/>
      <point x="212" y="51" type="curve" smooth="yes"/>
      <point x="171" y="51"/>
      <point x="154" y="81"/>
      <point x="154" y="118" type="curve" smooth="yes"/>
      <point x="154" y="125"/>
      <point x="155" y="135"/>
      <point x="158" y="154" type="curve" smooth="yes"/>
      <point x="210" y="460" type="line"/>
      <point x="206" y="460" type="line"/>
      <point x="46" y="430" type="line"/>
      <point x="46" y="424" type="line"/>
      <point x="124" y="389" type="line"/>
      <point x="79" y="138" type="line" smooth="yes"/>
      <point x="77" y="124"/>
      <point x="75" y="111"/>
      <point x="75" y="98" type="curve" smooth="yes"/>
      <point x="75" y="31"/>
      <point x="110" y="-10"/>
    </contour>
    <contour>
      <point x="376" y="-10" type="curve" smooth="yes"/>
      <point x="423" y="-10"/>
      <point x="468" y="32"/>
      <point x="507" y="132" type="curve"/>
      <point x="494" y="138" type="line"/>
      <point x="470" y="87"/>
      <point x="442" y="63"/>
      <point x="419" y="63" type="curve" smooth="yes"/>
      <point x="399" y="63"/>
      <point x="395" y="79"/>
      <point x="402" y="119" type="curve" smooth="yes"/>
      <point x="462" y="460" type="line"/>
      <point x="458" y="460" type="line"/>
      <point x="306" y="430" type="line"/>
      <point x="306" y="424" type="line"/>
      <point x="375" y="389" type="line"/>
      <point x="323" y="89" type="line" smooth="yes"/>
      <point x="313" y="29"/>
      <point x="329" y="-10"/>
    </contour>
    <contour>
      <point x="307" y="510" type="move" name="top"/>
    </contour>
    <contour>
      <point x="215" y="0" type="move" name="bottom"/>
    </contour>
    <contour>
      <point x="427" y="0" type="move" name="right"/>
    </contour>
  </outline>
</glyph>
<glyph name="v" format="2">
  <advance width="448"/>
  <unicode hex="0076"/>
  <outline>
    <contour>
      <point x="197" y="0" type="line"/>
      <point x="210" y="0" type="line"/>
      <point x="260" y="75" type="line"/>
      <point x="260" y="111" type="line"/>
      <point x="250" y="111" type="line"/>
      <point x="174" y="460" type="line"/>
      <point x="171" y="460" type="line"/>
      <point x="23" y="430" type="line"/>
      <point x="23" y="424" type="line"/>
      <point x="136" y="384" type="line"/>
      <point x="101" y="423" type="line"/>
    </contour>
    <contour>
      <point x="218" y="0" type="line"/>
      <point x="371" y="228" type="line" smooth="yes"/>
      <point x="426" y="311"/>
      <point x="443" y="349"/>
      <point x="443" y="381" type="curve" smooth="yes"/>
      <point x="443" y="421"/>
      <point x="411" y="460"/>
      <point x="382" y="460" type="curve" smooth="yes"/>
      <point x="373" y="460"/>
      <point x="365" y="455"/>
      <point x="358" y="447" type="curve" smooth="yes"/>
      <point x="331" y="414" type="line"/>
      <point x="404" y="352" type="line"/>
      <point x="384" y="405" type="line"/>
      <point x="396" y="343"/>
      <point x="374" y="295"/>
      <point x="331" y="229" type="curve" smooth="yes"/>
      <point x="205" y="36" type="line"/>
      <point x="205" y="0" type="line"/>
    </contour>
  </outline>
</glyph>
<glyph name="w" format="2">
  <advance width="664"/>
  <unicode hex="0077"/>
  <anchor x="406.0" y="510.0" name="top"/>
  <outline>
    <contour>
      <point x="186" y="0" type="line"/>
      <point x="202" y="0" type="line"/>
      <point x="242" y="84" type="line"/>
      <point x="242" y="122" type="line"/>
      <point x="235" y="122" type="line"/>
      <point x="174" y="460" type="line"/>
      <point x="171" y="460" type="line"/>
      <point x="23" y="430" type="line"/>
      <point x="23" y="424" type="line"/>
      <point x="136" y="384" type="line"/>
      <point x="102" y="423" type="line"/>
    </contour>
    <contour>
      <point x="389" y="450" type="line"/>
      <point x="197" y="33" type="line"/>
      <point x="197" y="0" type="line"/>
      <point x="207" y="0" type="line"/>
      <point x="367" y="317" type="line"/>
      <point x="351" y="317" type="line"/>
      <point x="434" y="0" type="line"/>
      <point x="447" y="0" type="line"/>
      <point x="489" y="83" type="line"/>
      <point x="403" y="450" type="line"/>
    </contour>
    <contour>
      <point x="455" y="0" type="line"/>
      <point x="587" y="228" type="line" smooth="yes"/>
      <point x="635" y="311"/>
      <point x="655" y="349"/>
      <point x="655" y="381" type="curve" smooth="yes"/>
      <point x="655" y="421"/>
      <point x="623" y="460"/>
      <point x="594" y="460" type="curve" smooth="yes"/>
      <point x="585" y="460"/>
      <point x="577" y="455"/>
      <point x="570" y="447" type="curve" smooth="yes"/>
      <point x="543" y="414" type="line"/>
      <point x="616" y="352" type="line"/>
      <point x="596" y="405" type="line"/>
      <point x="608" y="343"/>
      <point x="584" y="295"/>
      <point x="549" y="229" type="curve" smooth="yes"/>
      <point x="487" y="110" type="line"/>
      <point x="442" y="110" type="line"/>
      <point x="442" y="0" type="line"/>
    </contour>
  </outline>
</glyph>
<glyph name="x" format="1">
  <advance width="448.0"/>
  <unicode hex="0078"/>
  <outline>
    <contour>
      <point x="283" y="0" type="line"/>
      <point x="286" y="0" type="line"/>
      <point x="409" y="30" type="line"/>
      <point x="409" y="36" type="line"/>
      <point x="320" y="72" type="line"/>
      <point x="336" y="62" type="line"/>
      <point x="178" y="460" type="line"/>
      <point x="176" y="460" type="line"/>
      <point x="48" y="430" type="line"/>
      <point x="48" y="424" type="line"/>
      <point x="142" y="386" type="line"/>
      <point x="121" y="402" type="line"/>
    </contour>
    <contour>
      <point x="425" y="450" type="curve"/>
      <point x="367" y="450" type="line"/>
      <point x="354.028574338" y="420.06594078"/>
      <point x="349.357134594" y="407.165311851"/>
      <point x="226" y="247" type="curve"/>
      <point x="247" y="237" type="line"/>
      <point x="389" y="402"/>
      <point x="424" y="420"/>
    </contour>
    <contour>
      <point x="2" y="0" type="curve"/>
      <point x="63" y="0" type="line"/>
      <point x="78" y="34"/>
      <point x="84" y="46"/>
      <point x="226" y="231" type="curve"/>
      <point x="205" y="241" type="line"/>
      <point x="45" y="54"/>
      <point x="3" y="34"/>
    </contour>
  </outline>
</glyph>
<glyph name="y" format="2">
  <advance width="447"/>
  <unicode hex="0079"/>
  <anchor x="294.0" y="510.0" name="top"/>
  <anchor x="243" y="-28" name="bottom"/>
  <outline>
    <contour>
      <point x="17" y="424" type="line"/>
      <point x="130" y="381" type="line"/>
      <point x="95" y="421" type="line"/>
      <point x="189" y="0" type="line"/>
      <point x="252" y="67" type="line"/>
      <point x="252" y="105" type="line"/>
      <point x="244" y="105" type="line"/>
      <point x="168" y="460" type="line"/>
      <point x="165" y="460" type="line"/>
      <point x="17" y="430" type="line"/>
    </contour>
    <contour>
      <point x="325" y="229" type="curve" smooth="yes"/>
      <point x="141" y="-70" type="line" smooth="yes"/>
      <point x="88" y="-156"/>
      <point x="87" y="-157"/>
      <point x="21" y="-185" type="curve"/>
      <point x="95" y="-170" type="line"/>
      <point x="-20" y="-155" type="line"/>
      <point x="-28" y="-167"/>
      <point x="-34" y="-182"/>
      <point x="-34" y="-196" type="curve" smooth="yes"/>
      <point x="-34" y="-225"/>
      <point x="-19" y="-240"/>
      <point x="9" y="-240" type="curve" smooth="yes"/>
      <point x="45" y="-240"/>
      <point x="93" y="-208"/>
      <point x="134" y="-142" type="curve" smooth="yes"/>
      <point x="365" y="228" type="line" smooth="yes"/>
      <point x="417" y="311"/>
      <point x="437" y="349"/>
      <point x="437" y="381" type="curve" smooth="yes"/>
      <point x="437" y="421"/>
      <point x="405" y="460"/>
      <point x="376" y="460" type="curve" smooth="yes"/>
      <point x="367" y="460"/>
      <point x="359" y="455"/>
      <point x="352" y="447" type="curve" smooth="yes"/>
      <point x="325" y="414" type="line"/>
      <point x="398" y="352" type="line"/>
      <point x="378" y="405" type="line"/>
      <point x="390" y="343"/>
      <point x="365" y="295"/>
    </contour>
  </outline>
</glyph>
<glyph name="z" format="2">
  <advance width="401"/>
  <unicode hex="007A"/>
  <anchor x="250" y="510" name="top"/>
  <anchor x="161" y="0" name="bottom"/>
  <outline>
    <contour>
      <point x="28" y="0" type="line"/>
      <point x="319" y="0" type="line"/>
      <point x="349" y="156" type="line"/>
      <point x="333" y="156" type="line"/>
      <point x="264" y="33" type="line"/>
      <point x="319" y="66" type="line"/>
      <point x="95" y="66" type="line"/>
      <point x="77" y="32" type="line"/>
      <point x="374" y="431" type="line"/>
      <point x="363" y="450" type="line"/>
      <point x="95" y="450" type="line"/>
      <point x="74" y="314" type="line"/>
      <point x="90" y="314" type="line"/>
      <point x="147" y="410" type="line"/>
      <point x="107" y="384" type="line"/>
      <point x="319" y="384" type="line"/>
      <point x="319" y="419" type="line"/>
      <point x="16" y="15" type="line"/>
    </contour>
  </outline>
</glyph>
<glyph name="braceleft" format="1">
  <advance width="250"/>
  <unicode hex="007B"/>
  <outline>
    <contour>
      <point x="176" y="-150" type="line"/>
      <point x="180" y="-127" type="line"/>
      <point x="154" y="-127" type="line" smooth="yes"/>
      <point x="108" y="-127"/>
      <point x="84" y="-108"/>
      <point x="84" y="-62" type="curve" smooth="yes"/>
      <point x="84" y="9"/>
      <point x="166" y="140"/>
      <point x="166" y="201" type="curve" smooth="yes"/>
      <point x="166" y="245"/>
      <point x="150" y="273"/>
      <point x="102" y="295" type="curve"/>
      <point x="183" y="334"/>
      <point x="206" y="387"/>
      <point x="206" y="448" type="curve" smooth="yes"/>
      <point x="206" y="491"/>
      <point x="194" y="534"/>
      <point x="194" y="582" type="curve" smooth="yes"/>
      <point x="194" y="661"/>
      <point x="224" y="717"/>
      <point x="294" y="717" type="curve" smooth="yes"/>
      <point x="320" y="717" type="line"/>
      <point x="324" y="740" type="line"/>
      <point x="306" y="740" type="line" smooth="yes"/>
      <point x="185" y="740"/>
      <point x="131" y="670"/>
      <point x="131" y="566" type="curve" smooth="yes"/>
      <point x="131" y="513"/>
      <point x="146" y="467"/>
      <point x="146" y="422" type="curve" smooth="yes"/>
      <point x="146" y="363"/>
      <point x="123" y="307"/>
      <point x="47" y="307" type="curve" smooth="yes"/>
      <point x="24" y="307" type="line"/>
      <point x="20" y="284" type="line"/>
      <point x="44" y="284" type="line" smooth="yes"/>
      <point x="94" y="284"/>
      <point x="112" y="256"/>
      <point x="112" y="221" type="curve" smooth="yes"/>
      <point x="112" y="137"/>
      <point x="28" y="44"/>
      <point x="28" y="-47" type="curve" smooth="yes"/>
      <point x="28" y="-109"/>
      <point x="67" y="-150"/>
      <point x="158" y="-150" type="curve" smooth="yes"/>
    </contour>
  </outline>
</glyph>
<glyph name="bar" format="2">
  <advance width="250"/>
  <unicode hex="007C"/>
  <outline>
    <contour>
      <point x="13" y="-250" type="line"/>
      <point x="60" y="-250" type="line"/>
      <point x="237" y="750" type="line"/>
      <point x="189" y="750" type="line"/>
    </contour>
  </outline>
</glyph>
<glyph name="braceright" format="1">
  <advance width="250"/>
  <unicode hex="007D"/>
  <outline>
    <contour>
      <point x="-60" y="-150" type="line"/>
      <point x="-42" y="-150" type="line" smooth="yes"/>
      <point x="79" y="-150"/>
      <point x="133" y="-80"/>
      <point x="133" y="24" type="curve" smooth="yes"/>
      <point x="133" y="77"/>
      <point x="118" y="123"/>
      <point x="118" y="168" type="curve" smooth="yes"/>
      <point x="118" y="227"/>
      <point x="141" y="283"/>
      <point x="217" y="283" type="curve" smooth="yes"/>
      <point x="240" y="283" type="line"/>
      <point x="244" y="306" type="line"/>
      <point x="220" y="306" type="line" smooth="yes"/>
      <point x="170" y="306"/>
      <point x="152" y="334"/>
      <point x="152" y="369" type="curve" smooth="yes"/>
      <point x="152" y="453"/>
      <point x="236" y="546"/>
      <point x="236" y="637" type="curve" smooth="yes"/>
      <point x="236" y="699"/>
      <point x="197" y="740"/>
      <point x="106" y="740" type="curve" smooth="yes"/>
      <point x="88" y="740" type="line"/>
      <point x="84" y="717" type="line"/>
      <point x="110" y="717" type="line" smooth="yes"/>
      <point x="156" y="717"/>
      <point x="180" y="698"/>
      <point x="180" y="652" type="curve" smooth="yes"/>
      <point x="180" y="581"/>
      <point x="98" y="450"/>
      <point x="98" y="389" type="curve" smooth="yes"/>
      <point x="98" y="345"/>
      <point x="114" y="317"/>
      <point x="162" y="295" type="curve"/>
      <point x="81" y="256"/>
      <point x="58" y="203"/>
      <point x="58" y="142" type="curve" smooth="yes"/>
      <point x="58" y="99"/>
      <point x="70" y="56"/>
      <point x="70" y="8" type="curve" smooth="yes"/>
      <point x="70" y="-71"/>
      <point x="40" y="-127"/>
      <point x="-30" y="-127" type="curve" smooth="yes"/>
      <point x="-56" y="-127" type="line"/>
    </contour>
  </outline>
</glyph>
<glyph name="asciitilde" format="1">
  <advance width="500"/>
  <unicode hex="007E"/>
  <outline>
    <contour>
      <point x="337" y="201" type="curve" smooth="yes"/>
      <point x="402" y="201"/>
      <point x="452" y="253"/>
      <point x="466" y="343" type="curve"/>
      <point x="420" y="343" type="line"/>
      <point x="411" y="291"/>
      <point x="389" y="245"/>
      <point x="341" y="245" type="curve" smooth="yes"/>
      <point x="266" y="245"/>
      <point x="253" y="343"/>
      <point x="153" y="343" type="curve" smooth="yes"/>
      <point x="88" y="343"/>
      <point x="38" y="291"/>
      <point x="24" y="201" type="curve"/>
      <point x="70" y="201" type="line"/>
      <point x="79" y="253"/>
      <point x="101" y="299"/>
      <point x="149" y="299" type="curve" smooth="yes"/>
      <point x="224" y="299"/>
      <point x="237" y="201"/>
    </contour>
  </outline>
</glyph>
<glyph name="exclamdown" format="2">
  <advance width="241"/>
  <unicode hex="00A1"/>
  <outline>
    <contour>
      <point x="-22" y="-210" type="line"/>
      <point x="72" y="-210" type="line"/>
      <point x="115" y="250" type="line"/>
      <point x="97" y="250" type="line"/>
    </contour>
    <contour>
      <point x="128" y="340" type="curve" smooth="yes"/>
      <point x="164" y="340"/>
      <point x="189" y="371"/>
      <point x="189" y="405" type="curve" smooth="yes"/>
      <point x="189" y="434"/>
      <point x="174" y="455"/>
      <point x="141" y="455" type="curve" smooth="yes"/>
      <point x="104" y="455"/>
      <point x="80" y="424"/>
      <point x="80" y="390" type="curve" smooth="yes"/>
      <point x="80" y="361"/>
      <point x="95" y="340"/>
    </contour>
  </outline>
</glyph>
<glyph name="cent" format="2">
  <advance width="500"/>
  <unicode hex="00A2"/>
  <outline>
    <contour>
      <point x="131" y="26" type="line"/>
      <point x="167" y="26" type="line"/>
      <point x="411" y="635" type="line"/>
      <point x="375" y="635" type="line"/>
    </contour>
    <contour>
      <point x="166" y="304" type="curve"/>
      <point x="166" y="419"/>
      <point x="256" y="527"/>
      <point x="340" y="527" type="curve" smooth="yes"/>
      <point x="345" y="527"/>
      <point x="351" y="526"/>
      <point x="354" y="525" type="curve"/>
      <point x="337" y="532" type="line"/>
      <point x="396" y="441" type="line"/>
      <point x="432" y="464" type="line" smooth="yes"/>
      <point x="442" y="470"/>
      <point x="446" y="479"/>
      <point x="446" y="489" type="curve" smooth="yes"/>
      <point x="446" y="515"/>
      <point x="415" y="565"/>
      <point x="352" y="565" type="curve" smooth="yes"/>
      <point x="209" y="565"/>
      <point x="86" y="405"/>
      <point x="86" y="265" type="curve" smooth="yes"/>
      <point x="86" y="154"/>
      <point x="138" y="95"/>
      <point x="234" y="95" type="curve" smooth="yes"/>
      <point x="302" y="95"/>
      <point x="359" y="143"/>
      <point x="415" y="242" type="curve"/>
      <point x="399" y="254" type="line"/>
      <point x="397" y="254" type="line"/>
      <point x="347" y="183"/>
      <point x="311" y="162"/>
      <point x="261" y="162" type="curve" smooth="yes"/>
      <point x="195" y="162"/>
      <point x="166" y="213"/>
    </contour>
  </outline>
</glyph>
<glyph name="currency" format="2">
  <advance width="500"/>
  <unicode hex="00A4"/>
  <outline>
    <contour>
      <point x="368" y="62" type="line"/>
      <point x="408" y="94" type="line"/>
      <point x="354" y="164" type="line"/>
      <point x="387" y="198"/>
      <point x="402" y="242"/>
      <point x="402" y="289" type="curve" smooth="yes"/>
      <point x="402" y="317"/>
      <point x="395" y="344"/>
      <point x="382" y="367" type="curve"/>
      <point x="471" y="446" type="line"/>
      <point x="441" y="482" type="line"/>
      <point x="352" y="403" type="line"/>
      <point x="328" y="423"/>
      <point x="294" y="434"/>
      <point x="257" y="434" type="curve" smooth="yes"/>
      <point x="222" y="434"/>
      <point x="192" y="426"/>
      <point x="167" y="411" type="curve"/>
      <point x="112" y="482" type="line"/>
      <point x="72" y="450" type="line"/>
      <point x="127" y="380" type="line"/>
      <point x="94" y="346"/>
      <point x="79" y="302"/>
      <point x="79" y="256" type="curve" smooth="yes"/>
      <point x="79" y="227"/>
      <point x="86" y="200"/>
      <point x="99" y="178" type="curve"/>
      <point x="9" y="98" type="line"/>
      <point x="39" y="62" type="line"/>
      <point x="129" y="142" type="line"/>
      <point x="153" y="122"/>
      <point x="187" y="110"/>
      <point x="225" y="110" type="curve" smooth="yes"/>
      <point x="259" y="110"/>
      <point x="289" y="118"/>
      <point x="314" y="133" type="curve"/>
    </contour>
    <contour>
      <point x="231" y="153" type="curve" smooth="yes"/>
      <point x="169" y="153"/>
      <point x="128" y="192"/>
      <point x="128" y="260" type="curve" smooth="yes"/>
      <point x="128" y="334"/>
      <point x="179" y="391"/>
      <point x="251" y="391" type="curve" smooth="yes"/>
      <point x="312" y="391"/>
      <point x="353" y="352"/>
      <point x="353" y="285" type="curve" smooth="yes"/>
      <point x="353" y="210"/>
      <point x="302" y="153"/>
    </contour>
  </outline>
</glyph>
<glyph name="yen" format="2">
  <advance width="500"/>
  <unicode hex="00A5"/>
  <outline>
    <contour>
      <point x="94" y="0" type="line"/>
      <point x="328" y="0" type="line"/>
      <point x="331" y="16" type="line"/>
      <point x="257" y="56" type="line"/>
      <point x="319" y="426" type="line"/>
      <point x="294" y="367" type="line"/>
      <point x="519" y="639" type="line"/>
      <point x="462" y="606" type="line"/>
      <point x="554" y="644" type="line"/>
      <point x="557" y="660" type="line"/>
      <point x="392" y="660" type="line"/>
      <point x="389" y="644" type="line"/>
      <point x="445" y="618" type="line"/>
      <point x="444" y="615" type="line"/>
      <point x="294" y="421" type="line"/>
      <point x="304" y="422" type="line"/>
      <point x="206" y="620" type="line"/>
      <point x="206" y="622" type="line"/>
      <point x="268" y="644" type="line"/>
      <point x="271" y="660" type="line"/>
      <point x="91" y="660" type="line"/>
      <point x="88" y="644" type="line"/>
      <point x="152" y="606" type="line"/>
      <point x="110" y="639" type="line"/>
      <point x="259" y="355" type="line"/>
      <point x="246" y="426" type="line"/>
      <point x="184" y="56" type="line"/>
      <point x="97" y="16" type="line"/>
    </contour>
    <contour>
      <point x="84" y="239" type="line"/>
      <point x="417" y="239" type="line"/>
      <point x="424" y="277" type="line"/>
      <point x="91" y="277" type="line"/>
    </contour>
    <contour>
      <point x="109" y="389" type="line"/>
      <point x="441" y="389" type="line"/>
      <point x="449" y="427" type="line"/>
      <point x="116" y="427" type="line"/>
    </contour>
  </outline>
</glyph>
<glyph name="brokenbar" format="1">
  <advance width="250"/>
  <unicode hex="00A6"/>
  <outline>
    <contour>
      <point x="119" y="350" type="line"/>
      <point x="167" y="350" type="line"/>
      <point x="237" y="750" type="line"/>
      <point x="189" y="750" type="line"/>
    </contour>
    <contour>
      <point x="13" y="-250" type="line"/>
      <point x="60" y="-250" type="line"/>
      <point x="130" y="150" type="line"/>
      <point x="83" y="150" type="line"/>
    </contour>
  </outline>
</glyph>
<glyph name="section" format="1">
  <advance width="499.12805562"/>
  <unicode hex="00A7"/>
  <outline>
    <contour>
      <point x="442" y="301" type="curve" smooth="yes"/>
      <point x="442" y="459"/>
      <point x="200" y="400"/>
      <point x="200" y="531" type="curve" smooth="yes"/>
      <point x="200" y="588"/>
      <point x="244" y="620"/>
      <point x="294" y="620" type="curve" smooth="yes"/>
      <point x="332" y="620"/>
      <point x="356" y="600"/>
      <point x="374" y="576" type="curve" smooth="yes"/>
      <point x="390" y="554" type="line"/>
      <point x="394" y="554" type="line"/>
      <point x="433" y="587" type="line" smooth="yes"/>
      <point x="443" y="596"/>
      <point x="448" y="603"/>
      <point x="449" y="609" type="curve" smooth="yes"/>
      <point x="450" y="618"/>
      <point x="445" y="626"/>
      <point x="439" y="636" type="curve" smooth="yes"/>
      <point x="423" y="655"/>
      <point x="399" y="670"/>
      <point x="365" y="670" type="curve" smooth="yes"/>
      <point x="228" y="670"/>
      <point x="135" y="588"/>
      <point x="135" y="490" type="curve" smooth="yes"/>
      <point x="135" y="331"/>
      <point x="375" y="407"/>
      <point x="375" y="262" type="curve" smooth="yes"/>
      <point x="375" y="209"/>
      <point x="319" y="169"/>
      <point x="259" y="169" type="curve"/>
      <point x="241" y="134" type="line"/>
      <point x="369" y="151"/>
      <point x="442" y="210"/>
    </contour>
    <contour>
      <point x="112" y="-120" type="curve" smooth="yes"/>
      <point x="222" y="-120"/>
      <point x="341" y="-34"/>
      <point x="341" y="64" type="curve" smooth="yes"/>
      <point x="341" y="220"/>
      <point x="102" y="147"/>
      <point x="102" y="291" type="curve" smooth="yes"/>
      <point x="102" y="347"/>
      <point x="139" y="388"/>
      <point x="215" y="390" type="curve"/>
      <point x="240" y="425" type="line"/>
      <point x="109" y="411"/>
      <point x="33" y="343"/>
      <point x="33" y="252" type="curve" smooth="yes"/>
      <point x="33" y="96"/>
      <point x="272" y="153"/>
      <point x="274" y="28" type="curve" smooth="yes"/>
      <point x="275" y="-22"/>
      <point x="242" y="-66"/>
      <point x="175" y="-66" type="curve" smooth="yes"/>
      <point x="133" y="-66"/>
      <point x="109" y="-42"/>
      <point x="91" y="-16" type="curve" smooth="yes"/>
      <point x="74" y="8" type="line"/>
      <point x="69" y="8" type="line"/>
      <point x="27" y="-28" type="line" smooth="yes"/>
      <point x="16" y="-36"/>
      <point x="11" y="-46"/>
      <point x="11" y="-51" type="curve" smooth="yes"/>
      <point x="9" y="-60"/>
      <point x="13" y="-69"/>
      <point x="22" y="-81" type="curve" smooth="yes"/>
      <point x="38" y="-101"/>
      <point x="75" y="-120"/>
    </contour>
  </outline>
</glyph>
<glyph name="copyright" format="2">
  <advance width="806"/>
  <unicode hex="00A9"/>
  <outline>
    <contour>
      <point x="361" y="-10" type="curve" smooth="yes"/>
      <point x="586" y="-10"/>
      <point x="740" y="172"/>
      <point x="740" y="374" type="curve" smooth="yes"/>
      <point x="740" y="543"/>
      <point x="617" y="670"/>
      <point x="444" y="670" type="curve" smooth="yes"/>
      <point x="219" y="670"/>
      <point x="66" y="488"/>
      <point x="66" y="287" type="curve" smooth="yes"/>
      <point x="66" y="117"/>
      <point x="188" y="-10"/>
    </contour>
    <contour>
      <point x="363" y="24" type="curve" smooth="yes"/>
      <point x="212" y="24"/>
      <point x="107" y="138"/>
      <point x="107" y="291" type="curve" smooth="yes"/>
      <point x="107" y="484"/>
      <point x="250" y="636"/>
      <point x="442" y="636" type="curve" smooth="yes"/>
      <point x="595" y="636"/>
      <point x="699" y="521"/>
      <point x="699" y="370" type="curve" smooth="yes"/>
      <point x="699" y="176"/>
      <point x="556" y="24"/>
    </contour>
    <contour>
      <point x="378" y="129" type="curve" smooth="yes"/>
      <point x="425.982758621" y="129.0"/>
      <point x="460.815310771" y="142.295590188"/>
      <point x="499" y="165" type="curve"/>
      <point x="524" y="266" type="line"/>
      <point x="498" y="266" type="line"/>
      <point x="442" y="176" type="line"/>
      <point x="473" y="210" type="line"/>
      <point x="449.858192179" y="194.572128119"/>
      <point x="423.708333333" y="175.0"/>
      <point x="382" y="175" type="curve" smooth="yes"/>
      <point x="325.0" y="175.0"/>
      <point x="287" y="218"/>
      <point x="287" y="293" type="curve" smooth="yes"/>
      <point x="287" y="414"/>
      <point x="347" y="495"/>
      <point x="434" y="495" type="curve" smooth="yes"/>
      <point x="464" y="495"/>
      <point x="481.15003838" y="484.651751446"/>
      <point x="511" y="458" type="curve"/>
      <point x="496" y="480" type="line"/>
      <point x="514" y="394" type="line"/>
      <point x="540" y="394" type="line"/>
      <point x="557" y="509" type="line"/>
      <point x="526" y="528"/>
      <point x="498" y="540"/>
      <point x="446" y="540" type="curve" smooth="yes"/>
      <point x="316" y="540"/>
      <point x="221.0" y="421.0"/>
      <point x="221" y="295" type="curve" smooth="yes"/>
      <point x="221.0" y="197.0"/>
      <point x="277.209876543" y="129.0"/>
    </contour>
  </outline>
</glyph>
<glyph name="ordfeminine" format="1">
  <advance width="400"/>
  <unicode hex="00AA"/>
  <outline>
    <contour>
      <point x="154" y="417" type="curve" smooth="yes"/>
      <point x="187.622222222" y="417.0"/>
      <point x="216.093543323" y="437.138582701"/>
      <point x="243" y="477" type="curve"/>
      <point x="263" y="477" type="line"/>
      <point x="263" y="535" type="line"/>
      <point x="246" y="506"/>
      <point x="221" y="461"/>
      <point x="192" y="461" type="curve" smooth="yes"/>
      <point x="175" y="461"/>
      <point x="170" y="479"/>
      <point x="170" y="512" type="curve" smooth="yes"/>
      <point x="170" y="575"/>
      <point x="195" y="649"/>
      <point x="236" y="649" type="curve" smooth="yes"/>
      <point x="251" y="649"/>
      <point x="265" y="639"/>
      <point x="273" y="617" type="curve"/>
      <point x="274" y="632" type="line"/>
      <point x="246" y="478" type="line" smooth="yes"/>
      <point x="240" y="446"/>
      <point x="249" y="417"/>
      <point x="288" y="417" type="curve" smooth="yes"/>
      <point x="316" y="417"/>
      <point x="346" y="440"/>
      <point x="369" y="492" type="curve"/>
      <point x="356" y="497" type="line"/>
      <point x="341" y="469"/>
      <point x="330" y="456"/>
      <point x="320" y="456" type="curve" smooth="yes"/>
      <point x="310" y="456"/>
      <point x="306" y="465"/>
      <point x="310" y="486" type="curve" smooth="yes"/>
      <point x="344" y="670" type="line"/>
      <point x="331" y="670" type="line"/>
      <point x="288" y="645" type="line"/>
      <point x="303" y="646" type="line"/>
      <point x="292" y="659"/>
      <point x="266" y="670"/>
      <point x="240" y="670" type="curve" smooth="yes"/>
      <point x="167" y="670"/>
      <point x="106" y="580"/>
      <point x="106" y="491" type="curve" smooth="yes"/>
      <point x="106" y="442"/>
      <point x="125" y="417"/>
    </contour>
    <contour>
      <point x="80" y="292" type="line"/>
      <point x="310" y="292" type="line"/>
      <point x="319" y="342" type="line"/>
      <point x="89" y="342" type="line"/>
    </contour>
  </outline>
</glyph>
<glyph name="logicalnot" format="2">
  <advance width="500"/>
  <unicode hex="00AC"/>
  <outline>
    <contour>
      <point x="363" y="62" type="line"/>
      <point x="412" y="62" type="line"/>
      <point x="453" y="295" type="line"/>
      <point x="35" y="295" type="line"/>
      <point x="27" y="249" type="line"/>
      <point x="396" y="249" type="line"/>
    </contour>
  </outline>
</glyph>
<glyph name="registered" format="1">
  <advance width="500"/>
  <unicode hex="00AE"/>
  <outline>
    <contour>
      <point x="244" y="238" type="curve" smooth="yes"/>
      <point x="387" y="238"/>
      <point x="485" y="351"/>
      <point x="485" y="482" type="curve" smooth="yes"/>
      <point x="485" y="589"/>
      <point x="407" y="670"/>
      <point x="297" y="670" type="curve" smooth="yes"/>
      <point x="154" y="670"/>
      <point x="56" y="556"/>
      <point x="56" y="426" type="curve" smooth="yes"/>
      <point x="56" y="318"/>
      <point x="134" y="238"/>
    </contour>
    <contour>
      <point x="247" y="266" type="curve" smooth="yes"/>
      <point x="152" y="266"/>
      <point x="88" y="337"/>
      <point x="88" y="426" type="curve" smooth="yes"/>
      <point x="88" y="553"/>
      <point x="179" y="642"/>
      <point x="293" y="642" type="curve" smooth="yes"/>
      <point x="388" y="642"/>
      <point x="452" y="571"/>
      <point x="452" y="482" type="curve" smooth="yes"/>
      <point x="452" y="355"/>
      <point x="361" y="266"/>
    </contour>
    <contour>
      <point x="138" y="329" type="line"/>
      <point x="241" y="329" type="line"/>
      <point x="242" y="336" type="line"/>
      <point x="215" y="352" type="line"/>
      <point x="256" y="584" type="line"/>
      <point x="183" y="584" type="line"/>
      <point x="182" y="578" type="line"/>
      <point x="210" y="562" type="line"/>
      <point x="173" y="352" type="line"/>
      <point x="139" y="336" type="line"/>
    </contour>
    <contour>
      <point x="367" y="527" type="curve" smooth="yes"/>
      <point x="367" y="563"/>
      <point x="339" y="584"/>
      <point x="290" y="584" type="curve" smooth="yes"/>
      <point x="231" y="584" type="line"/>
      <point x="227" y="561" type="line"/>
      <point x="274" y="561" type="line" smooth="yes"/>
      <point x="302" y="561"/>
      <point x="321" y="550"/>
      <point x="321" y="525" type="curve" smooth="yes"/>
      <point x="321" y="490"/>
      <point x="294" y="469"/>
      <point x="260" y="469" type="curve" smooth="yes"/>
      <point x="214" y="469" type="line"/>
      <point x="210" y="446" type="line"/>
      <point x="270" y="446" type="line"/>
      <point x="270" y="449" type="line"/>
      <point x="328" y="455"/>
      <point x="367" y="486"/>
    </contour>
    <contour>
      <point x="294" y="329" type="line"/>
      <point x="358" y="329" type="line"/>
      <point x="359" y="336" type="line"/>
      <point x="336" y="349" type="line"/>
      <point x="298" y="461" type="line"/>
      <point x="252" y="461" type="line"/>
    </contour>
  </outline>
</glyph>
<glyph name="degree" format="1">
  <advance width="500"/>
  <unicode hex="00B0"/>
  <outline>
    <contour>
      <point x="290" y="410" type="curve" smooth="yes"/>
      <point x="365" y="410"/>
      <point x="420" y="470"/>
      <point x="420" y="540" type="curve" smooth="yes"/>
      <point x="420" y="610"/>
      <point x="365" y="670"/>
      <point x="290" y="670" type="curve" smooth="yes"/>
      <point x="215" y="670"/>
      <point x="160" y="610"/>
      <point x="160" y="540" type="curve" smooth="yes"/>
      <point x="160" y="470"/>
      <point x="215" y="410"/>
    </contour>
    <contour>
      <point x="290" y="449" type="curve" smooth="yes"/>
      <point x="241" y="449"/>
      <point x="202" y="484"/>
      <point x="202" y="540" type="curve" smooth="yes"/>
      <point x="202" y="596"/>
      <point x="241" y="631"/>
      <point x="290" y="631" type="curve" smooth="yes"/>
      <point x="339" y="631"/>
      <point x="378" y="596"/>
      <point x="378" y="540" type="curve" smooth="yes"/>
      <point x="378" y="484"/>
      <point x="339" y="449"/>
    </contour>
  </outline>
</glyph>
<glyph name="plusminus" format="1">
  <advance width="500"/>
  <unicode hex="00B1"/>
  <outline>
    <contour>
      <point x="413" y="64" type="line"/>
      <point x="421" y="110" type="line"/>
      <point x="3" y="110" type="line"/>
      <point x="-5" y="64" type="line"/>
    </contour>
    <contour>
      <point x="452" y="289" type="line"/>
      <point x="460" y="335" type="line"/>
      <point x="42" y="335" type="line"/>
      <point x="34" y="289" type="line"/>
    </contour>
    <contour>
      <point x="253" y="482" type="line"/>
      <point x="195" y="152" type="line"/>
      <point x="244" y="152" type="line"/>
      <point x="302" y="482" type="line"/>
    </contour>
  </outline>
</glyph>
<glyph name="paragraph" format="2">
  <advance width="475"/>
  <unicode hex="00B6"/>
  <outline>
    <contour>
      <point x="149" y="-110" type="line"/>
      <point x="196" y="-110" type="line"/>
      <point x="338" y="660" type="line"/>
      <point x="234" y="660" type="line" smooth="yes"/>
      <point x="123" y="660"/>
      <point x="42" y="598"/>
      <point x="42" y="493" type="curve" smooth="yes"/>
      <point x="42" y="411"/>
      <point x="102" y="359"/>
      <point x="194" y="359" type="curve" smooth="yes"/>
      <point x="235" y="359" type="line"/>
    </contour>
    <contour>
      <point x="253" y="-110" type="line"/>
      <point x="301" y="-110" type="line"/>
      <point x="432" y="604" type="line"/>
      <point x="515" y="644" type="line"/>
      <point x="518" y="660" type="line"/>
      <point x="395" y="660" type="line"/>
    </contour>
  </outline>
</glyph>
<glyph name="periodcentered" format="1">
  <advance width="250"/>
  <unicode hex="00B7"/>
  <outline>
    <contour>
      <point x="118" y="214" type="curve" smooth="yes"/>
      <point x="155" y="214"/>
      <point x="179" y="245"/>
      <point x="179" y="279" type="curve" smooth="yes"/>
      <point x="179" y="308"/>
      <point x="164" y="329"/>
      <point x="131" y="329" type="curve" smooth="yes"/>
      <point x="95" y="329"/>
      <point x="70" y="298"/>
      <point x="70" y="264" type="curve" smooth="yes"/>
      <point x="70" y="235"/>
      <point x="85" y="214"/>
    </contour>
  </outline>
</glyph>
<glyph name="ordmasculine" format="2">
  <advance width="400"/>
  <unicode hex="00BA"/>
  <outline>
    <contour>
      <point x="199" y="417" type="curve" smooth="yes"/>
      <point x="286" y="417"/>
      <point x="341" y="494"/>
      <point x="341" y="566" type="curve" smooth="yes"/>
      <point x="341" y="627"/>
      <point x="308" y="670"/>
      <point x="237" y="670" type="curve" smooth="yes"/>
      <point x="152" y="670"/>
      <point x="95" y="596"/>
      <point x="95" y="522" type="curve" smooth="yes"/>
      <point x="95" y="460"/>
      <point x="128" y="417"/>
    </contour>
    <contour>
      <point x="204" y="440" type="curve" smooth="yes"/>
      <point x="176" y="440"/>
      <point x="168" y="474"/>
      <point x="168" y="520" type="curve" smooth="yes"/>
      <point x="168" y="591"/>
      <point x="192" y="648"/>
      <point x="233" y="648" type="curve" smooth="yes"/>
      <point x="261" y="648"/>
      <point x="268" y="615"/>
      <point x="268" y="569" type="curve" smooth="yes"/>
      <point x="268" y="504"/>
      <point x="245" y="440"/>
    </contour>
    <contour>
      <point x="59" y="292" type="line"/>
      <point x="289" y="292" type="line"/>
      <point x="298" y="342" type="line"/>
      <point x="68" y="342" type="line"/>
    </contour>
  </outline>
</glyph>
<glyph name="questiondown" format="2">
  <advance width="404"/>
  <unicode hex="00BF"/>
  <outline>
    <contour>
      <point x="240" y="460" type="curve" smooth="yes"/>
      <point x="203" y="460"/>
      <point x="179" y="429"/>
      <point x="179" y="395" type="curve" smooth="yes"/>
      <point x="179" y="366"/>
      <point x="194" y="345"/>
      <point x="227" y="345" type="curve" smooth="yes"/>
      <point x="263" y="345"/>
      <point x="288" y="376"/>
      <point x="288" y="410" type="curve" smooth="yes"/>
      <point x="288" y="439"/>
      <point x="273" y="460"/>
    </contour>
    <contour>
      <point x="193" y="264" type="curve"/>
      <point x="180" y="252" type="line"/>
      <point x="198" y="232"/>
      <point x="208" y="212"/>
      <point x="208" y="185" type="curve" smooth="yes"/>
      <point x="208" y="144"/>
      <point x="188" y="116"/>
      <point x="108" y="89" type="curve" smooth="yes"/>
      <point x="28" y="62"/>
      <point x="-6" y="29"/>
      <point x="-6" y="-35" type="curve" smooth="yes"/>
      <point x="-6" y="-127"/>
      <point x="114" y="-214"/>
      <point x="197" y="-214" type="curve" smooth="yes"/>
      <point x="243" y="-214"/>
      <point x="269" y="-196"/>
      <point x="269" y="-173" type="curve" smooth="yes"/>
      <point x="269" y="-167"/>
      <point x="268" y="-163"/>
      <point x="265" y="-155" type="curve" smooth="yes"/>
      <point x="250" y="-116" type="line"/>
      <point x="112" y="-156" type="line"/>
      <point x="153" y="-166" type="line"/>
      <point x="80" y="-142"/>
      <point x="44" y="-100"/>
      <point x="44" y="-61" type="curve" smooth="yes"/>
      <point x="44" y="-25"/>
      <point x="63" y="-3"/>
      <point x="146" y="23" type="curve" smooth="yes"/>
      <point x="229" y="49"/>
      <point x="258" y="85"/>
      <point x="258" y="141" type="curve" smooth="yes"/>
      <point x="258" y="182"/>
      <point x="239" y="222"/>
    </contour>
  </outline>
</glyph>
<glyph name="AE" format="1">
  <advance width="950"/>
  <unicode hex="00C6"/>
  <outline>
    <contour>
      <point x="-15" y="0" type="line"/>
      <point x="185" y="0" type="line"/>
      <point x="188" y="16" type="line"/>
      <point x="92" y="55" type="line"/>
      <point x="102" y="28" type="line"/>
      <point x="536" y="609" type="line"/>
      <point x="520" y="599" type="line"/>
      <point x="425" y="56" type="line"/>
      <point x="342" y="16" type="line"/>
      <point x="339" y="0" type="line"/>
      <point x="500" y="0" type="line"/>
      <point x="617" y="660" type="line"/>
      <point x="517" y="660" type="line"/>
      <point x="37" y="28" type="line"/>
      <point x="99" y="71" type="line"/>
      <point x="-11" y="16" type="line"/>
    </contour>
    <contour>
      <point x="240" y="238" type="line"/>
      <point x="517" y="238" type="line"/>
      <point x="527" y="288" type="line"/>
      <point x="250" y="288" type="line"/>
    </contour>
    <contour>
      <point x="868" y="488" type="line"/>
      <point x="884" y="488" type="line"/>
      <point x="915" y="660" type="line"/>
      <point x="566" y="660" type="line"/>
      <point x="557" y="610" type="line"/>
      <point x="831" y="610" type="line"/>
    </contour>
    <contour>
      <point x="749" y="232" type="line"/>
      <point x="765" y="232" type="line"/>
      <point x="804" y="451" type="line"/>
      <point x="788" y="451" type="line"/>
      <point x="726" y="366" type="line"/>
      <point x="522" y="366" type="line"/>
      <point x="513" y="316" type="line"/>
      <point x="718" y="316" type="line"/>
    </contour>
    <contour>
      <point x="840" y="0" type="line"/>
      <point x="872" y="182" type="line"/>
      <point x="856" y="182" type="line"/>
      <point x="776" y="50" type="line"/>
      <point x="486" y="50" type="line"/>
      <point x="477" y="0" type="line"/>
    </contour>
    <contour>
      <point x="594" y="710" type="move" name="top"/>
    </contour>
  </outline>
</glyph>
<glyph name="Ccedilla" format="1">
  <advance width="669"/>
  <unicode hex="00C7"/>
  <outline>
    <contour>
      <point x="320" y="-10" type="curve" smooth="yes"/>
      <point x="430" y="-10"/>
      <point x="488" y="9"/>
      <point x="551" y="39" type="curve"/>
      <point x="589" y="198" type="line"/>
      <point x="573" y="198" type="line"/>
      <point x="493" y="89" type="line"/>
      <point x="454" y="64"/>
      <point x="405" y="36"/>
      <point x="347" y="36" type="curve" smooth="yes"/>
      <point x="233" y="36"/>
      <point x="153" y="128"/>
      <point x="153" y="286" type="curve" smooth="yes"/>
      <point x="153" y="466"/>
      <point x="252" y="624"/>
      <point x="433" y="624" type="curve" smooth="yes"/>
      <point x="484" y="624"/>
      <point x="514" y="606"/>
      <point x="547" y="571" type="curve"/>
      <point x="587" y="447" type="line"/>
      <point x="603" y="447" type="line"/>
      <point x="629" y="622" type="line"/>
      <point x="565" y="657"/>
      <point x="521" y="670"/>
      <point x="445" y="670" type="curve" smooth="yes"/>
      <point x="240" y="670"/>
      <point x="60" y="487"/>
      <point x="60" y="259" type="curve" smooth="yes"/>
      <point x="60" y="101"/>
      <point x="154" y="-10"/>
    </contour>
    <contour>
      <point x="286" y="-240" type="curve" smooth="yes"/>
      <point x="351" y="-240"/>
      <point x="390" y="-200"/>
      <point x="390" y="-151" type="curve" smooth="yes"/>
      <point x="390" y="-101"/>
      <point x="363" y="-74"/>
      <point x="294" y="-50" type="curve"/>
      <point x="298" y="-69" type="line"/>
      <point x="355" y="20" type="line"/>
      <point x="325" y="20" type="line"/>
      <point x="252" y="-95" type="line"/>
      <point x="315" y="-115"/>
      <point x="338" y="-132"/>
      <point x="338" y="-165" type="curve" smooth="yes"/>
      <point x="338" y="-195"/>
      <point x="316" y="-213"/>
      <point x="274" y="-213" type="curve" smooth="yes"/>
      <point x="247" y="-213"/>
      <point x="230" y="-207"/>
      <point x="213" y="-199" type="curve"/>
      <point x="210" y="-199" type="line"/>
      <point x="208" y="-210" type="line"/>
      <point x="222" y="-229"/>
      <point x="252" y="-240"/>
    </contour>
  </outline>
</glyph>
<glyph name="multiply" format="1">
  <advance width="500"/>
  <unicode hex="00D7"/>
  <outline>
    <contour>
      <point x="60" y="88" type="line"/>
      <point x="449" y="420" type="line"/>
      <point x="420" y="456" type="line"/>
      <point x="31" y="124" type="line"/>
    </contour>
    <contour>
      <point x="85" y="424" type="line"/>
      <point x="356" y="88" type="line"/>
      <point x="395" y="120" type="line"/>
      <point x="124" y="456" type="line"/>
    </contour>
  </outline>
</glyph>
<glyph name="Oslash" format="1">
  <advance width="766.0"/>
  <unicode hex="00D8"/>
  <outline>
    <contour>
      <point x="332" y="-10" type="curve" smooth="yes"/>
      <point x="551" y="-10"/>
      <point x="706" y="182"/>
      <point x="706" y="378" type="curve" smooth="yes"/>
      <point x="706" y="551"/>
      <point x="598" y="671"/>
      <point x="433" y="671" type="curve" smooth="yes"/>
      <point x="219" y="671"/>
      <point x="60" y="483"/>
      <point x="60" y="282" type="curve" smooth="yes"/>
      <point x="60" y="109"/>
      <point x="168" y="-10"/>
    </contour>
    <contour>
      <point x="364" y="38" type="curve" smooth="yes"/>
      <point x="237" y="38"/>
      <point x="151" y="142"/>
      <point x="151" y="292" type="curve" smooth="yes"/>
      <point x="151" y="478"/>
      <point x="257" y="625"/>
      <point x="406" y="625" type="curve" smooth="yes"/>
      <point x="531" y="625"/>
      <point x="616" y="521"/>
      <point x="616" y="370" type="curve" smooth="yes"/>
      <point x="616" y="190"/>
      <point x="512" y="38"/>
    </contour>
    <contour>
      <point x="2" y="-10" type="line"/>
      <point x="67" y="-10" type="line"/>
      <point x="764" y="670" type="line"/>
      <point x="699" y="670" type="line"/>
    </contour>
    <contour>
      <point x="450" y="710" type="move" name="top"/>
    </contour>
    <contour>
      <point x="360" y="0" type="move" name="right"/>
    </contour>
    <contour>
      <point x="326" y="0" type="move" name="bottom"/>
    </contour>
  </outline>
</glyph>
<glyph name="Thorn" format="2">
  <advance width="621"/>
  <unicode hex="00DE"/>
  <outline>
    <contour>
      <point x="230" y="478" type="line"/>
      <point x="319" y="478" type="line" smooth="yes"/>
      <point x="419" y="478"/>
      <point x="476" y="442"/>
      <point x="476" y="358" type="curve" smooth="yes"/>
      <point x="476" y="272"/>
      <point x="421" y="211"/>
      <point x="305" y="211" type="curve" smooth="yes"/>
      <point x="188" y="211" type="line"/>
      <point x="178" y="161" type="line"/>
      <point x="282" y="161" type="line" smooth="yes"/>
      <point x="461" y="161"/>
      <point x="570" y="260"/>
      <point x="570" y="365" type="curve" smooth="yes"/>
      <point x="570" y="478"/>
      <point x="472" y="528"/>
      <point x="324" y="528" type="curve" smooth="yes"/>
      <point x="244" y="528" type="line"/>
    </contour>
    <contour>
      <point x="362" y="660" type="line"/>
      <point x="123" y="660" type="line"/>
      <point x="120" y="644" type="line"/>
      <point x="192" y="604" type="line"/>
      <point x="96" y="56" type="line"/>
      <point x="13" y="16" type="line"/>
      <point x="10" y="0" type="line"/>
      <point x="255" y="0" type="line"/>
      <point x="258" y="16" type="line"/>
      <point x="181" y="56" type="line"/>
      <point x="278" y="604" type="line"/>
      <point x="359" y="644" type="line"/>
    </contour>
  </outline>
</glyph>
<glyph name="Thorn" format="1">
  <advance width="621"/>
  <unicode hex="00DE"/>
  <outline>
    <contour>
      <point x="230" y="478" type="line"/>
      <point x="319" y="478" type="line" smooth="yes"/>
      <point x="419" y="478"/>
      <point x="476" y="442"/>
      <point x="476" y="358" type="curve" smooth="yes"/>
      <point x="476" y="272"/>
      <point x="421" y="211"/>
      <point x="305" y="211" type="curve" smooth="yes"/>
      <point x="188" y="211" type="line"/>
      <point x="178" y="161" type="line"/>
      <point x="282" y="161" type="line" smooth="yes"/>
      <point x="461" y="161"/>
      <point x="570" y="260"/>
      <point x="570" y="365" type="curve" smooth="yes"/>
      <point x="570" y="478"/>
      <point x="472" y="528"/>
      <point x="324" y="528" type="curve" smooth="yes"/>
      <point x="244" y="528" type="line"/>
    </contour>
    <contour>
      <point x="362" y="660" type="line"/>
      <point x="123" y="660" type="line"/>
      <point x="120" y="644" type="line"/>
      <point x="192" y="604" type="line"/>
      <point x="96" y="56" type="line"/>
      <point x="13" y="16" type="line"/>
      <point x="10" y="0" type="line"/>
      <point x="255" y="0" type="line"/>
      <point x="258" y="16" type="line"/>
      <point x="181" y="56" type="line"/>
      <point x="278" y="604" type="line"/>
      <point x="359" y="644" type="line"/>
    </contour>
  </outline>
</glyph>
<glyph name="germandbls" format="1">
  <advance width="574.0"/>
  <unicode hex="00DF"/>
  <outline>
    <contour>
      <point x="54" y="406" type="line"/>
      <point x="192" y="406" type="line"/>
      <point x="192" y="450" type="line"/>
      <point x="54" y="450" type="line"/>
    </contour>
    <contour>
      <point x="367" y="25" type="curve" smooth="yes"/>
      <point x="334" y="25"/>
      <point x="297" y="41"/>
      <point x="277" y="75" type="curve" smooth="yes"/>
      <point x="260" y="104" type="line"/>
      <point x="253" y="104" type="line"/>
      <point x="231" y="92" type="line" smooth="yes"/>
      <point x="220" y="86"/>
      <point x="219" y="77"/>
      <point x="219" y="69" type="curve" smooth="yes"/>
      <point x="219" y="60"/>
      <point x="221" y="53"/>
      <point x="229" y="41" type="curve" smooth="yes"/>
      <point x="248" y="12"/>
      <point x="290" y="-10"/>
      <point x="358" y="-10" type="curve" smooth="yes"/>
      <point x="454" y="-10"/>
      <point x="525" y="52"/>
      <point x="525" y="140" type="curve" smooth="yes"/>
      <point x="525" y="182"/>
      <point x="507" y="213"/>
      <point x="460" y="259" type="curve" smooth="yes"/>
      <point x="413" y="306"/>
      <point x="392" y="323"/>
      <point x="392" y="367" type="curve" smooth="yes"/>
      <point x="392" y="471"/>
      <point x="558" y="527"/>
      <point x="558" y="637" type="curve" smooth="yes"/>
      <point x="558" y="700"/>
      <point x="509" y="750"/>
      <point x="422" y="750" type="curve" smooth="yes"/>
      <point x="283" y="750"/>
      <point x="171" y="616"/>
      <point x="149" y="480" type="curve" smooth="yes"/>
      <point x="67" y="-17" type="line" smooth="yes"/>
      <point x="52" y="-110"/>
      <point x="20" y="-175"/>
      <point x="-40" y="-175" type="curve" smooth="yes"/>
      <point x="-56" y="-175"/>
      <point x="-71" y="-172"/>
      <point x="-81" y="-166" type="curve" smooth="yes"/>
      <point x="-100" y="-155" type="line"/>
      <point x="-106" y="-155" type="line"/>
      <point x="-120" y="-185" type="line" smooth="yes"/>
      <point x="-124" y="-193"/>
      <point x="-126" y="-200"/>
      <point x="-126" y="-206" type="curve" smooth="yes"/>
      <point x="-126" y="-223"/>
      <point x="-107" y="-240"/>
      <point x="-77" y="-240" type="curve" smooth="yes"/>
      <point x="38" y="-240"/>
      <point x="137" y="-48"/>
      <point x="149" y="21" type="curve" smooth="yes"/>
      <point x="238" y="552" type="line" smooth="yes"/>
      <point x="254" y="646"/>
      <point x="304" y="710"/>
      <point x="392" y="710" type="curve" smooth="yes"/>
      <point x="452" y="710"/>
      <point x="483" y="675"/>
      <point x="483" y="628" type="curve" smooth="yes"/>
      <point x="483" y="483"/>
      <point x="321" y="444"/>
      <point x="321" y="334" type="curve" smooth="yes"/>
      <point x="321" y="288"/>
      <point x="347" y="262"/>
      <point x="377" y="234" type="curve" smooth="yes"/>
      <point x="424" y="193"/>
      <point x="461" y="161"/>
      <point x="461" y="114" type="curve" smooth="yes"/>
      <point x="461" y="63"/>
      <point x="433" y="25"/>
    </contour>
  </outline>
</glyph>
<glyph name="ae" format="1">
  <advance width="712.0"/>
  <unicode hex="00E6"/>
  <outline>
    <contour>
      <point x="136" y="-10" type="curve" smooth="yes"/>
      <point x="202" y="-10"/>
      <point x="259" y="38"/>
      <point x="328" y="147" type="curve"/>
      <point x="319" y="147" type="line"/>
      <point x="319" y="50"/>
      <point x="366" y="-10"/>
      <point x="468" y="-10" type="curve" smooth="yes"/>
      <point x="537" y="-10"/>
      <point x="605" y="50"/>
      <point x="646" y="121" type="curve"/>
      <point x="636" y="129" type="line"/>
      <point x="634" y="129" type="line"/>
      <point x="589" y="75"/>
      <point x="547" y="52"/>
      <point x="503" y="52" type="curve" smooth="yes"/>
      <point x="420" y="52"/>
      <point x="395" y="113"/>
      <point x="395" y="185" type="curve" smooth="yes"/>
      <point x="395" y="313"/>
      <point x="447" y="425"/>
      <point x="544" y="425" type="curve" smooth="yes"/>
      <point x="577" y="425"/>
      <point x="595" y="405"/>
      <point x="595" y="378" type="curve" smooth="yes"/>
      <point x="595" y="315"/>
      <point x="549" y="288"/>
      <point x="389" y="261" type="curve"/>
      <point x="383" y="225" type="line"/>
      <point x="610" y="260"/>
      <point x="672" y="314"/>
      <point x="672" y="383" type="curve" smooth="yes"/>
      <point x="672" y="421"/>
      <point x="639" y="460"/>
      <point x="571" y="460" type="curve" smooth="yes"/>
      <point x="512" y="460"/>
      <point x="459" y="433"/>
      <point x="417" y="391" type="curve"/>
      <point x="448" y="404" type="line"/>
      <point x="402" y="439"/>
      <point x="359" y="460"/>
      <point x="296" y="460" type="curve" smooth="yes"/>
      <point x="161" y="460"/>
      <point x="47" y="293"/>
      <point x="47" y="128" type="curve" smooth="yes"/>
      <point x="47" y="36"/>
      <point x="83" y="-10"/>
    </contour>
    <contour>
      <point x="183" y="56" type="curve" smooth="yes"/>
      <point x="136" y="56"/>
      <point x="123" y="92"/>
      <point x="123" y="167" type="curve" smooth="yes"/>
      <point x="123" y="295"/>
      <point x="181" y="421"/>
      <point x="267" y="421" type="curve" smooth="yes"/>
      <point x="305" y="421"/>
      <point x="349" y="401"/>
      <point x="392" y="344" type="curve"/>
      <point x="392" y="362" type="line"/>
      <point x="350" y="309"/>
      <point x="319" y="229"/>
      <point x="319" y="164" type="curve" smooth="yes"/>
      <point x="319" y="163"/>
      <point x="319" y="162"/>
      <point x="319" y="161" type="curve"/>
      <point x="333" y="189" type="line"/>
      <point x="281" y="111"/>
      <point x="231" y="56"/>
    </contour>
    <contour>
      <point x="336" y="148" type="line"/>
      <point x="311" y="127" type="line"/>
      <point x="332" y="127" type="line"/>
    </contour>
    <contour>
      <point x="416.0" y="510.0" type="move" name="top"/>
    </contour>
  </outline>
</glyph>
<glyph name="eth" format="1">
  <advance width="509"/>
  <unicode hex="00F0"/>
  <outline>
    <contour>
      <point x="206" y="-10" type="curve" smooth="yes"/>
      <point x="364" y="-10"/>
      <point x="467" y="159"/>
      <point x="467" y="350" type="curve" smooth="yes"/>
      <point x="467" y="538"/>
      <point x="361" y="686"/>
      <point x="178" y="749" type="curve"/>
      <point x="172" y="720" type="line"/>
      <point x="310" y="666"/>
      <point x="384" y="538"/>
      <point x="384" y="373" type="curve" smooth="yes"/>
      <point x="384" y="183"/>
      <point x="315" y="28"/>
      <point x="217" y="28" type="curve" smooth="yes"/>
      <point x="156.66326530612244" y="28.0"/>
      <point x="136.0" y="97.0"/>
      <point x="136" y="179" type="curve" smooth="yes"/>
      <point x="136.0" y="314.0"/>
      <point x="198.874251497006" y="422.0"/>
      <point x="286" y="422" type="curve" smooth="yes"/>
      <point x="334" y="422"/>
      <point x="373" y="405"/>
      <point x="401" y="368" type="curve"/>
      <point x="437" y="429" type="line"/>
      <point x="402" y="446"/>
      <point x="370" y="460"/>
      <point x="303" y="460" type="curve" smooth="yes"/>
      <point x="165.32462686567166" y="460.0"/>
      <point x="52.0" y="336.0"/>
      <point x="52" y="172" type="curve" smooth="yes"/>
      <point x="52.0" y="68.0"/>
      <point x="109.63742690058479" y="-10.0"/>
    </contour>
    <contour>
      <point x="167" y="523" type="line"/>
      <point x="229" y="523" type="line"/>
      <point x="475" y="741" type="line"/>
      <point x="413" y="741" type="line"/>
    </contour>
  </outline>
</glyph>
<glyph name="divide" format="1">
  <advance width="500"/>
  <unicode hex="00F7"/>
  <outline>
    <contour>
      <point x="184" y="126" type="line"/>
      <point x="173" y="62" type="line"/>
      <point x="233" y="62" type="line"/>
      <point x="244" y="126" type="line"/>
    </contour>
    <contour>
      <point x="445" y="249" type="line"/>
      <point x="453" y="295" type="line"/>
      <point x="35" y="295" type="line"/>
      <point x="27" y="249" type="line"/>
    </contour>
    <contour>
      <point x="247" y="482" type="line"/>
      <point x="236" y="418" type="line"/>
      <point x="296" y="418" type="line"/>
      <point x="307" y="482" type="line"/>
    </contour>
  </outline>
</glyph>
<glyph name="thorn" format="2">
  <advance width="508"/>
  <unicode hex="00FE"/>
  <outline>
    <contour>
      <point x="-27" y="-230" type="line"/>
      <point x="188" y="-230" type="line"/>
      <point x="188" y="-214" type="line"/>
      <point x="108" y="-185" type="line"/>
      <point x="142" y="23" type="line"/>
      <point x="92" y="34" type="line"/>
      <point x="113" y="10"/>
      <point x="160" y="-10"/>
      <point x="209" y="-10" type="curve" smooth="yes"/>
      <point x="344" y="-10"/>
      <point x="458" y="157"/>
      <point x="458" y="322" type="curve" smooth="yes"/>
      <point x="458.0" y="413.333333333"/>
      <point x="422" y="460"/>
      <point x="369" y="460" type="curve" smooth="yes"/>
      <point x="308" y="460"/>
      <point x="251" y="412"/>
      <point x="201" y="335" type="curve"/>
      <point x="167" y="335" type="line"/>
      <point x="167" y="250" type="line"/>
      <point x="201" y="311"/>
      <point x="263" y="394"/>
      <point x="322" y="394" type="curve" smooth="yes"/>
      <point x="369" y="394"/>
      <point x="382.0" y="357.324324324"/>
      <point x="382" y="283" type="curve" smooth="yes"/>
      <point x="382" y="155"/>
      <point x="324" y="29"/>
      <point x="238" y="29" type="curve" smooth="yes"/>
      <point x="197" y="29"/>
      <point x="175" y="51"/>
      <point x="147" y="89" type="curve"/>
      <point x="149" y="61" type="line"/>
      <point x="270" y="750" type="line"/>
      <point x="266" y="750" type="line"/>
      <point x="94" y="720" type="line"/>
      <point x="94" y="714" type="line"/>
      <point x="181" y="680" type="line"/>
      <point x="28" y="-186" type="line"/>
      <point x="-27" y="-214" type="line"/>
    </contour>
  </outline>
</glyph>
<glyph name="Aogonek" format="1">
  <advance width="715"/>
  <unicode hex="0104"/>
  <outline>
    <contour>
      <point x="-15" y="0" type="line"/>
      <point x="185" y="0" type="line"/>
      <point x="188" y="16" type="line"/>
      <point x="102" y="50" type="line"/>
      <point x="96" y="28" type="line"/>
      <point x="416" y="599" type="line"/>
      <point x="372" y="599" type="line"/>
      <point x="491" y="28" type="line"/>
      <point x="508" y="58" type="line"/>
      <point x="397" y="16" type="line"/>
      <point x="394" y="0" type="line"/>
      <point x="631" y="0" type="line"/>
      <point x="635" y="16" type="line"/>
      <point x="539" y="74" type="line"/>
      <point x="580" y="28" type="line"/>
      <point x="444" y="665" type="line"/>
      <point x="401" y="665" type="line"/>
      <point x="37" y="28" type="line"/>
      <point x="85" y="67" type="line"/>
      <point x="-11" y="16" type="line"/>
    </contour>
    <contour>
      <point x="183" y="238" type="line"/>
      <point x="487" y="238" type="line"/>
      <point x="497" y="288" type="line"/>
      <point x="193" y="288" type="line"/>
    </contour>
    <contour>
      <point x="488" y="-240" type="curve" smooth="yes"/>
      <point x="524" y="-240"/>
      <point x="554" y="-223"/>
      <point x="575" y="-193" type="curve"/>
      <point x="577" y="-180" type="line"/>
      <point x="574" y="-180" type="line"/>
      <point x="556" y="-192"/>
      <point x="538" y="-196"/>
      <point x="524" y="-196" type="curve" smooth="yes"/>
      <point x="489" y="-196"/>
      <point x="468" y="-179"/>
      <point x="468" y="-140" type="curve" smooth="yes"/>
      <point x="468" y="-92"/>
      <point x="498" y="-37"/>
      <point x="553" y="25" type="curve"/>
      <point x="529" y="25" type="line"/>
      <point x="453" y="-46"/>
      <point x="407" y="-103"/>
      <point x="407" y="-159" type="curve" smooth="yes"/>
      <point x="407" y="-210"/>
      <point x="438" y="-240"/>
    </contour>
  </outline>
</glyph>
<glyph name="aogonek" format="2">
  <advance width="507"/>
  <unicode hex="0105"/>
  <outline>
    <contour>
      <point x="136" y="-10" type="curve" smooth="yes"/>
      <point x="205" y="-10"/>
      <point x="268" y="51"/>
      <point x="323" y="146" type="curve"/>
      <point x="338" y="200" type="line"/>
      <point x="304" y="139"/>
      <point x="242" y="56"/>
      <point x="183" y="56" type="curve" smooth="yes"/>
      <point x="136" y="56"/>
      <point x="123" y="92"/>
      <point x="123" y="167" type="curve" smooth="yes"/>
      <point x="123" y="295"/>
      <point x="181" y="421"/>
      <point x="267" y="421" type="curve" smooth="yes"/>
      <point x="308" y="421"/>
      <point x="330" y="399"/>
      <point x="358" y="361" type="curve"/>
      <point x="356" y="389" type="line"/>
      <point x="303" y="89" type="line" smooth="yes"/>
      <point x="292" y="29"/>
      <point x="309" y="-10"/>
      <point x="356" y="-10" type="curve" smooth="yes"/>
      <point x="367" y="-10"/>
      <point x="378" y="-8"/>
      <point x="389" y="-3" type="curve"/>
      <point x="385" y="11" type="line"/>
      <point x="309" y="-63"/>
      <point x="278.0" y="-112.274853801"/>
      <point x="278" y="-159" type="curve" smooth="yes"/>
      <point x="278" y="-210"/>
      <point x="309" y="-240"/>
      <point x="359" y="-240" type="curve" smooth="yes"/>
      <point x="395" y="-240"/>
      <point x="425" y="-223"/>
      <point x="446" y="-193" type="curve"/>
      <point x="448" y="-180" type="line"/>
      <point x="445" y="-180" type="line"/>
      <point x="427" y="-192"/>
      <point x="409" y="-196"/>
      <point x="395" y="-196" type="curve" smooth="yes"/>
      <point x="360" y="-196"/>
      <point x="339" y="-179"/>
      <point x="339" y="-140" type="curve" smooth="yes"/>
      <point x="339" y="-87"/>
      <point x="375" y="-28"/>
      <point x="434" y="37" type="curve"/>
      <point x="454" y="61"/>
      <point x="472" y="93"/>
      <point x="487" y="132" type="curve"/>
      <point x="474" y="138" type="line"/>
      <point x="450" y="87"/>
      <point x="422" y="63"/>
      <point x="399" y="63" type="curve" smooth="yes"/>
      <point x="381" y="63"/>
      <point x="377" y="79"/>
      <point x="384" y="119" type="curve" smooth="yes"/>
      <point x="445" y="460" type="line"/>
      <point x="420" y="460" type="line"/>
      <point x="369" y="427" type="line"/>
      <point x="413" y="416" type="line"/>
      <point x="392" y="440"/>
      <point x="345" y="460"/>
      <point x="296" y="460" type="curve" smooth="yes"/>
      <point x="161" y="460"/>
      <point x="47" y="293"/>
      <point x="47" y="128" type="curve" smooth="yes"/>
      <point x="47" y="36"/>
      <point x="83" y="-10"/>
    </contour>
    <contour>
      <point x="316" y="136" type="line"/>
      <point x="291" y="115" type="line"/>
      <point x="313" y="115" type="line"/>
    </contour>
  </outline>
</glyph>
<glyph name="Dcroat" format="2">
  <advance width="732"/>
  <unicode hex="0110"/>
  <outline>
    <contour>
      <point x="10" y="0" type="line"/>
      <point x="171" y="0" type="line"/>
      <point x="288" y="660" type="line"/>
      <point x="126" y="660" type="line"/>
      <point x="123" y="644" type="line"/>
      <point x="192" y="604" type="line"/>
      <point x="96" y="56" type="line"/>
      <point x="13" y="16" type="line"/>
    </contour>
    <contour>
      <point x="282" y="0" type="line" smooth="yes"/>
      <point x="564" y="0"/>
      <point x="682" y="230"/>
      <point x="682" y="392" type="curve" smooth="yes"/>
      <point x="682" y="548"/>
      <point x="585" y="660"/>
      <point x="347" y="660" type="curve" smooth="yes"/>
      <point x="237" y="660" type="line"/>
      <point x="228" y="610" type="line"/>
      <point x="333" y="610" type="line" smooth="yes"/>
      <point x="511" y="610"/>
      <point x="589" y="521"/>
      <point x="589" y="380" type="curve" smooth="yes"/>
      <point x="589" y="180"/>
      <point x="488" y="50"/>
      <point x="290" y="50" type="curve" smooth="yes"/>
      <point x="157" y="50" type="line"/>
      <point x="148" y="0" type="line"/>
    </contour>
    <contour>
      <point x="69" y="322" type="line"/>
      <point x="393" y="322" type="line"/>
      <point x="401" y="363" type="line"/>
      <point x="77" y="363" type="line"/>
    </contour>
  </outline>
</glyph>
<glyph name="dcroat" format="1">
  <advance width="515.0"/>
  <unicode hex="0111"/>
  <outline>
    <contour>
      <point x="258" y="543" type="line"/>
      <point x="533" y="543" type="line"/>
      <point x="540" y="582" type="line"/>
      <point x="265" y="582" type="line"/>
    </contour>
    <contour>
      <point x="139" y="-10" type="curve" smooth="yes"/>
      <point x="196" y="-10"/>
      <point x="250" y="30"/>
      <point x="307" y="115" type="curve"/>
      <point x="341" y="115" type="line"/>
      <point x="341" y="200" type="line"/>
      <point x="293" y="114"/>
      <point x="232" y="56"/>
      <point x="186" y="56" type="curve" smooth="yes"/>
      <point x="144" y="56"/>
      <point x="126" y="83"/>
      <point x="126" y="167" type="curve" smooth="yes"/>
      <point x="126" y="305"/>
      <point x="190" y="421"/>
      <point x="270" y="421" type="curve" smooth="yes"/>
      <point x="306" y="421"/>
      <point x="329" y="405"/>
      <point x="361" y="361" type="curve"/>
      <point x="359" y="389" type="line"/>
      <point x="306" y="89" type="line" smooth="yes"/>
      <point x="295" y="29"/>
      <point x="312" y="-10"/>
      <point x="359" y="-10" type="curve" smooth="yes"/>
      <point x="406" y="-10"/>
      <point x="451" y="32"/>
      <point x="490" y="132" type="curve"/>
      <point x="477" y="138" type="line"/>
      <point x="453" y="87"/>
      <point x="425" y="63"/>
      <point x="402" y="63" type="curve" smooth="yes"/>
      <point x="384" y="63"/>
      <point x="380" y="79"/>
      <point x="387" y="119" type="curve" smooth="yes"/>
      <point x="498" y="750" type="line"/>
      <point x="495" y="750" type="line"/>
      <point x="322" y="720" type="line"/>
      <point x="322" y="714" type="line"/>
      <point x="409" y="680" type="line"/>
      <point x="365" y="430" type="line"/>
      <point x="416" y="416" type="line"/>
      <point x="395" y="440"/>
      <point x="348" y="460"/>
      <point x="299" y="460" type="curve" smooth="yes"/>
      <point x="164" y="460"/>
      <point x="50" y="293"/>
      <point x="50" y="128" type="curve" smooth="yes"/>
      <point x="50" y="36"/>
      <point x="86" y="-10"/>
    </contour>
  </outline>
</glyph>
<glyph name="Eogonek" format="1">
  <advance width="621"/>
  <unicode hex="0118"/>
  <outline>
    <contour>
      <point x="10" y="0" type="line"/>
      <point x="171" y="0" type="line"/>
      <point x="288" y="660" type="line"/>
      <point x="126" y="660" type="line"/>
      <point x="123" y="644" type="line"/>
      <point x="192" y="604" type="line"/>
      <point x="96" y="56" type="line"/>
      <point x="13" y="16" type="line"/>
    </contour>
    <contour>
      <point x="539" y="488" type="line"/>
      <point x="555" y="488" type="line"/>
      <point x="586" y="660" type="line"/>
      <point x="237" y="660" type="line"/>
      <point x="228" y="610" type="line"/>
      <point x="502" y="610" type="line"/>
    </contour>
    <contour>
      <point x="420" y="232" type="line"/>
      <point x="436" y="232" type="line"/>
      <point x="475" y="451" type="line"/>
      <point x="459" y="451" type="line"/>
      <point x="397" y="366" type="line"/>
      <point x="193" y="366" type="line"/>
      <point x="184" y="316" type="line"/>
      <point x="389" y="316" type="line"/>
    </contour>
    <contour>
      <point x="511" y="0" type="line"/>
      <point x="543" y="182" type="line"/>
      <point x="527" y="182" type="line"/>
      <point x="447" y="50" type="line"/>
      <point x="157" y="50" type="line"/>
      <point x="148" y="0" type="line"/>
    </contour>
    <contour>
      <point x="396" y="-240" type="curve" smooth="yes"/>
      <point x="432" y="-240"/>
      <point x="462" y="-223"/>
      <point x="483" y="-193" type="curve"/>
      <point x="485" y="-180" type="line"/>
      <point x="482" y="-180" type="line"/>
      <point x="464" y="-192"/>
      <point x="446" y="-196"/>
      <point x="432" y="-196" type="curve" smooth="yes"/>
      <point x="397" y="-196"/>
      <point x="376" y="-179"/>
      <point x="376" y="-140" type="curve" smooth="yes"/>
      <point x="376" y="-92"/>
      <point x="406" y="-37"/>
      <point x="461" y="25" type="curve"/>
      <point x="437" y="25" type="line"/>
      <point x="361" y="-46"/>
      <point x="315" y="-103"/>
      <point x="315" y="-159" type="curve" smooth="yes"/>
      <point x="315" y="-210"/>
      <point x="346" y="-240"/>
    </contour>
  </outline>
</glyph>
<glyph name="eogonek" format="2">
  <advance width="443"/>
  <unicode hex="0119"/>
  <outline>
    <contour>
      <point x="199" y="-10" type="curve" smooth="yes"/>
      <point x="213" y="-10"/>
      <point x="234" y="-9"/>
      <point x="271" y="5" type="curve"/>
      <point x="263" y="18" type="line"/>
      <point x="184" y="-61"/>
      <point x="149" y="-110"/>
      <point x="149" y="-159" type="curve" smooth="yes"/>
      <point x="149" y="-210"/>
      <point x="180" y="-240"/>
      <point x="230" y="-240" type="curve" smooth="yes"/>
      <point x="266" y="-240"/>
      <point x="296" y="-223"/>
      <point x="317" y="-193" type="curve"/>
      <point x="319" y="-180" type="line"/>
      <point x="316" y="-180" type="line"/>
      <point x="298" y="-192"/>
      <point x="280" y="-196"/>
      <point x="266" y="-196" type="curve" smooth="yes"/>
      <point x="231" y="-196"/>
      <point x="210" y="-179"/>
      <point x="210" y="-140" type="curve" smooth="yes"/>
      <point x="210" y="-92"/>
      <point x="240" y="-37"/>
      <point x="295" y="25" type="curve"/>
      <point x="324" y="47"/>
      <point x="354" y="81"/>
      <point x="377" y="121" type="curve"/>
      <point x="367" y="129" type="line"/>
      <point x="365" y="129" type="line"/>
      <point x="320" y="75"/>
      <point x="278" y="52"/>
      <point x="234" y="52" type="curve" smooth="yes"/>
      <point x="159" y="52"/>
      <point x="126" y="103"/>
      <point x="126" y="185" type="curve" smooth="yes"/>
      <point x="126" y="323"/>
      <point x="185" y="425"/>
      <point x="275" y="425" type="curve" smooth="yes"/>
      <point x="308" y="425"/>
      <point x="326" y="405"/>
      <point x="326" y="378" type="curve" smooth="yes"/>
      <point x="326" y="315"/>
      <point x="280" y="288"/>
      <point x="120" y="261" type="curve"/>
      <point x="114" y="225" type="line"/>
      <point x="341" y="260"/>
      <point x="403" y="314"/>
      <point x="403" y="383" type="curve" smooth="yes"/>
      <point x="403" y="424"/>
      <point x="369" y="460"/>
      <point x="302" y="460" type="curve" smooth="yes"/>
      <point x="161" y="460"/>
      <point x="50" y="305"/>
      <point x="50" y="148" type="curve" smooth="yes"/>
      <point x="50" y="51"/>
      <point x="97" y="-10"/>
    </contour>
  </outline>
</glyph>
<glyph name="Hbar" format="1">
  <advance width="774"/>
  <unicode hex="0126"/>
  <outline>
    <contour>
      <point x="10" y="0" type="line"/>
      <point x="248" y="0" type="line"/>
      <point x="251" y="16" type="line"/>
      <point x="174" y="56" type="line"/>
      <point x="271" y="604" type="line"/>
      <point x="352" y="644" type="line"/>
      <point x="355" y="660" type="line"/>
      <point x="117" y="660" type="line"/>
      <point x="114" y="644" type="line"/>
      <point x="186" y="604" type="line"/>
      <point x="89" y="56" type="line"/>
      <point x="13" y="16" type="line"/>
    </contour>
    <contour>
      <point x="185" y="315" type="line"/>
      <point x="615" y="315" type="line"/>
      <point x="615" y="365" type="line"/>
      <point x="185" y="365" type="line"/>
    </contour>
    <contour>
      <point x="419" y="0" type="line"/>
      <point x="657" y="0" type="line"/>
      <point x="660" y="16" type="line"/>
      <point x="583" y="56" type="line"/>
      <point x="680" y="604" type="line"/>
      <point x="761" y="644" type="line"/>
      <point x="764" y="660" type="line"/>
      <point x="526" y="660" type="line"/>
      <point x="523" y="644" type="line"/>
      <point x="595" y="604" type="line"/>
      <point x="498" y="56" type="line"/>
      <point x="422" y="16" type="line"/>
    </contour>
    <contour>
      <point x="90" y="476" type="line"/>
      <point x="732" y="476" type="line"/>
      <point x="740" y="517" type="line"/>
      <point x="98" y="517" type="line"/>
    </contour>
  </outline>
</glyph>
<glyph name="Iogonek" format="2">
  <advance width="365"/>
  <unicode hex="012E"/>
  <outline>
    <contour>
      <point x="10" y="0" type="line"/>
      <point x="248" y="0" type="line"/>
      <point x="251" y="16" type="line"/>
      <point x="174" y="56" type="line"/>
      <point x="271" y="604" type="line"/>
      <point x="352" y="644" type="line"/>
      <point x="355" y="660" type="line"/>
      <point x="117" y="660" type="line"/>
      <point x="114" y="644" type="line"/>
      <point x="186" y="604" type="line"/>
      <point x="89" y="56" type="line"/>
      <point x="13" y="16" type="line"/>
    </contour>
    <contour>
      <point x="97" y="-240" type="curve" smooth="yes"/>
      <point x="133" y="-240"/>
      <point x="163" y="-223"/>
      <point x="184" y="-193" type="curve"/>
      <point x="186" y="-180" type="line"/>
      <point x="183" y="-180" type="line"/>
      <point x="165" y="-192"/>
      <point x="147" y="-196"/>
      <point x="133" y="-196" type="curve" smooth="yes"/>
      <point x="98" y="-196"/>
      <point x="77" y="-179"/>
      <point x="77" y="-140" type="curve" smooth="yes"/>
      <point x="77" y="-92"/>
      <point x="107" y="-37"/>
      <point x="162" y="25" type="curve"/>
      <point x="138" y="25" type="line"/>
      <point x="62" y="-46"/>
      <point x="16" y="-103"/>
      <point x="16" y="-159" type="curve" smooth="yes"/>
      <point x="16" y="-210"/>
      <point x="47" y="-240"/>
    </contour>
  </outline>
</glyph>
<glyph name="Iogonek" format="1">
  <advance width="365"/>
  <unicode hex="012E"/>
  <outline>
    <contour>
      <point x="10" y="0" type="line"/>
      <point x="248" y="0" type="line"/>
      <point x="251" y="16" type="line"/>
      <point x="174" y="56" type="line"/>
      <point x="271" y="604" type="line"/>
      <point x="352" y="644" type="line"/>
      <point x="355" y="660" type="line"/>
      <point x="117" y="660" type="line"/>
      <point x="114" y="644" type="line"/>
      <point x="186" y="604" type="line"/>
      <point x="89" y="56" type="line"/>
      <point x="13" y="16" type="line"/>
    </contour>
    <contour>
      <point x="97" y="-240" type="curve" smooth="yes"/>
      <point x="133" y="-240"/>
      <point x="163" y="-223"/>
      <point x="184" y="-193" type="curve"/>
      <point x="186" y="-180" type="line"/>
      <point x="183" y="-180" type="line"/>
      <point x="165" y="-192"/>
      <point x="147" y="-196"/>
      <point x="133" y="-196" type="curve" smooth="yes"/>
      <point x="98" y="-196"/>
      <point x="77" y="-179"/>
      <point x="77" y="-140" type="curve" smooth="yes"/>
      <point x="77" y="-92"/>
      <point x="107" y="-37"/>
      <point x="162" y="25" type="curve"/>
      <point x="138" y="25" type="line"/>
      <point x="62" y="-46"/>
      <point x="16" y="-103"/>
      <point x="16" y="-159" type="curve" smooth="yes"/>
      <point x="16" y="-210"/>
      <point x="47" y="-240"/>
    </contour>
  </outline>
</glyph>
<glyph name="iogonek" format="1">
  <advance width="288.0"/>
  <unicode hex="012F"/>
  <outline>
    <contour>
      <point x="125" y="-10" type="curve" smooth="yes"/>
      <point x="172" y="-10"/>
      <point x="217" y="32"/>
      <point x="256" y="132" type="curve"/>
      <point x="243" y="138" type="line"/>
      <point x="219" y="87"/>
      <point x="191" y="63"/>
      <point x="168" y="63" type="curve" smooth="yes"/>
      <point x="150" y="63"/>
      <point x="146" y="79"/>
      <point x="153" y="119" type="curve" smooth="yes"/>
      <point x="214" y="460" type="line"/>
      <point x="211" y="460" type="line"/>
      <point x="38" y="430" type="line"/>
      <point x="38" y="424" type="line"/>
      <point x="125" y="390" type="line"/>
      <point x="72" y="89" type="line" smooth="yes"/>
      <point x="61" y="29"/>
      <point x="78" y="-10"/>
    </contour>
    <contour>
      <point x="196" y="587" type="curve" smooth="yes"/>
      <point x="227" y="587"/>
      <point x="253" y="613"/>
      <point x="253" y="644" type="curve" smooth="yes"/>
      <point x="253" y="675"/>
      <point x="227" y="701"/>
      <point x="196" y="701" type="curve" smooth="yes"/>
      <point x="165" y="701"/>
      <point x="139" y="675"/>
      <point x="139" y="644" type="curve" smooth="yes"/>
      <point x="139" y="613"/>
      <point x="165" y="587"/>
    </contour>
    <contour>
      <point x="84" y="-240" type="curve" smooth="yes"/>
      <point x="120" y="-240"/>
      <point x="150" y="-223"/>
      <point x="171" y="-193" type="curve"/>
      <point x="173" y="-180" type="line"/>
      <point x="170" y="-180" type="line"/>
      <point x="152" y="-192"/>
      <point x="134" y="-196"/>
      <point x="120" y="-196" type="curve" smooth="yes"/>
      <point x="85" y="-196"/>
      <point x="64" y="-179"/>
      <point x="64" y="-140" type="curve" smooth="yes"/>
      <point x="64" y="-92"/>
      <point x="94" y="-37"/>
      <point x="149" y="25" type="curve"/>
      <point x="125" y="25" type="line"/>
      <point x="49" y="-46"/>
      <point x="3" y="-103"/>
      <point x="3" y="-159" type="curve" smooth="yes"/>
      <point x="3" y="-210"/>
      <point x="34" y="-240"/>
    </contour>
  </outline>
</glyph>
<glyph name="idotless" format="2">
  <advance width="288"/>
  <unicode hex="0131"/>
  <anchor x="172.0" y="510.0" name="top"/>
  <anchor x="155.0" y="0.0" name="right"/>
  <anchor x="117.0" y="0.0" name="bottom"/>
  <outline>
    <contour>
      <point x="125" y="-10" type="curve" smooth="yes"/>
      <point x="172" y="-10"/>
      <point x="217" y="32"/>
      <point x="256" y="132" type="curve"/>
      <point x="243" y="138" type="line"/>
      <point x="219" y="87"/>
      <point x="191" y="63"/>
      <point x="168" y="63" type="curve" smooth="yes"/>
      <point x="150" y="63"/>
      <point x="146" y="79"/>
      <point x="153" y="119" type="curve" smooth="yes"/>
      <point x="214" y="460" type="line"/>
      <point x="211" y="460" type="line"/>
      <point x="38" y="430" type="line"/>
      <point x="38" y="424" type="line"/>
      <point x="125" y="390" type="line"/>
      <point x="72" y="89" type="line" smooth="yes"/>
      <point x="61" y="29"/>
      <point x="78" y="-10"/>
    </contour>
  </outline>
</glyph>
<glyph name="kgreenlandic" format="2">
  <advance width="481"/>
  <unicode hex="0138"/>
  <outline>
    <contour>
      <point x="44" y="0" type="line"/>
      <point x="120" y="0" type="line"/>
      <point x="201" y="460" type="line"/>
      <point x="198" y="460" type="line"/>
      <point x="34" y="430" type="line"/>
      <point x="34" y="424" type="line"/>
      <point x="112" y="389" type="line"/>
    </contour>
    <contour>
      <point x="352" y="-10" type="curve" smooth="yes"/>
      <point x="398" y="-10"/>
      <point x="424" y="30"/>
      <point x="466" y="132" type="curve"/>
      <point x="453" y="138" type="line"/>
      <point x="429" y="87"/>
      <point x="412" y="63"/>
      <point x="388" y="63" type="curve" smooth="yes"/>
      <point x="370" y="63"/>
      <point x="358" y="75"/>
      <point x="338" y="109" type="curve" smooth="yes"/>
      <point x="232" y="294" type="line"/>
      <point x="219" y="269" type="line"/>
      <point x="347" y="381" type="line" smooth="yes"/>
      <point x="359" y="391"/>
      <point x="371" y="397"/>
      <point x="381" y="400" type="curve"/>
      <point x="363" y="400" type="line"/>
      <point x="437" y="373" type="line"/>
      <point x="452" y="411" type="line" smooth="yes"/>
      <point x="456" y="420"/>
      <point x="457" y="426"/>
      <point x="457" y="429" type="curve" smooth="yes"/>
      <point x="457" y="442"/>
      <point x="440" y="460"/>
      <point x="408" y="460" type="curve" smooth="yes"/>
      <point x="369" y="460"/>
      <point x="344" y="439"/>
      <point x="170" y="257" type="curve"/>
      <point x="170" y="252" type="line"/>
      <point x="265" y="79" type="line" smooth="yes"/>
      <point x="293" y="29"/>
      <point x="305" y="-10"/>
    </contour>
  </outline>
</glyph>
<glyph name="Lslash" format="1">
  <advance width="598"/>
  <unicode hex="0141"/>
  <outline>
    <contour>
      <point x="10" y="0" type="line"/>
      <point x="482" y="0" type="line"/>
      <point x="521" y="222" type="line"/>
      <point x="505" y="222" type="line"/>
      <point x="412" y="50" type="line"/>
      <point x="181" y="50" type="line"/>
      <point x="278" y="604" type="line"/>
      <point x="370" y="644" type="line"/>
      <point x="373" y="660" type="line"/>
      <point x="126" y="660" type="line"/>
      <point x="123" y="644" type="line"/>
      <point x="192" y="604" type="line"/>
      <point x="96" y="56" type="line"/>
      <point x="13" y="16" type="line"/>
    </contour>
    <contour>
      <point x="46" y="211" type="line"/>
      <point x="168" y="283" type="line"/>
      <point x="203" y="297" type="line"/>
      <point x="388" y="405" type="line"/>
      <point x="400" y="460" type="line"/>
      <point x="217" y="353" type="line"/>
      <point x="179" y="338" type="line"/>
      <point x="56" y="266" type="line"/>
    </contour>
  </outline>
</glyph>
<glyph name="lslash" format="2">
  <advance width="258"/>
  <unicode hex="0142"/>
  <outline>
    <contour>
      <point x="101" y="-10" type="curve" smooth="yes"/>
      <point x="148" y="-10"/>
      <point x="193" y="32"/>
      <point x="232" y="132" type="curve"/>
      <point x="219" y="138" type="line"/>
      <point x="195" y="87"/>
      <point x="167" y="63"/>
      <point x="144" y="63" type="curve" smooth="yes"/>
      <point x="126" y="63"/>
      <point x="122" y="79"/>
      <point x="129" y="119" type="curve" smooth="yes"/>
      <point x="240" y="750" type="line"/>
      <point x="237" y="750" type="line"/>
      <point x="64" y="720" type="line"/>
      <point x="64" y="714" type="line"/>
      <point x="151" y="680" type="line"/>
      <point x="48" y="89" type="line" smooth="yes"/>
      <point x="38" y="29"/>
      <point x="54" y="-10"/>
    </contour>
    <contour>
      <point x="20" y="246" type="line"/>
      <point x="105" y="306" type="line"/>
      <point x="143" y="323" type="line"/>
      <point x="244" y="395" type="line"/>
      <point x="254" y="450" type="line"/>
      <point x="150" y="376" type="line"/>
      <point x="117" y="362" type="line"/>
      <point x="30" y="300" type="line"/>
    </contour>
  </outline>
</glyph>
<glyph name="Eng" format="2">
  <advance width="776"/>
  <unicode hex="014A"/>
  <outline>
    <contour>
      <point x="10" y="0" type="line"/>
      <point x="247" y="0" type="line"/>
      <point x="251" y="16" type="line"/>
      <point x="159" y="55" type="line"/>
      <point x="248" y="561" type="line"/>
      <point x="221" y="561" type="line"/>
      <point x="540" y="-5" type="line"/>
      <point x="525" y="45" type="line"/>
      <point x="508" y="-46" type="line" smooth="yes"/>
      <point x="497" y="-104"/>
      <point x="477" y="-142"/>
      <point x="436" y="-173" type="curve"/>
      <point x="476" y="-150" type="line"/>
      <point x="342" y="-150" type="line"/>
      <point x="336" y="-190" type="line" smooth="yes"/>
      <point x="334" y="-203"/>
      <point x="333" y="-212"/>
      <point x="333" y="-214" type="curve" smooth="yes"/>
      <point x="333" y="-231"/>
      <point x="344" y="-240"/>
      <point x="388" y="-240" type="curve" smooth="yes"/>
      <point x="485" y="-240"/>
      <point x="554" y="-143"/>
      <point x="571" y="-47" type="curve" smooth="yes"/>
      <point x="684" y="605" type="line"/>
      <point x="768" y="644" type="line"/>
      <point x="771" y="660" type="line"/>
      <point x="535" y="660" type="line"/>
      <point x="531" y="644" type="line"/>
      <point x="623" y="606" type="line"/>
      <point x="533" y="95" type="line"/>
      <point x="582" y="95" type="line"/>
      <point x="267" y="660" type="line"/>
      <point x="127" y="660" type="line"/>
      <point x="124" y="644" type="line"/>
      <point x="194" y="602" type="line"/>
      <point x="98" y="56" type="line"/>
      <point x="13" y="16" type="line"/>
    </contour>
  </outline>
</glyph>
<glyph name="Eng" format="1">
  <advance width="776"/>
  <unicode hex="014A"/>
  <outline>
    <contour>
      <point x="10" y="0" type="line"/>
      <point x="247" y="0" type="line"/>
      <point x="251" y="16" type="line"/>
      <point x="159" y="55" type="line"/>
      <point x="248" y="561" type="line"/>
      <point x="221" y="561" type="line"/>
      <point x="540" y="-5" type="line"/>
      <point x="525" y="45" type="line"/>
      <point x="508" y="-46" type="line" smooth="yes"/>
      <point x="493" y="-127"/>
      <point x="463" y="-158"/>
      <point x="387" y="-158" type="curve" smooth="yes"/>
      <point x="346" y="-158" type="line"/>
      <point x="342" y="-162" type="line"/>
      <point x="342" y="-212" type="line" smooth="yes"/>
      <point x="342" y="-234"/>
      <point x="350" y="-240"/>
      <point x="373" y="-240" type="curve" smooth="yes"/>
      <point x="413" y="-240"/>
      <point x="454" y="-225"/>
      <point x="485" y="-200" type="curve" smooth="yes"/>
      <point x="524" y="-169"/>
      <point x="558" y="-119"/>
      <point x="574" y="-26" type="curve" smooth="yes"/>
      <point x="684" y="605" type="line"/>
      <point x="768" y="644" type="line"/>
      <point x="771" y="660" type="line"/>
      <point x="535" y="660" type="line"/>
      <point x="531" y="644" type="line"/>
      <point x="623" y="606" type="line"/>
      <point x="533" y="95" type="line"/>
      <point x="582" y="95" type="line"/>
      <point x="267" y="660" type="line"/>
      <point x="127" y="660" type="line"/>
      <point x="124" y="644" type="line"/>
      <point x="194" y="602" type="line"/>
      <point x="98" y="56" type="line"/>
      <point x="13" y="16" type="line"/>
    </contour>
  </outline>
</glyph>
<glyph name="eng" format="2">
  <advance width="545"/>
  <unicode hex="014B"/>
  <outline>
    <contour>
      <point x="43" y="0" type="line"/>
      <point x="119" y="0" type="line"/>
      <point x="179" y="348" type="line"/>
      <point x="179" y="460" type="line"/>
      <point x="176" y="460" type="line"/>
      <point x="34" y="430" type="line"/>
      <point x="34" y="424" type="line"/>
      <point x="112" y="389" type="line"/>
    </contour>
    <contour>
      <point x="181" y="-230" type="line"/>
      <point x="294" y="-175"/>
      <point x="371" y="-99"/>
      <point x="389" y="0" type="curve" smooth="yes"/>
      <point x="445" y="312" type="line" smooth="yes"/>
      <point x="461" y="402"/>
      <point x="420" y="460"/>
      <point x="355" y="460" type="curve" smooth="yes"/>
      <point x="290" y="460"/>
      <point x="254" y="433"/>
      <point x="183" y="355" type="curve"/>
      <point x="164" y="355" type="line"/>
      <point x="164" y="300" type="line"/>
      <point x="196" y="336"/>
      <point x="254" y="399"/>
      <point x="302" y="399" type="curve" smooth="yes"/>
      <point x="361" y="399"/>
      <point x="376" y="356"/>
      <point x="368" y="309" type="curve" smooth="yes"/>
      <point x="311" y="-10" type="line" smooth="yes"/>
      <point x="291" y="-120"/>
      <point x="249" y="-169"/>
      <point x="181" y="-214" type="curve"/>
    </contour>
  </outline>
</glyph>
<glyph name="OE" format="1">
  <advance width="948"/>
  <unicode hex="0152"/>
  <outline>
    <contour>
      <point x="387" y="0" type="curve" smooth="yes"/>
      <point x="498" y="0" type="line"/>
      <point x="615" y="660" type="line"/>
      <point x="446" y="660" type="line" smooth="yes"/>
      <point x="212" y="660"/>
      <point x="60" y="502"/>
      <point x="60" y="286" type="curve" smooth="yes"/>
      <point x="60" y="114"/>
      <point x="155" y="0"/>
    </contour>
    <contour>
      <point x="389" y="50" type="line" smooth="yes"/>
      <point x="231" y="50"/>
      <point x="153" y="127"/>
      <point x="153" y="289" type="curve" smooth="yes"/>
      <point x="153" y="487"/>
      <point x="258" y="610"/>
      <point x="442" y="610" type="curve" smooth="yes"/>
      <point x="542" y="610" type="line"/>
      <point x="523" y="626" type="line"/>
      <point x="419" y="34" type="line"/>
      <point x="452" y="50" type="line"/>
    </contour>
    <contour>
      <point x="866" y="488" type="line"/>
      <point x="882" y="488" type="line"/>
      <point x="913" y="660" type="line"/>
      <point x="564" y="660" type="line"/>
      <point x="555" y="610" type="line"/>
      <point x="829" y="610" type="line"/>
    </contour>
    <contour>
      <point x="747" y="232" type="line"/>
      <point x="763" y="232" type="line"/>
      <point x="802" y="451" type="line"/>
      <point x="786" y="451" type="line"/>
      <point x="724" y="366" type="line"/>
      <point x="520" y="366" type="line"/>
      <point x="511" y="316" type="line"/>
      <point x="716" y="316" type="line"/>
    </contour>
    <contour>
      <point x="838" y="0" type="line"/>
      <point x="870" y="182" type="line"/>
      <point x="854" y="182" type="line"/>
      <point x="774" y="50" type="line"/>
      <point x="484" y="50" type="line"/>
      <point x="475" y="0" type="line"/>
    </contour>
  </outline>
</glyph>
<glyph name="oe" format="1">
  <advance width="771"/>
  <unicode hex="0153"/>
  <outline>
    <contour>
      <point x="220" y="-10" type="curve" smooth="yes"/>
      <point x="299" y="-10"/>
      <point x="363" y="36"/>
      <point x="405" y="97" type="curve"/>
      <point x="383" y="97" type="line"/>
      <point x="398" y="30"/>
      <point x="444" y="-10"/>
      <point x="527" y="-10" type="curve" smooth="yes"/>
      <point x="596" y="-10"/>
      <point x="664" y="50"/>
      <point x="705" y="121" type="curve"/>
      <point x="695" y="129" type="line"/>
      <point x="693" y="129" type="line"/>
      <point x="648" y="75"/>
      <point x="606" y="52"/>
      <point x="562" y="52" type="curve" smooth="yes"/>
      <point x="479" y="52"/>
      <point x="454" y="113"/>
      <point x="454" y="185" type="curve" smooth="yes"/>
      <point x="454" y="313"/>
      <point x="506" y="425"/>
      <point x="603" y="425" type="curve" smooth="yes"/>
      <point x="636" y="425"/>
      <point x="654" y="405"/>
      <point x="654" y="378" type="curve" smooth="yes"/>
      <point x="654" y="315"/>
      <point x="608" y="288"/>
      <point x="448" y="261" type="curve"/>
      <point x="442" y="225" type="line"/>
      <point x="669" y="260"/>
      <point x="731" y="314"/>
      <point x="731" y="383" type="curve" smooth="yes"/>
      <point x="731" y="421"/>
      <point x="698" y="460"/>
      <point x="630" y="460" type="curve" smooth="yes"/>
      <point x="547" y="460"/>
      <point x="474" y="406"/>
      <point x="428" y="329" type="curve"/>
      <point x="453" y="329" type="line"/>
      <point x="435" y="408"/>
      <point x="382" y="460"/>
      <point x="289" y="460" type="curve" smooth="yes"/>
      <point x="147" y="460"/>
      <point x="50" y="309"/>
      <point x="50" y="184" type="curve" smooth="yes"/>
      <point x="50" y="70"/>
      <point x="104" y="-10"/>
    </contour>
    <contour>
      <point x="231" y="28" type="curve" smooth="yes"/>
      <point x="159" y="28"/>
      <point x="137" y="82"/>
      <point x="137" y="181" type="curve" smooth="yes"/>
      <point x="137" y="326"/>
      <point x="195" y="423"/>
      <point x="280" y="423" type="curve" smooth="yes"/>
      <point x="351" y="423"/>
      <point x="372" y="370"/>
      <point x="372" y="272" type="curve" smooth="yes"/>
      <point x="372" y="140"/>
      <point x="318" y="28"/>
    </contour>
  </outline>
</glyph>
<glyph name="Scedilla" format="1">
  <advance width="489"/>
  <unicode hex="015E"/>
  <outline>
    <contour>
      <point x="177" y="-10" type="curve" smooth="yes"/>
      <point x="278" y="-10"/>
      <point x="411" y="57"/>
      <point x="411" y="199" type="curve" smooth="yes"/>
      <point x="411" y="280"/>
      <point x="365" y="321"/>
      <point x="272" y="373" type="curve" smooth="yes"/>
      <point x="206" y="410"/>
      <point x="174" y="439"/>
      <point x="174" y="492" type="curve" smooth="yes"/>
      <point x="174" y="573"/>
      <point x="229" y="626"/>
      <point x="291" y="626" type="curve" smooth="yes"/>
      <point x="337" y="626"/>
      <point x="365" y="606"/>
      <point x="388" y="584" type="curve"/>
      <point x="425" y="468" type="line"/>
      <point x="441" y="468" type="line"/>
      <point x="459" y="628" type="line"/>
      <point x="413" y="655"/>
      <point x="369" y="670"/>
      <point x="310" y="670" type="curve" smooth="yes"/>
      <point x="225" y="670"/>
      <point x="98" y="596"/>
      <point x="98" y="471" type="curve" smooth="yes"/>
      <point x="98" y="398"/>
      <point x="137" y="358"/>
      <point x="206" y="318" type="curve" smooth="yes"/>
      <point x="279" y="276"/>
      <point x="328" y="250"/>
      <point x="328" y="181" type="curve" smooth="yes"/>
      <point x="328" y="102"/>
      <point x="285" y="32"/>
      <point x="185" y="32" type="curve" smooth="yes"/>
      <point x="138" y="32"/>
      <point x="102" y="56"/>
      <point x="74" y="83" type="curve"/>
      <point x="35" y="200" type="line"/>
      <point x="19" y="200" type="line"/>
      <point x="0" y="36" type="line"/>
      <point x="54" y="5"/>
      <point x="99" y="-10"/>
    </contour>
    <contour>
      <point x="141" y="-240" type="curve" smooth="yes"/>
      <point x="206" y="-240"/>
      <point x="245" y="-200"/>
      <point x="245" y="-151" type="curve" smooth="yes"/>
      <point x="245" y="-101"/>
      <point x="218" y="-74"/>
      <point x="149" y="-50" type="curve"/>
      <point x="153" y="-69" type="line"/>
      <point x="210" y="20" type="line"/>
      <point x="180" y="20" type="line"/>
      <point x="107" y="-95" type="line"/>
      <point x="170" y="-115"/>
      <point x="193" y="-132"/>
      <point x="193" y="-165" type="curve" smooth="yes"/>
      <point x="193" y="-195"/>
      <point x="171" y="-213"/>
      <point x="129" y="-213" type="curve" smooth="yes"/>
      <point x="102" y="-213"/>
      <point x="85" y="-207"/>
      <point x="68" y="-199" type="curve"/>
      <point x="65" y="-199" type="line"/>
      <point x="63" y="-210" type="line"/>
      <point x="77" y="-229"/>
      <point x="107" y="-240"/>
    </contour>
  </outline>
</glyph>
